<svg width="231" height="72" viewBox="0 0 231 72" fill="none" xmlns="http://www.w3.org/2000/svg">
<rect x="0.39054" y="0.98429" width="230.117" height="70.5873" rx="35.2936" fill="black" fill-opacity="0.6" stroke="white" stroke-width="0.78108"/>
<path d="M47.4587 36.7614H52.3667V42.2934H50.9987V38.0574H48.7667V42.3414H47.4587V36.7614ZM49.0547 31.0974H50.4587V37.1094H49.0547V31.0974ZM49.8947 33.5694H52.7867V34.9014H49.8947V33.5694ZM48.1427 40.5774H51.6347V41.8854H48.1427V40.5774ZM43.0187 32.4174V35.0334H45.9347V32.4174H43.0187ZM41.9507 31.4454H47.0507V36.0054H41.9507V31.4454ZM42.9947 32.9334L43.5827 32.7534C43.7747 33.3054 43.9307 34.0254 43.9667 34.4814L43.3427 34.6854C43.3187 34.2054 43.1747 33.4854 42.9947 32.9334ZM43.2827 39.8094L44.1587 39.7014C44.3147 40.3734 44.4107 41.2374 44.4107 41.8134L43.4867 41.9214C43.5107 41.3454 43.4147 40.4814 43.2827 39.8094ZM44.4827 39.7614L45.3347 39.6054C45.5747 40.2294 45.8027 41.0454 45.8627 41.5854L44.9747 41.7774C44.9267 41.2374 44.7107 40.3974 44.4827 39.7614ZM45.6587 39.6534L46.5107 39.3414C46.9067 39.9174 47.2907 40.6854 47.4347 41.2134L46.5347 41.5854C46.3907 41.0574 46.0187 40.2534 45.6587 39.6534ZM42.2387 39.7374L43.1987 40.0254C43.0547 40.8894 42.8387 41.8014 42.3467 42.3534L41.4107 41.8734C41.8547 41.3694 42.1187 40.5294 42.2387 39.7374ZM45.3467 32.7414L46.0667 32.9934C45.8387 33.5694 45.5987 34.2654 45.3947 34.6974L44.8667 34.5054C45.0347 34.0134 45.2507 33.2454 45.3467 32.7414ZM41.6627 38.2494C43.0667 38.2134 45.1907 38.1414 47.2187 38.0574L47.1827 39.1734C45.2267 39.2934 43.1747 39.3894 41.7107 39.4614L41.6627 38.2494ZM41.9627 36.5214H47.0147V37.6134H41.9627V36.5214ZM44.0147 31.9374H44.8907V35.5614H45.0827V38.6934H43.8227V35.5614H44.0147V31.9374ZM54.5747 38.4894H63.8387V39.3654H54.5747V38.4894ZM53.7947 39.7614H64.5587V40.6734H53.7947V39.7614ZM58.4507 37.5054H59.8787V41.1174C59.8787 41.7654 59.7107 42.0294 59.2307 42.1974C58.7507 42.3534 58.1027 42.3534 57.1667 42.3534C57.0947 42.0294 56.8907 41.5854 56.7227 41.2854C57.2867 41.3094 58.0067 41.3094 58.1867 41.2974C58.3787 41.2974 58.4507 41.2494 58.4507 41.0814V37.5054ZM62.0267 37.0254L62.8667 37.7454C60.8027 38.0934 57.6947 38.1894 55.1267 38.1534C55.1027 37.9374 54.9827 37.5654 54.8987 37.3614C57.4067 37.3734 60.4067 37.2774 62.0267 37.0254ZM53.8547 31.6254H59.1107V32.3454H53.8547V31.6254ZM53.6627 34.9614H59.1467V35.6574H53.6627V34.9614ZM55.1027 33.8814V34.1814H57.8267V33.8814H55.1027ZM55.1027 33.1254V33.4134H57.8267V33.1254H55.1027ZM54.1667 32.6334H58.7987V34.6734H54.1667V32.6334ZM55.8827 31.0974H56.9867V36.9534H55.8827V31.0974ZM59.3267 34.0254H63.4547V34.9254H59.3267V34.0254ZM60.5627 31.4214H62.6987V32.3814H60.5627V31.4214ZM62.9867 34.0254H63.2147L63.4307 34.0014L64.0907 34.1814C63.4067 36.0774 61.7627 36.8334 59.5307 37.1814C59.4467 36.8934 59.2307 36.4734 59.0387 36.2574C60.9707 36.0534 62.4587 35.4654 62.9867 34.1334V34.0254ZM60.8507 34.8054C61.5467 35.7414 63.0347 36.3414 64.8347 36.5454C64.5827 36.7854 64.2587 37.2414 64.1027 37.5414C62.1707 37.2174 60.6587 36.4014 59.8067 35.1174L60.8507 34.8054ZM59.8787 31.4214H61.0547V32.1654C61.0547 32.8974 60.8507 33.7014 59.8907 34.2174C59.7227 33.9774 59.2187 33.5214 58.9787 33.3654C59.7707 32.9934 59.8787 32.5614 59.8787 32.1294V31.4214ZM62.0507 31.4214H63.2627V32.4654C63.2627 32.6334 63.2747 32.7294 63.2867 32.7774C63.3227 32.8014 63.3587 32.8134 63.4067 32.8134C63.4547 32.8134 63.5387 32.8134 63.5987 32.8134C63.6467 32.8134 63.7067 32.8014 63.7307 32.7894C63.7667 32.7774 63.8027 32.7414 63.8267 32.6454C63.8507 32.5614 63.8627 32.3574 63.8747 32.1054C64.0787 32.2854 64.4387 32.4774 64.7267 32.5614C64.7027 32.8854 64.6427 33.2454 64.5707 33.3894C64.4867 33.5454 64.3547 33.6654 64.1867 33.7254C64.0427 33.7974 63.8027 33.8214 63.6227 33.8214C63.4667 33.8214 63.2267 33.8214 63.0707 33.8214C62.8067 33.8214 62.4827 33.7374 62.3147 33.5574C62.1227 33.3774 62.0507 33.1374 62.0507 32.5014V31.4214ZM54.2507 35.7534H55.2227V36.3414H57.6707V35.7534H58.7027V37.0734H54.2507V35.7534ZM65.7707 31.9614H76.5467V33.4134H65.7707V31.9614ZM70.1267 33.2694H71.6747V42.3294H70.1267V33.2694ZM70.9427 36.1734L71.9267 35.0334C73.2347 35.6814 75.1187 36.7254 76.0427 37.4694L74.9747 38.7894C74.1227 38.0334 72.2987 36.9054 70.9427 36.1734ZM85.8947 31.8294L86.9387 31.1334C87.4787 31.6254 88.1507 32.3094 88.4627 32.7894L87.3467 33.5574C87.0707 33.0774 86.4227 32.3454 85.8947 31.8294ZM77.6987 33.6414H88.6307V34.8174H77.6987V33.6414ZM78.2507 31.9014H83.4827V32.9934H78.2507V31.9014ZM78.0347 35.3454H83.6987V36.3534H78.0347V35.3454ZM77.8667 40.2534H83.6867V41.2974H77.8667V40.2534ZM80.1947 31.0854H81.5627V34.7334H80.1947V31.0854ZM79.2587 38.6334V39.0894H82.4747V38.6334H79.2587ZM79.2587 37.5174V37.9614H82.4747V37.5174H79.2587ZM78.2507 36.8094H83.5307V39.7854H78.2507V36.8094ZM80.3387 37.2534H81.3827V39.5334H81.4907V42.3654H80.2307V39.5334H80.3387V37.2534ZM80.2187 34.7334H81.5147V37.0734H80.2187V34.7334ZM84.0467 31.0974H85.4987C85.3667 36.2334 86.1107 40.9494 87.2387 40.9494C87.5027 40.9494 87.6107 40.3734 87.6827 38.9814C87.9827 39.2934 88.4627 39.6054 88.8227 39.7374C88.6187 41.8254 88.1747 42.3534 87.1187 42.3534C84.6107 42.3534 84.0587 36.8334 84.0467 31.0974ZM86.9867 35.3334L88.2587 35.7294C87.3347 38.6574 85.7867 40.9014 83.5667 42.3774C83.3627 42.0294 82.9427 41.5734 82.5947 41.2854C84.6827 40.0854 86.1827 37.9974 86.9867 35.3334ZM98.7587 42.0774L97.7507 42.3774L95.3747 36.7134L97.7507 31.0614L98.7587 31.3614L96.4787 36.7134L98.7587 42.0774ZM100.823 42.0774L99.8267 42.3774L97.4387 36.7134L99.8267 31.0614L100.823 31.3614L98.5547 36.7134L100.823 42.0774ZM103.859 35.2614H110.387V36.5934H103.859V35.2614ZM103.859 37.8294H110.387V39.1614H103.859V37.8294ZM103.859 40.4094H110.387V41.7414H103.859V40.4094ZM102.875 32.6454H111.599V42.3174H110.063V34.0254H104.339V42.3414H102.875V32.6454ZM106.283 31.0734L108.023 31.2534C107.735 32.0574 107.387 32.8494 107.123 33.3774L105.803 33.1374C105.995 32.5374 106.199 31.6974 106.283 31.0734ZM113.855 38.8494H119.459V39.8694H113.855V38.8494ZM113.579 33.1374H119.579V34.1814H113.579V33.1374ZM115.967 32.2854H117.263V40.8894H115.967V32.2854ZM113.519 40.7574C115.007 40.6494 117.299 40.4814 119.459 40.2894L119.471 41.3814C117.431 41.5974 115.247 41.8134 113.687 41.9574L113.519 40.7574ZM115.043 36.9294V37.4814H118.211V36.9294H115.043ZM115.043 35.5494V36.0894H118.211V35.5494H115.043ZM113.891 34.6494H119.399V38.3814H113.891V34.6494ZM118.811 31.1454L119.447 32.2254C117.911 32.5374 115.727 32.7174 113.927 32.7534C113.879 32.4654 113.747 32.0094 113.615 31.7334C115.403 31.6494 117.491 31.4334 118.811 31.1454ZM119.579 33.7974H123.731V35.1174H119.579V33.7974ZM123.155 33.7974H124.535C124.535 33.7974 124.523 34.2654 124.523 34.4334C124.415 39.3774 124.319 41.1294 123.923 41.6694C123.659 42.0774 123.383 42.2094 122.987 42.2814C122.615 42.3534 122.051 42.3534 121.487 42.3294C121.451 41.9334 121.295 41.3454 121.067 40.9614C121.583 41.0094 122.039 41.0094 122.279 41.0094C122.459 41.0094 122.579 40.9734 122.687 40.8054C122.963 40.4454 123.059 38.7534 123.155 34.1094V33.7974ZM120.731 31.2894H122.111C122.099 36.4134 122.087 40.2654 119.315 42.4494C119.111 42.1014 118.643 41.6094 118.319 41.3694C120.851 39.4374 120.719 36.0774 120.731 31.2894ZM129.335 37.9854H136.691V39.3174H129.335V37.9854ZM130.271 34.9614H134.855V36.2574H130.271V34.9614ZM132.395 36.9894H133.847V40.8294C133.847 41.5494 133.727 41.9214 133.211 42.1374C132.707 42.3414 131.999 42.3534 131.039 42.3534C130.979 41.9334 130.811 41.3694 130.631 40.9734C131.243 40.9974 131.951 40.9974 132.143 40.9974C132.335 40.9854 132.395 40.9494 132.395 40.7934V36.9894ZM134.495 34.9614H134.855L135.155 34.8774L136.055 35.5974C135.323 36.4254 134.327 37.3734 133.415 37.9854C133.235 37.7334 132.863 37.3374 132.647 37.1454C133.331 36.6534 134.147 35.7774 134.495 35.2254V34.9614ZM125.819 32.6454H136.523V34.0254H125.819V32.6454ZM129.575 31.0734L131.099 31.4454C130.211 34.3614 128.699 37.2894 126.119 39.0534C125.963 38.6574 125.627 37.9974 125.399 37.6374C127.583 36.2094 128.951 33.5094 129.575 31.0734ZM127.175 36.0894H128.639V42.3414H127.175V36.0894ZM137.687 33.5694H141.431V34.9014H137.687V33.5694ZM139.079 31.0854H140.375V42.3534H139.079V31.0854ZM139.067 34.4814L139.859 34.7574C139.535 36.6534 138.875 38.9934 138.047 40.2174C137.915 39.8334 137.603 39.2814 137.399 38.9334C138.143 37.8894 138.803 36.0054 139.067 34.4814ZM140.303 35.4174C140.555 35.7414 141.515 37.2894 141.719 37.6254L141.011 38.6334C140.759 37.9374 140.051 36.5334 139.751 35.9694L140.303 35.4174ZM142.799 39.3174H147.443V40.3014H142.799V39.3174ZM142.691 40.9254H147.611V41.9694H142.691V40.9254ZM144.395 31.0854H145.763V33.5934H144.395V31.0854ZM144.455 38.2854H145.679V41.4774H144.455V38.2854ZM141.599 32.9454H148.655V35.0694H147.323V34.0494H142.871V35.0694H141.599V32.9454ZM141.863 37.6614H148.379V42.3414H146.999V38.7054H143.171V42.3534H141.863V37.6614ZM143.939 35.5734V36.2574H146.315V35.5734H143.939ZM142.703 34.6134H147.635V37.2294H142.703V34.6134ZM141.995 31.5894L143.147 31.1934C143.447 31.6374 143.771 32.2494 143.891 32.6694L142.667 33.1014C142.559 32.6934 142.271 32.0574 141.995 31.5894ZM146.963 31.1574L148.295 31.5534C147.959 32.1294 147.635 32.7054 147.371 33.0774L146.279 32.7174C146.519 32.2854 146.807 31.6254 146.963 31.1574ZM155.159 35.0934C154.523 35.0934 154.007 34.6134 154.007 33.9654C154.007 33.3054 154.523 32.8254 155.159 32.8254C155.783 32.8254 156.299 33.3054 156.299 33.9654C156.299 34.6134 155.783 35.0934 155.159 35.0934ZM155.159 40.8174C154.523 40.8174 154.007 40.3374 154.007 39.6894C154.007 39.0294 154.523 38.5494 155.159 38.5494C155.783 38.5494 156.299 39.0294 156.299 39.6894C156.299 40.3374 155.783 40.8174 155.159 40.8174ZM167.891 34.0734H169.295V38.2854H167.891V34.0734ZM167.075 35.2734L168.095 35.6454C167.519 36.6774 166.487 37.6974 165.455 38.2134C165.263 37.9254 164.879 37.4694 164.591 37.2414C165.563 36.8454 166.559 36.0654 167.075 35.2734ZM169.967 35.2974C170.543 36.0294 171.647 36.7614 172.655 37.1094C172.367 37.3494 171.959 37.8294 171.767 38.1534C170.723 37.6374 169.619 36.6534 168.995 35.6694L169.967 35.2974ZM167.039 32.5494V33.2454H170.183V32.5494H167.039ZM165.707 31.5054H171.611V34.2894H165.707V31.5054ZM161.519 40.9014H172.799V42.1374H161.519V40.9014ZM162.563 38.8374H171.683V40.0494H162.563V38.8374ZM164.795 34.8894H172.415V35.9694H164.795V34.8894ZM166.379 38.0214H167.867V41.5134H166.379V38.0214ZM162.971 33.8334L164.303 32.5014L164.327 32.5254V38.3814H162.971V33.8334ZM164.015 31.0374L165.323 31.4694C164.603 33.0774 163.427 34.7694 162.299 35.8254C162.131 35.5254 161.687 34.8774 161.435 34.5894C162.443 33.7254 163.427 32.3814 164.015 31.0374ZM178.427 31.8054H179.807V34.4214H178.427V31.8054ZM175.967 35.6934H176.879V38.2374H175.967V35.6934ZM181.391 35.6934H182.327V38.2374H181.391V35.6934ZM178.403 38.6934H179.855V41.7174H178.403V38.6934ZM176.807 33.5454V34.0254H181.451V33.5454H176.807ZM176.807 32.2854V32.7534H181.451V32.2854H176.807ZM175.475 31.4454H182.843V34.8774H175.475V31.4454ZM175.127 37.3494V37.8174H177.743V37.3494H175.127ZM175.127 36.0894V36.5574H177.743V36.0894H175.127ZM174.047 35.2494H178.859V38.6574H174.047V35.2494ZM180.563 37.3494V37.8174H183.191V37.3494H180.563ZM180.563 36.0894V36.5574H183.191V36.0894H180.563ZM179.483 35.2494H184.307V38.6574H179.483V35.2494ZM173.675 40.9614H184.655V42.0774H173.675V40.9614ZM174.863 39.2694H183.491V40.3494H174.863V39.2694ZM187.547 42.0774L189.827 36.7134L187.547 31.3614L188.555 31.0614L190.931 36.7134L188.555 42.3774L187.547 42.0774ZM185.483 42.0774L187.751 36.7134L185.483 31.3614L186.479 31.0614L188.855 36.7134L186.479 42.3774L185.483 42.0774Z" fill="white"/>
</svg>
