<svg width="232" height="72" viewBox="0 0 232 72" fill="none" xmlns="http://www.w3.org/2000/svg">
<rect x="0.854407" y="0.98429" width="230.117" height="70.5873" rx="35.2936" fill="black" fill-opacity="0.6" stroke="white" stroke-width="0.78108"/>
<path d="M39.2126 36.7692H44.1206V42.3013H42.7526V38.0652H40.5206V42.3493H39.2126V36.7692ZM40.8086 31.1052H42.2126V37.1172H40.8086V31.1052ZM41.6486 33.5772H44.5406V34.9092H41.6486V33.5772ZM39.8966 40.5852H43.3886V41.8933H39.8966V40.5852ZM34.7726 32.4252V35.0412H37.6886V32.4252H34.7726ZM33.7046 31.4532H38.8046V36.0132H33.7046V31.4532ZM34.7486 32.9412L35.3366 32.7612C35.5286 33.3132 35.6846 34.0332 35.7206 34.4892L35.0966 34.6932C35.0726 34.2132 34.9286 33.4932 34.7486 32.9412ZM35.0366 39.8172L35.9126 39.7092C36.0686 40.3812 36.1646 41.2452 36.1646 41.8213L35.2406 41.9293C35.2646 41.3533 35.1686 40.4893 35.0366 39.8172ZM36.2366 39.7692L37.0886 39.6132C37.3286 40.2372 37.5566 41.0532 37.6166 41.5933L36.7286 41.7853C36.6806 41.2452 36.4646 40.4052 36.2366 39.7692ZM37.4126 39.6612L38.2646 39.3492C38.6606 39.9252 39.0446 40.6932 39.1886 41.2212L38.2886 41.5933C38.1446 41.0652 37.7726 40.2612 37.4126 39.6612ZM33.9926 39.7452L34.9526 40.0332C34.8086 40.8972 34.5926 41.8093 34.1006 42.3613L33.1646 41.8813C33.6086 41.3773 33.8726 40.5372 33.9926 39.7452ZM37.1006 32.7492L37.8206 33.0012C37.5926 33.5772 37.3526 34.2732 37.1486 34.7052L36.6206 34.5132C36.7886 34.0212 37.0046 33.2532 37.1006 32.7492ZM33.4166 38.2572C34.8206 38.2212 36.9446 38.1492 38.9726 38.0652L38.9366 39.1812C36.9806 39.3012 34.9286 39.3972 33.4646 39.4692L33.4166 38.2572ZM33.7166 36.5292H38.7686V37.6212H33.7166V36.5292ZM35.7686 31.9452H36.6446V35.5692H36.8366V38.7012H35.5766V35.5692H35.7686V31.9452ZM46.3286 38.4972H55.5926V39.3732H46.3286V38.4972ZM45.5486 39.7692H56.3126V40.6812H45.5486V39.7692ZM50.2046 37.5132H51.6326V41.1252C51.6326 41.7733 51.4646 42.0373 50.9846 42.2053C50.5046 42.3613 49.8566 42.3613 48.9206 42.3613C48.8486 42.0373 48.6446 41.5933 48.4766 41.2933C49.0406 41.3173 49.7606 41.3173 49.9406 41.3053C50.1326 41.3053 50.2046 41.2572 50.2046 41.0892V37.5132ZM53.7806 37.0332L54.6206 37.7533C52.5566 38.1012 49.4486 38.1973 46.8806 38.1612C46.8566 37.9452 46.7366 37.5732 46.6526 37.3692C49.1606 37.3812 52.1606 37.2852 53.7806 37.0332ZM45.6086 31.6332H50.8646V32.3532H45.6086V31.6332ZM45.4166 34.9692H50.9006V35.6652H45.4166V34.9692ZM46.8566 33.8892V34.1892H49.5806V33.8892H46.8566ZM46.8566 33.1332V33.4212H49.5806V33.1332H46.8566ZM45.9206 32.6412H50.5526V34.6812H45.9206V32.6412ZM47.6366 31.1052H48.7406V36.9612H47.6366V31.1052ZM51.0806 34.0332H55.2086V34.9332H51.0806V34.0332ZM52.3166 31.4292H54.4526V32.3892H52.3166V31.4292ZM54.7406 34.0332H54.9686L55.1846 34.0092L55.8446 34.1892C55.1606 36.0852 53.5166 36.8412 51.2846 37.1892C51.2006 36.9012 50.9846 36.4812 50.7926 36.2652C52.7246 36.0612 54.2126 35.4732 54.7406 34.1412V34.0332ZM52.6046 34.8132C53.3006 35.7492 54.7886 36.3492 56.5886 36.5532C56.3366 36.7932 56.0126 37.2492 55.8566 37.5492C53.9246 37.2252 52.4126 36.4092 51.5606 35.1252L52.6046 34.8132ZM51.6326 31.4292H52.8086V32.1732C52.8086 32.9052 52.6046 33.7092 51.6446 34.2253C51.4766 33.9852 50.9726 33.5292 50.7326 33.3732C51.5246 33.0012 51.6326 32.5692 51.6326 32.1372V31.4292ZM53.8046 31.4292H55.0166V32.4732C55.0166 32.6412 55.0286 32.7372 55.0406 32.7852C55.0766 32.8092 55.1126 32.8212 55.1606 32.8212C55.2086 32.8212 55.2926 32.8212 55.3526 32.8212C55.4006 32.8212 55.4606 32.8092 55.4846 32.7972C55.5206 32.7852 55.5566 32.7492 55.5806 32.6532C55.6046 32.5692 55.6166 32.3652 55.6286 32.1132C55.8326 32.2932 56.1926 32.4852 56.4806 32.5692C56.4566 32.8932 56.3966 33.2532 56.3246 33.3972C56.2406 33.5532 56.1086 33.6732 55.9406 33.7332C55.7966 33.8052 55.5566 33.8292 55.3766 33.8292C55.2206 33.8292 54.9806 33.8292 54.8246 33.8292C54.5606 33.8292 54.2366 33.7452 54.0686 33.5652C53.8766 33.3852 53.8046 33.1452 53.8046 32.5092V31.4292ZM46.0046 35.7612H46.9766V36.3492H49.4246V35.7612H50.4566V37.0812H46.0046V35.7612ZM57.5246 31.9692H68.3006V33.4212H57.5246V31.9692ZM61.8806 33.2772H63.4286V42.3373H61.8806V33.2772ZM62.6966 36.1812L63.6806 35.0412C64.9886 35.6892 66.8726 36.7332 67.7966 37.4772L66.7286 38.7972C65.8766 38.0412 64.0526 36.9132 62.6966 36.1812ZM77.6486 31.8372L78.6926 31.1412C79.2326 31.6332 79.9046 32.3172 80.2166 32.7972L79.1006 33.5652C78.8246 33.0852 78.1766 32.3532 77.6486 31.8372ZM69.4526 33.6492H80.3846V34.8252H69.4526V33.6492ZM70.0046 31.9092H75.2366V33.0012H70.0046V31.9092ZM69.7886 35.3532H75.4526V36.3612H69.7886V35.3532ZM69.6206 40.2612H75.4406V41.3053H69.6206V40.2612ZM71.9486 31.0932H73.3166V34.7412H71.9486V31.0932ZM71.0126 38.6412V39.0972H74.2286V38.6412H71.0126ZM71.0126 37.5252V37.9692H74.2286V37.5252H71.0126ZM70.0046 36.8172H75.2846V39.7932H70.0046V36.8172ZM72.0926 37.2612H73.1366V39.5412H73.2446V42.3733H71.9846V39.5412H72.0926V37.2612ZM71.9726 34.7412H73.2686V37.0812H71.9726V34.7412ZM75.8006 31.1052H77.2526C77.1206 36.2412 77.8646 40.9572 78.9926 40.9572C79.2566 40.9572 79.3646 40.3812 79.4366 38.9892C79.7366 39.3012 80.2166 39.6132 80.5766 39.7452C80.3726 41.8333 79.9286 42.3613 78.8726 42.3613C76.3646 42.3613 75.8126 36.8412 75.8006 31.1052ZM78.7406 35.3412L80.0126 35.7372C79.0886 38.6652 77.5406 40.9092 75.3206 42.3853C75.1166 42.0373 74.6966 41.5813 74.3486 41.2933C76.4366 40.0932 77.9366 38.0052 78.7406 35.3412ZM90.5126 42.0853L89.5046 42.3853L87.1286 36.7212L89.5046 31.0692L90.5126 31.3692L88.2326 36.7212L90.5126 42.0853ZM92.5766 42.0853L91.5806 42.3853L89.1926 36.7212L91.5806 31.0692L92.5766 31.3692L90.3086 36.7212L92.5766 42.0853ZM95.4926 31.7052H103.905V33.1332H95.4926V31.7052ZM95.6606 34.8252H102.153V36.2172H95.6606V34.8252ZM94.7606 31.7052H96.2126V35.0772C96.2126 37.1772 95.9846 40.3572 94.5566 42.3373C94.3046 42.0853 93.6806 41.6533 93.3326 41.4973C94.6646 39.6732 94.7606 36.9852 94.7606 35.0772V31.7052ZM101.781 34.8252H102.057L102.333 34.7652L103.341 35.1732C102.357 39.1932 99.8366 41.2933 96.4166 42.3613C96.2366 41.9653 95.8766 41.3533 95.5766 41.0412C98.6606 40.2612 101.025 38.2692 101.781 35.0892V34.8252ZM97.9406 35.6052C98.9006 38.4132 100.953 40.2852 104.397 41.0172C104.049 41.3413 103.629 41.9653 103.425 42.3733C99.7766 41.4493 97.7606 39.3372 96.5486 36.0012L97.9406 35.6052ZM108.501 38.4732H109.929V40.4893C109.929 40.8372 110.025 40.8853 110.565 40.8853C110.805 40.8853 111.825 40.8853 112.137 40.8853C112.581 40.8853 112.665 40.7412 112.725 39.7212C113.013 39.9372 113.613 40.1532 113.997 40.2372C113.841 41.7733 113.445 42.1693 112.269 42.1693C111.945 42.1693 110.709 42.1693 110.385 42.1693C108.861 42.1693 108.501 41.7613 108.501 40.5012V38.4732ZM109.917 38.1612L110.961 37.4172C111.585 37.8612 112.329 38.5212 112.665 39.0132L111.537 39.8292C111.237 39.3372 110.529 38.6292 109.917 38.1612ZM111.441 34.1172L112.461 33.4812C113.025 33.9852 113.673 34.7052 113.937 35.2213L112.845 35.9172C112.605 35.4012 111.993 34.6452 111.441 34.1172ZM113.265 38.9292L114.465 38.3172C115.329 39.1212 116.229 40.2372 116.577 41.1132L115.269 41.7973C114.969 40.9692 114.117 39.7932 113.265 38.9292ZM106.821 38.4732L108.117 38.8932C107.805 40.0572 107.349 41.2092 106.437 41.9413L105.237 41.1372C106.041 40.5132 106.569 39.5173 106.821 38.4732ZM105.597 31.7292H109.953V32.9892H105.597V31.7292ZM110.721 31.5492H114.549V32.8092H110.721V31.5492ZM107.073 32.2692H108.405V35.9652H107.073V32.2692ZM105.309 36.0012C106.461 35.7252 108.201 35.2452 109.845 34.7652L110.049 36.0132C108.561 36.5172 106.953 37.0212 105.717 37.3932L105.309 36.0012ZM110.469 31.5492H111.801V34.0932C111.801 35.5212 111.381 37.0572 109.677 37.9572C109.497 37.6692 109.101 37.2132 108.813 36.9732C110.277 36.3492 110.469 35.0892 110.469 34.0812V31.5492ZM113.637 31.5492H114.981V35.9772C114.981 36.1932 114.981 36.3132 115.017 36.3612C115.041 36.3972 115.089 36.4092 115.149 36.4092C115.197 36.4092 115.281 36.4092 115.353 36.4092C115.413 36.4092 115.473 36.3972 115.509 36.3732C115.545 36.3492 115.569 36.2772 115.593 36.1332C115.629 35.9892 115.641 35.6532 115.653 35.2452C115.893 35.4612 116.361 35.7012 116.721 35.8212C116.685 36.2652 116.637 36.7692 116.553 36.9852C116.457 37.2132 116.325 37.3572 116.121 37.4652C115.941 37.5492 115.677 37.5852 115.437 37.5852C115.245 37.5852 114.957 37.5852 114.777 37.5852C114.477 37.5852 114.141 37.5012 113.937 37.2972C113.733 37.0692 113.637 36.8172 113.637 35.9772V31.5492ZM118.845 31.1412H120.129V42.3253H118.845V31.1412ZM117.321 35.0892H121.281V36.4332H117.321V35.0892ZM118.833 35.8092L119.637 36.2052C119.265 37.8012 118.569 39.9012 117.789 41.0532C117.669 40.6092 117.345 39.9612 117.129 39.5532C117.825 38.6652 118.533 36.9972 118.833 35.8092ZM120.153 36.5292C120.465 36.8532 121.509 38.2812 121.737 38.6412L120.825 39.7452C120.561 39.0372 119.865 37.6932 119.493 37.0812L120.153 36.5292ZM117.309 32.0772L118.245 31.8372C118.569 32.7012 118.797 33.8172 118.857 34.5612L117.861 34.8012C117.825 34.0692 117.597 32.9292 117.309 32.0772ZM120.645 31.7772L121.785 32.0172C121.497 32.9532 121.161 34.0812 120.885 34.7772L120.033 34.5372C120.261 33.7932 120.525 32.6172 120.645 31.7772ZM121.929 31.9692H128.181V33.0012H121.929V31.9692ZM122.217 33.4692H127.929V34.4412H122.217V33.4692ZM121.593 34.9572H128.493V36.0012H121.593V34.9572ZM124.257 31.1052H125.625V35.5452H124.257V31.1052ZM122.217 36.4932H126.777V37.5132H123.561V42.3733H122.217V36.4932ZM126.453 36.4932H127.797V41.0652C127.797 41.6653 127.689 41.9773 127.269 42.1693C126.861 42.3493 126.297 42.3613 125.529 42.3613C125.469 42.0133 125.313 41.5333 125.157 41.2092C125.601 41.2332 126.105 41.2332 126.249 41.2332C126.405 41.2332 126.453 41.1852 126.453 41.0532V36.4932ZM122.973 38.0892H126.921V39.0252H122.973V38.0892ZM122.973 39.6012H126.921V40.5372H122.973V39.6012ZM129.489 37.7652H140.313V39.0972H129.489V37.7652ZM130.653 35.0052H139.245V38.3412H137.781V36.2532H132.033V38.3412H130.653V35.0052ZM134.109 33.8052H135.621V37.3572C135.621 39.4932 134.613 41.4013 130.125 42.3853C129.957 42.0732 129.561 41.4853 129.237 41.1732C133.449 40.3812 134.109 38.9292 134.109 37.3332V33.8052ZM135.597 38.2932C136.377 39.9012 138.045 40.7772 140.637 41.0652C140.325 41.3773 139.929 41.9773 139.737 42.3853C136.953 41.9293 135.321 40.7652 134.325 38.5932L135.597 38.2932ZM129.609 32.0172H140.169V33.3012H129.609V32.0172ZM131.961 31.0932H133.389V34.3812H131.961V31.0932ZM136.365 31.0932H137.805V34.3812H136.365V31.0932ZM146.913 35.1012C146.277 35.1012 145.761 34.6212 145.761 33.9732C145.761 33.3132 146.277 32.8332 146.913 32.8332C147.537 32.8332 148.053 33.3132 148.053 33.9732C148.053 34.6212 147.537 35.1012 146.913 35.1012ZM146.913 40.8252C146.277 40.8252 145.761 40.3452 145.761 39.6973C145.761 39.0372 146.277 38.5572 146.913 38.5572C147.537 38.5572 148.053 39.0372 148.053 39.6973C148.053 40.3452 147.537 40.8252 146.913 40.8252ZM158.865 32.4612C157.869 33.8772 156.033 35.4972 154.065 36.5892C153.873 36.2532 153.465 35.7252 153.153 35.4252C155.217 34.3812 157.161 32.5332 158.049 31.0452H159.549C160.833 32.8932 162.789 34.4652 164.697 35.2812C164.337 35.6532 164.013 36.1332 163.749 36.5772C161.901 35.5572 159.885 33.8892 158.865 32.4612ZM154.785 38.0892H162.993V39.3372H154.785V38.0892ZM155.397 35.4372H162.441V36.6972H155.397V35.4372ZM153.825 40.7892H164.073V42.0732H153.825V40.7892ZM158.109 36.0012H159.633V41.5093H158.109V36.0012ZM165.369 32.0052H169.413V33.3372H165.369V32.0052ZM169.281 33.1092H176.577V34.4292H169.281V33.1092ZM165.465 35.3532H169.281V36.6852H165.465V35.3532ZM165.141 39.5412C166.209 39.2772 167.853 38.8092 169.401 38.3652L169.593 39.5772C168.189 40.0572 166.689 40.5372 165.513 40.8972L165.141 39.5412ZM172.125 31.0812H173.517V40.7292C173.517 41.4373 173.373 41.8213 172.953 42.0613C172.533 42.3013 171.921 42.3493 171.021 42.3493C170.973 41.9653 170.733 41.3413 170.529 40.9692C171.117 40.9932 171.681 40.9812 171.873 40.9812C172.053 40.9812 172.125 40.9212 172.125 40.7292V31.0812ZM168.489 39.8172C169.257 39.4332 170.433 38.7252 171.549 38.0532L171.981 39.2412C171.081 39.8892 170.061 40.5732 169.221 41.1012L168.489 39.8172ZM169.389 35.4612L170.505 34.9692C170.961 35.6052 171.489 36.4812 171.681 37.0692L170.505 37.6212C170.325 37.0452 169.845 36.1332 169.389 35.4612ZM175.281 34.8372L176.541 35.4972C176.001 36.2412 175.401 37.0452 174.921 37.5732L173.901 36.9972C174.357 36.4332 174.945 35.5212 175.281 34.8372ZM173.961 31.8852L174.741 31.1412C175.305 31.4772 176.013 32.0172 176.349 32.4012L175.521 33.2292C175.197 32.8332 174.513 32.2692 173.961 31.8852ZM166.713 32.5572H168.105V39.5412L166.713 39.7572V32.5572ZM173.469 34.5732C173.937 37.3332 174.753 38.9652 176.781 40.3452C176.445 40.6092 176.061 41.0652 175.893 41.4493C173.661 39.7572 172.809 37.8492 172.281 34.7892L173.469 34.5732ZM177.393 32.5212H181.965V33.9012H177.393V32.5212ZM178.929 33.1332H180.357V39.1212H178.929V33.1332ZM177.189 38.9052C178.389 38.6652 180.297 38.2332 182.097 37.8132L182.253 39.0972C180.609 39.5652 178.857 40.0452 177.537 40.3932L177.189 38.9052ZM183.009 33.2292H188.505V34.5972H183.009V33.2292ZM183.309 31.0692L184.737 31.3572C184.173 33.6132 183.261 35.7972 182.181 37.1772C181.917 36.9492 181.293 36.5052 180.945 36.3252C182.037 35.1133 182.853 33.1092 183.309 31.0692ZM186.201 34.1292L187.677 34.3452C186.861 38.6412 185.037 41.0652 181.281 42.3733C181.161 42.0253 180.765 41.3653 180.513 41.0412C183.969 40.0092 185.577 37.9092 186.201 34.1292ZM183.681 34.2852C184.341 37.5132 185.793 40.0332 188.709 41.0772C188.373 41.3653 187.929 41.9653 187.713 42.3733C184.581 41.0772 183.165 38.3292 182.349 34.5252L183.681 34.2852ZM191.517 35.0172H192.813V37.5012L191.517 37.5852V35.0172ZM189.489 32.9772H194.913V33.8892H189.489V32.9772ZM189.885 31.6932H194.493V32.5572H189.885V31.6932ZM191.517 31.0932H192.813V33.5652H191.517V31.0932ZM189.429 37.0452C190.761 36.9972 192.765 36.8892 194.697 36.7692L194.685 37.7052C192.813 37.8372 190.881 37.9572 189.489 38.0532L189.429 37.0452ZM190.821 33.6852L191.841 33.7452C191.637 34.6693 190.953 35.2213 189.885 35.5212C189.801 35.3052 189.537 34.8852 189.357 34.6932C190.137 34.5372 190.689 34.2492 190.821 33.6852ZM192.429 33.4692H193.497V34.2012C193.497 34.4292 193.509 34.4532 193.629 34.4532C193.689 34.4532 193.857 34.4532 193.917 34.4532C194.049 34.4532 194.085 34.3812 194.109 34.0332C194.301 34.1652 194.697 34.2852 194.961 34.3212C194.889 34.9932 194.637 35.1852 194.061 35.1852C193.905 35.1852 193.605 35.1852 193.449 35.1852C192.609 35.1852 192.429 34.9692 192.429 34.2012V33.4692ZM189.897 35.5452H194.517V36.3972H189.897V35.5452ZM190.257 38.5932H198.357V39.6852H190.257V38.5932ZM198.057 38.5932H199.533C199.533 38.5932 199.509 38.9652 199.473 39.1452C199.305 40.7892 199.089 41.5813 198.741 41.9293C198.441 42.2053 198.129 42.3013 197.685 42.3373C197.301 42.3733 196.653 42.3733 195.969 42.3493C195.945 41.9533 195.777 41.4133 195.549 41.0652C196.161 41.1132 196.797 41.1252 197.061 41.1252C197.289 41.1252 197.421 41.1132 197.541 41.0172C197.757 40.8372 197.925 40.1892 198.057 38.7732V38.5932ZM194.097 37.9812H195.561C195.273 40.4412 194.517 41.7973 190.209 42.3853C190.113 42.0373 189.801 41.5093 189.561 41.2212C193.401 40.8012 193.881 39.8652 194.097 37.9812ZM194.865 34.9932L195.441 34.0812C196.449 34.5013 197.721 35.1852 198.333 35.7492L197.721 36.7932C197.133 36.2052 195.885 35.4492 194.865 34.9932ZM195.141 32.3892H198.741V33.5412H195.141V32.3892ZM198.237 32.3892H199.521C199.497 34.8972 199.473 36.9732 199.797 36.9732C199.917 36.9852 199.965 36.3852 199.977 35.5932C200.205 35.8932 200.505 36.2172 200.745 36.4092C200.649 37.6452 200.457 38.2212 199.689 38.2212C198.273 38.2212 198.249 35.6292 198.237 32.3892ZM196.305 31.0932H197.529C197.469 34.4412 197.277 36.6612 195.369 37.9572C195.225 37.6812 194.865 37.2492 194.601 37.0452C196.209 35.9412 196.269 34.0812 196.305 31.0932ZM203.301 42.0853L205.581 36.7212L203.301 31.3692L204.309 31.0692L206.685 36.7212L204.309 42.3853L203.301 42.0853ZM201.237 42.0853L203.505 36.7212L201.237 31.3692L202.233 31.0692L204.609 36.7212L202.233 42.3853L201.237 42.0853Z" fill="white"/>
</svg>
