<svg width="340" height="106" viewBox="0 0 340 106" fill="none" xmlns="http://www.w3.org/2000/svg">
<rect x="0.632538" y="0.40625" width="339.059" height="104.455" rx="52.2273" fill="black" fill-opacity="0.6" stroke="white" stroke-width="0.5"/>
<path d="M53.9976 59.1328V46.7797H58.0917C58.9447 46.7797 59.7417 46.9415 60.4829 47.265C61.23 47.5827 61.8859 48.0268 62.4506 48.5974C63.0212 49.1621 63.4653 49.818 63.7829 50.5651C64.1065 51.3063 64.2682 52.1033 64.2682 52.9563C64.2682 53.8092 64.1065 54.6092 63.7829 55.3563C63.4653 56.0975 63.0212 56.7534 62.4506 57.324C61.8859 57.8887 61.23 58.3328 60.4829 58.6563C59.7417 58.974 58.9447 59.1328 58.0917 59.1328H53.9976ZM56.1505 56.9798H58.0917C58.6388 56.9798 59.1535 56.8769 59.6358 56.671C60.1241 56.4593 60.5535 56.171 60.9241 55.8063C61.2947 55.4357 61.5859 55.0092 61.7976 54.5269C62.0094 54.0386 62.1153 53.5151 62.1153 52.9563C62.1153 52.3975 62.0094 51.8769 61.7976 51.3945C61.5859 50.9121 61.2947 50.4857 60.9241 50.1151C60.5535 49.7445 60.127 49.4562 59.6447 49.2504C59.1623 49.0386 58.6447 48.9327 58.0917 48.9327H56.1505V56.9798ZM69.4609 59.3622C68.6492 59.3622 67.908 59.1534 67.2374 58.7357C66.5727 58.3181 66.0403 57.7593 65.6403 57.0593C65.2462 56.3534 65.0491 55.574 65.0491 54.721C65.0491 54.0739 65.1638 53.471 65.3933 52.9122C65.6227 52.3474 65.9374 51.8533 66.3374 51.4298C66.7433 51.0004 67.2139 50.6651 67.7492 50.4239C68.2845 50.1827 68.8551 50.0621 69.4609 50.0621C70.2727 50.0621 71.011 50.271 71.6757 50.6886C72.3463 51.1063 72.8786 51.668 73.2727 52.3739C73.6728 53.0798 73.8728 53.8622 73.8728 54.721C73.8728 55.3622 73.758 55.9622 73.5286 56.521C73.2992 57.0799 72.9816 57.574 72.5757 58.0034C72.1757 58.4269 71.708 58.7593 71.1727 59.0005C70.6433 59.2416 70.0727 59.3622 69.4609 59.3622ZM69.4609 57.2093C69.8904 57.2093 70.2757 57.0946 70.6168 56.8651C70.958 56.6357 71.2257 56.3328 71.4198 55.9563C71.6198 55.5798 71.7198 55.1681 71.7198 54.721C71.7198 54.2622 71.6168 53.8445 71.411 53.468C71.211 53.0857 70.9374 52.7827 70.5904 52.5592C70.2492 52.3298 69.8727 52.2151 69.4609 52.2151C69.0374 52.2151 68.6551 52.3298 68.3139 52.5592C67.9727 52.7886 67.7021 53.0945 67.5021 53.4769C67.3021 53.8592 67.2021 54.2739 67.2021 54.721C67.2021 55.1857 67.305 55.6063 67.5109 55.9828C67.7168 56.3593 67.9903 56.6593 68.3315 56.8828C68.6786 57.1004 69.0551 57.2093 69.4609 57.2093ZM79.386 59.1328H77.2507L74.3036 50.3092H76.4124L78.3272 56.0181L80.2331 50.3092H82.3596L84.2655 56.0181L86.1802 50.3092H88.289L85.3419 59.1328H83.2066L81.2919 53.3975L79.386 59.1328ZM97.6847 53.5563V59.1328H95.5317V54.121C95.5317 53.7739 95.4464 53.4592 95.2758 53.1769C95.1052 52.8886 94.8758 52.6622 94.5876 52.4975C94.3052 52.3269 93.9905 52.2416 93.6434 52.2416C93.2964 52.2416 92.9787 52.3269 92.6905 52.4975C92.4081 52.6622 92.1817 52.8886 92.0111 53.1769C91.8464 53.4592 91.764 53.7739 91.764 54.121V59.1328H89.6111L89.6022 50.3092H91.7552L91.764 51.0945C92.064 50.7768 92.4228 50.5268 92.8405 50.3445C93.2581 50.1563 93.7082 50.0621 94.1905 50.0621C94.8317 50.0621 95.417 50.221 95.9464 50.5386C96.4758 50.8504 96.8964 51.271 97.2082 51.8004C97.5258 52.3239 97.6847 52.9092 97.6847 53.5563ZM99.4943 59.1328V45.8974H101.647V59.1328H99.4943ZM107.513 59.3622C106.701 59.3622 105.96 59.1534 105.289 58.7357C104.625 58.3181 104.092 57.7593 103.692 57.0593C103.298 56.3534 103.101 55.574 103.101 54.721C103.101 54.0739 103.216 53.471 103.445 52.9122C103.675 52.3474 103.989 51.8533 104.389 51.4298C104.795 51.0004 105.266 50.6651 105.801 50.4239C106.336 50.1827 106.907 50.0621 107.513 50.0621C108.325 50.0621 109.063 50.271 109.728 50.6886C110.398 51.1063 110.93 51.668 111.325 52.3739C111.725 53.0798 111.925 53.8622 111.925 54.721C111.925 55.3622 111.81 55.9622 111.58 56.521C111.351 57.0799 111.033 57.574 110.628 58.0034C110.228 58.4269 109.76 58.7593 109.225 59.0005C108.695 59.2416 108.125 59.3622 107.513 59.3622ZM107.513 57.2093C107.942 57.2093 108.328 57.0946 108.669 56.8651C109.01 56.6357 109.278 56.3328 109.472 55.9563C109.672 55.5798 109.772 55.1681 109.772 54.721C109.772 54.2622 109.669 53.8445 109.463 53.468C109.263 53.0857 108.989 52.7827 108.642 52.5592C108.301 52.3298 107.925 52.2151 107.513 52.2151C107.089 52.2151 106.707 52.3298 106.366 52.5592C106.025 52.7886 105.754 53.0945 105.554 53.4769C105.354 53.8592 105.254 54.2739 105.254 54.721C105.254 55.1857 105.357 55.6063 105.563 55.9828C105.769 56.3593 106.042 56.6593 106.383 56.8828C106.73 57.1004 107.107 57.2093 107.513 57.2093ZM119.986 50.3092H122.139V59.1328H119.986L119.889 58.0387C119.648 58.4328 119.327 58.7534 118.927 59.0005C118.533 59.2416 118.065 59.3622 117.524 59.3622C116.871 59.3622 116.259 59.2387 115.689 58.9916C115.118 58.7446 114.615 58.4034 114.18 57.9681C113.751 57.5328 113.412 57.0299 113.165 56.4593C112.924 55.8887 112.804 55.2769 112.804 54.6239C112.804 53.9945 112.918 53.4033 113.148 52.8504C113.383 52.2974 113.709 51.8122 114.127 51.3945C114.545 50.9768 115.027 50.6504 115.574 50.4151C116.121 50.1798 116.709 50.0621 117.339 50.0621C117.921 50.0621 118.442 50.1915 118.901 50.4504C119.365 50.7092 119.759 51.0386 120.083 51.4386L119.986 50.3092ZM117.471 57.2887C117.93 57.2887 118.336 57.174 118.689 56.9446C119.042 56.7151 119.318 56.4063 119.518 56.0181C119.718 55.624 119.818 55.1916 119.818 54.721C119.818 54.2445 119.718 53.8122 119.518 53.4239C119.318 53.0298 119.039 52.718 118.68 52.4886C118.327 52.2592 117.924 52.1445 117.471 52.1445C117.018 52.1445 116.604 52.2622 116.227 52.4975C115.856 52.7269 115.559 53.0357 115.336 53.4239C115.118 53.8122 115.009 54.2445 115.009 54.721C115.009 55.1975 115.121 55.6298 115.345 56.0181C115.568 56.4063 115.865 56.7151 116.236 56.9446C116.612 57.174 117.024 57.2887 117.471 57.2887ZM130.395 45.8974H132.548V59.1328H130.395V58.0299C130.113 58.424 129.757 58.7446 129.328 58.9916C128.898 59.2387 128.401 59.3622 127.837 59.3622C127.195 59.3622 126.595 59.2416 126.037 59.0005C125.478 58.7593 124.984 58.4269 124.554 58.0034C124.131 57.574 123.798 57.0799 123.557 56.521C123.316 55.9622 123.195 55.3622 123.195 54.721C123.195 54.0798 123.316 53.4798 123.557 52.921C123.798 52.3622 124.131 51.871 124.554 51.4474C124.984 51.018 125.478 50.6827 126.037 50.4415C126.595 50.2004 127.195 50.0798 127.837 50.0798C128.401 50.0798 128.898 50.2033 129.328 50.4504C129.757 50.6916 130.113 51.0121 130.395 51.4121V45.8974ZM127.863 57.2887C128.322 57.2887 128.728 57.174 129.081 56.9446C129.434 56.7151 129.71 56.4063 129.91 56.0181C130.11 55.624 130.21 55.1916 130.21 54.721C130.21 54.2445 130.11 53.8122 129.91 53.4239C129.71 53.0298 129.431 52.718 129.072 52.4886C128.719 52.2592 128.316 52.1445 127.863 52.1445C127.41 52.1445 126.995 52.2622 126.619 52.4975C126.248 52.7269 125.951 53.0357 125.728 53.4239C125.51 53.8122 125.401 54.2445 125.401 54.721C125.401 55.1975 125.513 55.6298 125.737 56.0181C125.96 56.4063 126.257 56.7151 126.628 56.9446C127.004 57.174 127.416 57.2887 127.863 57.2887ZM143.037 46.7797H145.517L150.008 59.1328H147.722L146.928 56.9446H141.634L140.84 59.1328H138.555L143.037 46.7797ZM142.419 54.7916H146.134L144.272 49.7004L142.419 54.7916ZM150.756 55.8681V50.3092H152.909V55.3034C152.909 55.6504 152.994 55.9681 153.165 56.2563C153.336 56.5387 153.562 56.7651 153.844 56.9357C154.133 57.1004 154.447 57.1828 154.788 57.1828C155.141 57.1828 155.459 57.1004 155.741 56.9357C156.024 56.7651 156.25 56.5387 156.421 56.2563C156.591 55.9681 156.677 55.6504 156.677 55.3034V50.3092H158.83L158.839 59.1328H156.686L156.677 58.3299C156.371 58.6475 156.009 58.9005 155.591 59.0887C155.174 59.271 154.727 59.3622 154.25 59.3622C153.609 59.3622 153.024 59.2063 152.494 58.8946C151.965 58.5769 151.541 58.1563 151.224 57.6328C150.912 57.1034 150.756 56.5151 150.756 55.8681ZM165.334 52.4622H163.622V59.1328H161.469V52.4622H160.164V50.3092H161.469V47.5386H163.622V50.3092H165.334V52.4622ZM170.605 59.3622C169.793 59.3622 169.052 59.1534 168.382 58.7357C167.717 58.3181 167.184 57.7593 166.784 57.0593C166.39 56.3534 166.193 55.574 166.193 54.721C166.193 54.0739 166.308 53.471 166.537 52.9122C166.767 52.3474 167.082 51.8533 167.482 51.4298C167.887 51.0004 168.358 50.6651 168.893 50.4239C169.429 50.1827 169.999 50.0621 170.605 50.0621C171.417 50.0621 172.155 50.271 172.82 50.6886C173.49 51.1063 174.023 51.668 174.417 52.3739C174.817 53.0798 175.017 53.8622 175.017 54.721C175.017 55.3622 174.902 55.9622 174.673 56.521C174.443 57.0799 174.126 57.574 173.72 58.0034C173.32 58.4269 172.852 58.7593 172.317 59.0005C171.787 59.2416 171.217 59.3622 170.605 59.3622ZM170.605 57.2093C171.035 57.2093 171.42 57.0946 171.761 56.8651C172.102 56.6357 172.37 56.3328 172.564 55.9563C172.764 55.5798 172.864 55.1681 172.864 54.721C172.864 54.2622 172.761 53.8445 172.555 53.468C172.355 53.0857 172.082 52.7827 171.735 52.5592C171.393 52.3298 171.017 52.2151 170.605 52.2151C170.182 52.2151 169.799 52.3298 169.458 52.5592C169.117 52.7886 168.846 53.0945 168.646 53.4769C168.446 53.8592 168.346 54.2739 168.346 54.721C168.346 55.1857 168.449 55.6063 168.655 55.9828C168.861 56.3593 169.135 56.6593 169.476 56.8828C169.823 57.1004 170.199 57.2093 170.605 57.2093ZM179.063 59.2916C178.604 59.2622 178.16 59.171 177.73 59.0181C177.307 58.8593 176.93 58.6446 176.601 58.374C176.271 58.1034 176.019 57.7799 175.842 57.4034L177.66 56.6269C177.73 56.7446 177.845 56.871 178.004 57.0063C178.163 57.1357 178.351 57.2446 178.569 57.3328C178.792 57.421 179.036 57.4651 179.301 57.4651C179.524 57.4651 179.736 57.4357 179.936 57.3769C180.142 57.3122 180.307 57.2151 180.43 57.0857C180.56 56.9563 180.624 56.7887 180.624 56.5828C180.624 56.3651 180.548 56.1975 180.395 56.0798C180.248 55.9563 180.06 55.8651 179.83 55.8063C179.607 55.7416 179.389 55.6828 179.177 55.6298C178.619 55.5181 178.098 55.3445 177.616 55.1092C177.139 54.8739 176.754 54.571 176.46 54.2004C176.171 53.8239 176.027 53.371 176.027 52.8416C176.027 52.2592 176.18 51.7563 176.486 51.3327C176.798 50.9092 177.201 50.5827 177.695 50.3533C178.195 50.1239 178.733 50.0092 179.31 50.0092C180.01 50.0092 180.651 50.1563 181.233 50.4504C181.822 50.7386 182.286 51.1474 182.627 51.6769L180.924 52.6827C180.842 52.5416 180.727 52.4122 180.58 52.2945C180.433 52.171 180.266 52.071 180.077 51.9945C179.889 51.9122 179.692 51.8651 179.486 51.8533C179.222 51.8416 178.98 51.8651 178.763 51.9239C178.545 51.9827 178.369 52.0827 178.233 52.2239C178.104 52.3651 178.039 52.5533 178.039 52.7886C178.039 53.0122 178.127 53.1798 178.304 53.2916C178.48 53.3975 178.692 53.4798 178.939 53.5386C179.192 53.5975 179.433 53.6622 179.663 53.7328C180.18 53.9033 180.666 54.1122 181.119 54.3592C181.577 54.6063 181.945 54.9092 182.222 55.2681C182.498 55.6269 182.63 56.0563 182.619 56.5563C182.619 57.1269 182.448 57.6269 182.107 58.0563C181.766 58.4799 181.324 58.8034 180.783 59.0269C180.248 59.2505 179.674 59.3387 179.063 59.2916ZM190.644 50.3092H192.797V59.1328H190.644L190.547 58.0387C190.306 58.4328 189.985 58.7534 189.585 59.0005C189.191 59.2416 188.723 59.3622 188.182 59.3622C187.529 59.3622 186.917 59.2387 186.347 58.9916C185.776 58.7446 185.273 58.4034 184.838 57.9681C184.408 57.5328 184.07 57.0299 183.823 56.4593C183.582 55.8887 183.461 55.2769 183.461 54.6239C183.461 53.9945 183.576 53.4033 183.806 52.8504C184.041 52.2974 184.367 51.8122 184.785 51.3945C185.203 50.9768 185.685 50.6504 186.232 50.4151C186.779 50.1798 187.367 50.0621 187.997 50.0621C188.579 50.0621 189.1 50.1915 189.559 50.4504C190.023 50.7092 190.417 51.0386 190.741 51.4386L190.644 50.3092ZM188.129 57.2887C188.588 57.2887 188.994 57.174 189.347 56.9446C189.7 56.7151 189.976 56.4063 190.176 56.0181C190.376 55.624 190.476 55.1916 190.476 54.721C190.476 54.2445 190.376 53.8122 190.176 53.4239C189.976 53.0298 189.697 52.718 189.338 52.4886C188.985 52.2592 188.582 52.1445 188.129 52.1445C187.676 52.1445 187.261 52.2622 186.885 52.4975C186.514 52.7269 186.217 53.0357 185.994 53.4239C185.776 53.8122 185.667 54.2445 185.667 54.721C185.667 55.1975 185.779 55.6298 186.003 56.0181C186.226 56.4063 186.523 56.7151 186.894 56.9446C187.27 57.174 187.682 57.2887 188.129 57.2887ZM199.62 59.1328H196.841L193.629 50.3004H195.923L198.235 56.6534L200.538 50.3004H202.832L199.62 59.1328ZM207.675 59.3622C206.863 59.3622 206.122 59.1534 205.451 58.7357C204.786 58.3181 204.254 57.7563 203.854 57.0504C203.46 56.3445 203.263 55.5651 203.263 54.7122C203.263 54.071 203.378 53.471 203.607 52.9122C203.836 52.3474 204.151 51.8533 204.551 51.4298C204.957 51.0004 205.428 50.6651 205.963 50.4239C206.498 50.1827 207.069 50.0621 207.675 50.0621C208.363 50.0621 208.992 50.2092 209.563 50.5033C210.139 50.7916 210.628 51.1886 211.028 51.6945C211.428 52.2004 211.719 52.7769 211.901 53.4239C212.084 54.071 212.125 54.7475 212.025 55.4534H205.575C205.657 55.7828 205.792 56.0798 205.981 56.3445C206.169 56.6034 206.407 56.8122 206.695 56.971C206.983 57.124 207.31 57.2034 207.675 57.2093C208.051 57.2151 208.392 57.1269 208.698 56.9446C209.01 56.7563 209.269 56.5034 209.475 56.1857L211.672 56.6975C211.313 57.4799 210.778 58.121 210.066 58.621C209.354 59.1152 208.557 59.3622 207.675 59.3622ZM205.504 53.8386H209.845C209.781 53.4857 209.642 53.168 209.431 52.8857C209.225 52.5975 208.969 52.368 208.663 52.1974C208.357 52.0269 208.028 51.9416 207.675 51.9416C207.322 51.9416 206.995 52.0269 206.695 52.1974C206.395 52.3622 206.139 52.5886 205.928 52.8769C205.722 53.1592 205.581 53.4798 205.504 53.8386ZM214.417 52.5239C214.111 52.5239 213.849 52.418 213.632 52.2063C213.42 51.9886 213.314 51.7239 213.314 51.4121C213.314 51.1121 213.42 50.8533 213.632 50.6357C213.849 50.418 214.111 50.3092 214.417 50.3092C214.723 50.3092 214.985 50.418 215.202 50.6357C215.42 50.8533 215.529 51.1121 215.529 51.4121C215.529 51.7239 215.42 51.9886 215.202 52.2063C214.985 52.418 214.723 52.5239 214.417 52.5239ZM214.417 59.3622C214.111 59.3622 213.849 59.2563 213.632 59.0446C213.42 58.8269 213.314 58.5622 213.314 58.2505C213.314 57.9504 213.42 57.6916 213.632 57.474C213.849 57.2563 214.111 57.1475 214.417 57.1475C214.723 57.1475 214.985 57.2563 215.202 57.474C215.42 57.6916 215.529 57.9504 215.529 58.2505C215.529 58.5622 215.42 58.8269 215.202 59.0446C214.985 59.2563 214.723 59.3622 214.417 59.3622ZM221.888 59.1328V46.7797H226.626C227.296 46.7797 227.902 46.9474 228.444 47.2827C228.985 47.618 229.414 48.068 229.732 48.6327C230.049 49.1915 230.208 49.8121 230.208 50.4945C230.208 51.0533 230.105 51.568 229.899 52.0386C229.699 52.5033 229.417 52.9063 229.052 53.2475C228.694 53.5886 228.279 53.8475 227.808 54.0239L230.764 59.1328H228.285L225.426 54.2181H224.041V59.1328H221.888ZM224.041 52.0651H226.379C226.685 52.0651 226.964 51.9886 227.217 51.8357C227.47 51.6827 227.673 51.4769 227.826 51.218C227.979 50.9592 228.055 50.671 228.055 50.3533C228.055 50.0298 227.979 49.7386 227.826 49.4798C227.673 49.2209 227.47 49.0151 227.217 48.8621C226.964 48.7092 226.685 48.6327 226.379 48.6327H224.041V52.0651ZM235.731 59.3622C234.919 59.3622 234.178 59.1534 233.507 58.7357C232.843 58.3181 232.31 57.7563 231.91 57.0504C231.516 56.3445 231.319 55.5651 231.319 54.7122C231.319 54.071 231.434 53.471 231.663 52.9122C231.893 52.3474 232.207 51.8533 232.607 51.4298C233.013 51.0004 233.484 50.6651 234.019 50.4239C234.555 50.1827 235.125 50.0621 235.731 50.0621C236.419 50.0621 237.049 50.2092 237.619 50.5033C238.196 50.7916 238.684 51.1886 239.084 51.6945C239.484 52.2004 239.775 52.7769 239.958 53.4239C240.14 54.071 240.181 54.7475 240.081 55.4534H233.631C233.713 55.7828 233.849 56.0798 234.037 56.3445C234.225 56.6034 234.463 56.8122 234.752 56.971C235.04 57.124 235.366 57.2034 235.731 57.2093C236.107 57.2151 236.449 57.1269 236.755 56.9446C237.066 56.7563 237.325 56.5034 237.531 56.1857L239.728 56.6975C239.369 57.4799 238.834 58.121 238.122 58.621C237.41 59.1152 236.613 59.3622 235.731 59.3622ZM233.56 53.8386H237.902C237.837 53.4857 237.699 53.168 237.487 52.8857C237.281 52.5975 237.025 52.368 236.719 52.1974C236.413 52.0269 236.084 51.9416 235.731 51.9416C235.378 51.9416 235.052 52.0269 234.752 52.1974C234.452 52.3622 234.196 52.5886 233.984 52.8769C233.778 53.1592 233.637 53.4798 233.56 53.8386ZM248.222 45.8974H250.375V59.1328H248.222V58.0299C247.939 58.424 247.584 58.7446 247.154 58.9916C246.725 59.2387 246.228 59.3622 245.663 59.3622C245.022 59.3622 244.422 59.2416 243.863 59.0005C243.304 58.7593 242.81 58.4269 242.381 58.0034C241.957 57.574 241.625 57.0799 241.383 56.521C241.142 55.9622 241.022 55.3622 241.022 54.721C241.022 54.0798 241.142 53.4798 241.383 52.921C241.625 52.3622 241.957 51.871 242.381 51.4474C242.81 51.018 243.304 50.6827 243.863 50.4415C244.422 50.2004 245.022 50.0798 245.663 50.0798C246.228 50.0798 246.725 50.2033 247.154 50.4504C247.584 50.6916 247.939 51.0121 248.222 51.4121V45.8974ZM245.689 57.2887C246.148 57.2887 246.554 57.174 246.907 56.9446C247.26 56.7151 247.536 56.4063 247.737 56.0181C247.937 55.624 248.037 55.1916 248.037 54.721C248.037 54.2445 247.937 53.8122 247.737 53.4239C247.536 53.0298 247.257 52.718 246.898 52.4886C246.545 52.2592 246.142 52.1445 245.689 52.1445C245.236 52.1445 244.822 52.2622 244.445 52.4975C244.075 52.7269 243.778 53.0357 243.554 53.4239C243.336 53.8122 243.228 54.2445 243.228 54.721C243.228 55.1975 243.339 55.6298 243.563 56.0181C243.786 56.4063 244.084 56.7151 244.454 56.9446C244.831 57.174 245.242 57.2887 245.689 57.2887ZM256.239 59.3622C255.427 59.3622 254.686 59.1534 254.015 58.7357C253.351 58.3181 252.818 57.7593 252.418 57.0593C252.024 56.3534 251.827 55.574 251.827 54.721C251.827 54.0739 251.942 53.471 252.171 52.9122C252.401 52.3474 252.715 51.8533 253.115 51.4298C253.521 51.0004 253.992 50.6651 254.527 50.4239C255.063 50.1827 255.633 50.0621 256.239 50.0621C257.051 50.0621 257.789 50.271 258.454 50.6886C259.124 51.1063 259.657 51.668 260.051 52.3739C260.451 53.0798 260.651 53.8622 260.651 54.721C260.651 55.3622 260.536 55.9622 260.307 56.521C260.077 57.0799 259.76 57.574 259.354 58.0034C258.954 58.4269 258.486 58.7593 257.951 59.0005C257.421 59.2416 256.851 59.3622 256.239 59.3622ZM256.239 57.2093C256.668 57.2093 257.054 57.0946 257.395 56.8651C257.736 56.6357 258.004 56.3328 258.198 55.9563C258.398 55.5798 258.498 55.1681 258.498 54.721C258.498 54.2622 258.395 53.8445 258.189 53.468C257.989 53.0857 257.716 52.7827 257.368 52.5592C257.027 52.3298 256.651 52.2151 256.239 52.2151C255.815 52.2151 255.433 52.3298 255.092 52.5592C254.751 52.7886 254.48 53.0945 254.28 53.4769C254.08 53.8592 253.98 54.2739 253.98 54.721C253.98 55.1857 254.083 55.6063 254.289 55.9828C254.495 56.3593 254.768 56.6593 255.11 56.8828C255.457 57.1004 255.833 57.2093 256.239 57.2093ZM261.482 55.8681V50.3092H263.635V55.3034C263.635 55.6504 263.72 55.9681 263.891 56.2563C264.062 56.5387 264.288 56.7651 264.57 56.9357C264.859 57.1004 265.173 57.1828 265.515 57.1828C265.868 57.1828 266.185 57.1004 266.468 56.9357C266.75 56.7651 266.976 56.5387 267.147 56.2563C267.318 55.9681 267.403 55.6504 267.403 55.3034V50.3092H269.556L269.565 59.1328H267.412L267.403 58.3299C267.097 58.6475 266.735 58.9005 266.318 59.0887C265.9 59.271 265.453 59.3622 264.976 59.3622C264.335 59.3622 263.75 59.2063 263.22 58.8946C262.691 58.5769 262.267 58.1563 261.95 57.6328C261.638 57.1034 261.482 56.5151 261.482 55.8681ZM276.077 50.0621C276.936 50.0621 277.718 50.271 278.424 50.6886C279.13 51.1063 279.691 51.668 280.109 52.3739C280.527 53.0739 280.736 53.8504 280.736 54.7034C280.736 55.3445 280.615 55.9475 280.374 56.5122C280.133 57.0769 279.797 57.574 279.368 58.0034C278.944 58.4269 278.45 58.7593 277.886 59.0005C277.327 59.2416 276.724 59.3622 276.077 59.3622C275.524 59.3622 275.033 59.2387 274.603 58.9916C274.18 58.7387 273.824 58.4122 273.536 58.0122V59.1328H271.383V45.8974H273.536V51.4121C273.824 51.0121 274.18 50.6886 274.603 50.4415C275.033 50.1886 275.524 50.0621 276.077 50.0621ZM276.05 57.2799C276.509 57.2799 276.924 57.1651 277.294 56.9357C277.671 56.7004 277.971 56.3887 278.194 56.0004C278.418 55.6122 278.53 55.1798 278.53 54.7034C278.53 54.2328 278.418 53.8033 278.194 53.4151C277.971 53.021 277.671 52.7092 277.294 52.4798C276.918 52.2504 276.503 52.1357 276.05 52.1357C275.603 52.1357 275.203 52.2533 274.85 52.4886C274.497 52.718 274.221 53.0298 274.021 53.4239C273.821 53.8122 273.721 54.2386 273.721 54.7034C273.721 55.1798 273.821 55.6151 274.021 56.0093C274.221 56.3975 274.497 56.7063 274.85 56.9357C275.203 57.1651 275.603 57.2799 276.05 57.2799ZM286.849 52.4622H285.137V59.1328H282.984V52.4622H281.678V50.3092H282.984V47.5386H285.137V50.3092H286.849V52.4622Z" fill="white"/>
</svg>
