<svg width="483" height="106" viewBox="0 0 483 106" fill="none" xmlns="http://www.w3.org/2000/svg">
<rect x="0.411865" y="0.585938" width="481.5" height="104.455" rx="52.2273" fill="black" fill-opacity="0.6" stroke="white" stroke-width="0.5"/>
<path d="M71.8232 58.8125V46.4594H75.9174C76.7703 46.4594 77.5674 46.6212 78.3086 46.9447C79.0556 47.2624 79.7115 47.7065 80.2762 48.2771C80.8468 48.8418 81.2909 49.4977 81.6086 50.2448C81.9321 50.986 82.0939 51.783 82.0939 52.636C82.0939 53.4889 81.9321 54.2889 81.6086 55.036C81.2909 55.7772 80.8468 56.4331 80.2762 57.0037C79.7115 57.5684 79.0556 58.0125 78.3086 58.336C77.5674 58.6537 76.7703 58.8125 75.9174 58.8125H71.8232ZM73.9762 56.6595H75.9174C76.4644 56.6595 76.9791 56.5566 77.4615 56.3507C77.9497 56.1389 78.3791 55.8507 78.7497 55.486C79.1203 55.1154 79.4115 54.6889 79.6233 54.2066C79.835 53.7183 79.9409 53.1948 79.9409 52.636C79.9409 52.0771 79.835 51.5565 79.6233 51.0742C79.4115 50.5918 79.1203 50.1654 78.7497 49.7948C78.3791 49.4242 77.9527 49.1359 77.4703 48.93C76.988 48.7183 76.4703 48.6124 75.9174 48.6124H73.9762V56.6595ZM87.2866 59.0419C86.4748 59.0419 85.7336 58.8331 85.063 58.4154C84.3983 57.9978 83.866 57.439 83.466 56.7389C83.0718 56.0331 82.8748 55.2536 82.8748 54.4007C82.8748 53.7536 82.9895 53.1507 83.2189 52.5918C83.4483 52.0271 83.763 51.533 84.163 51.1095C84.5689 50.6801 85.0395 50.3448 85.5748 50.1036C86.1101 49.8624 86.6807 49.7418 87.2866 49.7418C88.0984 49.7418 88.8366 49.9506 89.5013 50.3683C90.1719 50.7859 90.7043 51.3477 91.0984 52.0536C91.4984 52.7595 91.6984 53.5419 91.6984 54.4007C91.6984 55.0419 91.5837 55.6419 91.3543 56.2007C91.1249 56.7595 90.8072 57.2537 90.4013 57.6831C90.0013 58.1066 89.5337 58.439 88.9984 58.6801C88.4689 58.9213 87.8984 59.0419 87.2866 59.0419ZM87.2866 56.889C87.716 56.889 88.1013 56.7742 88.4425 56.5448C88.7837 56.3154 89.0513 56.0125 89.2454 55.636C89.4454 55.2595 89.5454 54.8478 89.5454 54.4007C89.5454 53.9419 89.4425 53.5242 89.2366 53.1477C89.0366 52.7654 88.7631 52.4624 88.416 52.2389C88.0748 52.0095 87.6984 51.8948 87.2866 51.8948C86.863 51.8948 86.4807 52.0095 86.1395 52.2389C85.7983 52.4683 85.5277 52.7742 85.3277 53.1566C85.1277 53.5389 85.0277 53.9536 85.0277 54.4007C85.0277 54.8654 85.1307 55.286 85.3366 55.6625C85.5424 56.0389 85.816 56.3389 86.1572 56.5625C86.5042 56.7801 86.8807 56.889 87.2866 56.889ZM97.2116 58.8125H95.0763L92.1292 49.9889H94.2381L96.1528 55.6978L98.0587 49.9889H100.185L102.091 55.6978L104.006 49.9889H106.115L103.168 58.8125H101.032L99.1175 53.0771L97.2116 58.8125ZM115.51 53.236V58.8125H113.357V53.8007C113.357 53.4536 113.272 53.1389 113.101 52.8566C112.931 52.5683 112.701 52.3418 112.413 52.1771C112.131 52.0065 111.816 51.9213 111.469 51.9213C111.122 51.9213 110.804 52.0065 110.516 52.1771C110.234 52.3418 110.007 52.5683 109.837 52.8566C109.672 53.1389 109.59 53.4536 109.59 53.8007V58.8125H107.437L107.428 49.9889H109.581L109.59 50.7742C109.89 50.4565 110.248 50.2065 110.666 50.0242C111.084 49.8359 111.534 49.7418 112.016 49.7418C112.657 49.7418 113.243 49.9006 113.772 50.2183C114.301 50.5301 114.722 50.9507 115.034 51.4801C115.351 52.0036 115.51 52.5889 115.51 53.236ZM117.32 58.8125V45.5771H119.473V58.8125H117.32ZM125.338 59.0419C124.527 59.0419 123.785 58.8331 123.115 58.4154C122.45 57.9978 121.918 57.439 121.518 56.7389C121.124 56.0331 120.927 55.2536 120.927 54.4007C120.927 53.7536 121.041 53.1507 121.271 52.5918C121.5 52.0271 121.815 51.533 122.215 51.1095C122.621 50.6801 123.091 50.3448 123.627 50.1036C124.162 49.8624 124.733 49.7418 125.338 49.7418C126.15 49.7418 126.888 49.9506 127.553 50.3683C128.224 50.7859 128.756 51.3477 129.15 52.0536C129.55 52.7595 129.75 53.5419 129.75 54.4007C129.75 55.0419 129.636 55.6419 129.406 56.2007C129.177 56.7595 128.859 57.2537 128.453 57.6831C128.053 58.1066 127.586 58.439 127.05 58.6801C126.521 58.9213 125.95 59.0419 125.338 59.0419ZM125.338 56.889C125.768 56.889 126.153 56.7742 126.494 56.5448C126.836 56.3154 127.103 56.0125 127.297 55.636C127.497 55.2595 127.597 54.8478 127.597 54.4007C127.597 53.9419 127.494 53.5242 127.288 53.1477C127.088 52.7654 126.815 52.4624 126.468 52.2389C126.127 52.0095 125.75 51.8948 125.338 51.8948C124.915 51.8948 124.533 52.0095 124.191 52.2389C123.85 52.4683 123.58 52.7742 123.38 53.1566C123.18 53.5389 123.08 53.9536 123.08 54.4007C123.08 54.8654 123.183 55.286 123.388 55.6625C123.594 56.0389 123.868 56.3389 124.209 56.5625C124.556 56.7801 124.933 56.889 125.338 56.889ZM137.812 49.9889H139.965V58.8125H137.812L137.715 57.7184C137.473 58.1125 137.153 58.4331 136.753 58.6801C136.359 58.9213 135.891 59.0419 135.35 59.0419C134.697 59.0419 134.085 58.9184 133.514 58.6713C132.944 58.4243 132.441 58.0831 132.006 57.6478C131.576 57.2125 131.238 56.7095 130.991 56.1389C130.75 55.5683 130.629 54.9566 130.629 54.3036C130.629 53.6742 130.744 53.083 130.973 52.5301C131.209 51.9771 131.535 51.4918 131.953 51.0742C132.37 50.6565 132.853 50.3301 133.4 50.0948C133.947 49.8595 134.535 49.7418 135.164 49.7418C135.747 49.7418 136.267 49.8712 136.726 50.1301C137.191 50.3889 137.585 50.7183 137.909 51.1183L137.812 49.9889ZM135.297 56.9684C135.756 56.9684 136.162 56.8537 136.515 56.6242C136.867 56.3948 137.144 56.086 137.344 55.6978C137.544 55.3036 137.644 54.8713 137.644 54.4007C137.644 53.9242 137.544 53.4919 137.344 53.1036C137.144 52.7095 136.865 52.3977 136.506 52.1683C136.153 51.9389 135.75 51.8242 135.297 51.8242C134.844 51.8242 134.429 51.9418 134.053 52.1771C133.682 52.4066 133.385 52.7154 133.162 53.1036C132.944 53.4919 132.835 53.9242 132.835 54.4007C132.835 54.8772 132.947 55.3095 133.17 55.6978C133.394 56.086 133.691 56.3948 134.062 56.6242C134.438 56.8537 134.85 56.9684 135.297 56.9684ZM148.221 45.5771H150.374V58.8125H148.221V57.7095C147.939 58.1037 147.583 58.4243 147.153 58.6713C146.724 58.9184 146.227 59.0419 145.662 59.0419C145.021 59.0419 144.421 58.9213 143.862 58.6801C143.303 58.439 142.809 58.1066 142.38 57.6831C141.956 57.2537 141.624 56.7595 141.383 56.2007C141.142 55.6419 141.021 55.0419 141.021 54.4007C141.021 53.7595 141.142 53.1595 141.383 52.6007C141.624 52.0418 141.956 51.5507 142.38 51.1271C142.809 50.6977 143.303 50.3624 143.862 50.1212C144.421 49.8801 145.021 49.7595 145.662 49.7595C146.227 49.7595 146.724 49.883 147.153 50.1301C147.583 50.3712 147.939 50.6918 148.221 51.0918V45.5771ZM145.689 56.9684C146.148 56.9684 146.553 56.8537 146.906 56.6242C147.259 56.3948 147.536 56.086 147.736 55.6978C147.936 55.3036 148.036 54.8713 148.036 54.4007C148.036 53.9242 147.936 53.4919 147.736 53.1036C147.536 52.7095 147.256 52.3977 146.898 52.1683C146.545 51.9389 146.142 51.8242 145.689 51.8242C145.236 51.8242 144.821 51.9418 144.445 52.1771C144.074 52.4066 143.777 52.7154 143.553 53.1036C143.336 53.4919 143.227 53.9242 143.227 54.4007C143.227 54.8772 143.339 55.3095 143.562 55.6978C143.786 56.086 144.083 56.3948 144.453 56.6242C144.83 56.8537 145.242 56.9684 145.689 56.9684ZM162.451 59.0419C161.616 59.0419 160.83 58.8772 160.095 58.5478C159.36 58.2125 158.713 57.7507 158.154 57.1625C157.601 56.5742 157.166 55.8948 156.848 55.1242C156.536 54.3477 156.38 53.5183 156.38 52.636C156.38 51.7477 156.536 50.9183 156.848 50.1477C157.166 49.3712 157.601 48.6918 158.154 48.1095C158.713 47.5212 159.36 47.0624 160.095 46.733C160.83 46.3977 161.616 46.23 162.451 46.23C163.451 46.23 164.372 46.4624 165.213 46.9271C166.054 47.3859 166.751 48.0006 167.304 48.7712L165.38 49.8036C165.033 49.3742 164.601 49.03 164.083 48.7712C163.572 48.5124 163.027 48.383 162.451 48.383C161.91 48.383 161.401 48.4947 160.924 48.7183C160.448 48.9359 160.03 49.2418 159.672 49.6359C159.313 50.0242 159.033 50.4771 158.833 50.9948C158.633 51.5065 158.533 52.0536 158.533 52.636C158.533 53.2242 158.633 53.7742 158.833 54.286C159.039 54.7978 159.322 55.2507 159.68 55.6448C160.039 56.0331 160.454 56.3389 160.924 56.5625C161.401 56.7801 161.91 56.889 162.451 56.889C163.039 56.889 163.586 56.7595 164.092 56.5007C164.604 56.236 165.033 55.8889 165.38 55.4595L167.304 56.5007C166.751 57.2654 166.054 57.8801 165.213 58.3448C164.372 58.8096 163.451 59.0419 162.451 59.0419ZM172.386 59.0419C171.574 59.0419 170.833 58.8331 170.163 58.4154C169.498 57.9978 168.966 57.439 168.566 56.7389C168.171 56.0331 167.974 55.2536 167.974 54.4007C167.974 53.7536 168.089 53.1507 168.319 52.5918C168.548 52.0271 168.863 51.533 169.263 51.1095C169.669 50.6801 170.139 50.3448 170.674 50.1036C171.21 49.8624 171.78 49.7418 172.386 49.7418C173.198 49.7418 173.936 49.9506 174.601 50.3683C175.272 50.7859 175.804 51.3477 176.198 52.0536C176.598 52.7595 176.798 53.5419 176.798 54.4007C176.798 55.0419 176.683 55.6419 176.454 56.2007C176.225 56.7595 175.907 57.2537 175.501 57.6831C175.101 58.1066 174.633 58.439 174.098 58.6801C173.569 58.9213 172.998 59.0419 172.386 59.0419ZM172.386 56.889C172.816 56.889 173.201 56.7742 173.542 56.5448C173.883 56.3154 174.151 56.0125 174.345 55.636C174.545 55.2595 174.645 54.8478 174.645 54.4007C174.645 53.9419 174.542 53.5242 174.336 53.1477C174.136 52.7654 173.863 52.4624 173.516 52.2389C173.174 52.0095 172.798 51.8948 172.386 51.8948C171.963 51.8948 171.58 52.0095 171.239 52.2389C170.898 52.4683 170.627 52.7742 170.427 53.1566C170.227 53.5389 170.127 53.9536 170.127 54.4007C170.127 54.8654 170.23 55.286 170.436 55.6625C170.642 56.0389 170.916 56.3389 171.257 56.5625C171.604 56.7801 171.98 56.889 172.386 56.889ZM177.629 55.5478V49.9889H179.782V54.983C179.782 55.3301 179.868 55.6478 180.038 55.936C180.209 56.2184 180.435 56.4448 180.718 56.6154C181.006 56.7801 181.321 56.8625 181.662 56.8625C182.015 56.8625 182.332 56.7801 182.615 56.6154C182.897 56.4448 183.124 56.2184 183.294 55.936C183.465 55.6478 183.55 55.3301 183.55 54.983V49.9889H185.703L185.712 58.8125H183.559L183.55 58.0096C183.244 58.3272 182.882 58.5801 182.465 58.7684C182.047 58.9507 181.6 59.0419 181.124 59.0419C180.482 59.0419 179.897 58.886 179.368 58.5743C178.838 58.2566 178.415 57.836 178.097 57.3125C177.785 56.7831 177.629 56.1948 177.629 55.5478ZM195.561 53.236V58.8125H193.408V53.8007C193.408 53.4536 193.322 53.1389 193.152 52.8566C192.981 52.5683 192.752 52.3418 192.463 52.1771C192.181 52.0065 191.866 51.9213 191.519 51.9213C191.172 51.9213 190.855 52.0065 190.566 52.1771C190.284 52.3418 190.058 52.5683 189.887 52.8566C189.722 53.1389 189.64 53.4536 189.64 53.8007V58.8125H187.487L187.478 49.9889H189.631L189.64 50.7742C189.94 50.4565 190.299 50.2065 190.716 50.0242C191.134 49.8359 191.584 49.7418 192.066 49.7418C192.708 49.7418 193.293 49.9006 193.822 50.2183C194.352 50.5301 194.772 50.9507 195.084 51.4801C195.402 52.0036 195.561 52.5889 195.561 53.236ZM202.048 52.1418H200.336V58.8125H198.183V52.1418H196.877V49.9889H198.183V47.2183H200.336V49.9889H202.048V52.1418ZM207.319 59.0419C206.507 59.0419 205.766 58.8331 205.095 58.4154C204.431 57.9978 203.898 57.436 203.498 56.7301C203.104 56.0242 202.907 55.2448 202.907 54.3919C202.907 53.7507 203.022 53.1507 203.251 52.5918C203.481 52.0271 203.795 51.533 204.195 51.1095C204.601 50.6801 205.072 50.3448 205.607 50.1036C206.142 49.8624 206.713 49.7418 207.319 49.7418C208.007 49.7418 208.636 49.8889 209.207 50.183C209.784 50.4712 210.272 50.8683 210.672 51.3742C211.072 51.8801 211.363 52.4566 211.545 53.1036C211.728 53.7507 211.769 54.4272 211.669 55.1331H205.219C205.301 55.4625 205.436 55.7595 205.625 56.0242C205.813 56.2831 206.051 56.4919 206.339 56.6507C206.628 56.8037 206.954 56.8831 207.319 56.889C207.695 56.8948 208.036 56.8066 208.342 56.6242C208.654 56.436 208.913 56.1831 209.119 55.8654L211.316 56.3772C210.957 57.1595 210.422 57.8007 209.71 58.3007C208.998 58.7949 208.201 59.0419 207.319 59.0419ZM205.148 53.5183H209.489C209.425 53.1654 209.286 52.8477 209.075 52.5654C208.869 52.2771 208.613 52.0477 208.307 51.8771C208.001 51.7065 207.672 51.6213 207.319 51.6213C206.966 51.6213 206.639 51.7065 206.339 51.8771C206.039 52.0418 205.783 52.2683 205.572 52.5566C205.366 52.8389 205.225 53.1595 205.148 53.5183ZM213.113 58.8125L213.104 49.9889H215.257L215.266 50.7742C215.566 50.4565 215.925 50.2065 216.343 50.0242C216.76 49.8359 217.21 49.7418 217.693 49.7418C218.016 49.7418 218.34 49.7889 218.663 49.883L217.816 52.0536C217.593 51.9654 217.369 51.9213 217.146 51.9213C216.799 51.9213 216.481 52.0065 216.193 52.1771C215.91 52.3418 215.684 52.5683 215.513 52.8566C215.349 53.1389 215.266 53.4536 215.266 53.8007V58.8125H213.113ZM228.581 59.0419C227.899 59.0419 227.243 58.936 226.613 58.7243C225.99 58.5066 225.443 58.1978 224.972 57.7978C224.502 57.3919 224.163 56.9066 223.958 56.3419L225.978 55.6007C226.06 55.836 226.228 56.0507 226.481 56.2448C226.734 56.4389 227.043 56.5948 227.408 56.7125C227.772 56.8301 228.163 56.889 228.581 56.889C229.011 56.889 229.411 56.8242 229.781 56.6948C230.158 56.5595 230.461 56.3742 230.69 56.1389C230.919 55.8978 231.034 55.6184 231.034 55.3007C231.034 54.9772 230.913 54.7125 230.672 54.5066C230.431 54.2948 230.122 54.1272 229.746 54.0036C229.369 53.8801 228.981 53.786 228.581 53.7213C227.705 53.586 226.919 53.3772 226.225 53.0948C225.531 52.8124 224.981 52.4213 224.575 51.9213C224.175 51.4212 223.975 50.7742 223.975 49.9801C223.975 49.233 224.19 48.58 224.619 48.0212C225.049 47.4624 225.613 47.0271 226.313 46.7153C227.013 46.4036 227.769 46.2477 228.581 46.2477C229.258 46.2477 229.911 46.3536 230.54 46.5653C231.169 46.7771 231.719 47.0859 232.19 47.4918C232.666 47.8977 233.008 48.3859 233.214 48.9565L231.184 49.6889C231.102 49.4536 230.934 49.2389 230.681 49.0448C230.428 48.8506 230.119 48.6977 229.755 48.5859C229.39 48.4683 228.999 48.4095 228.581 48.4095C228.163 48.4036 227.766 48.4712 227.39 48.6124C227.019 48.7477 226.716 48.933 226.481 49.1683C226.246 49.4036 226.128 49.6742 226.128 49.9801C226.128 50.3742 226.237 50.6712 226.455 50.8712C226.678 51.0712 226.975 51.2183 227.346 51.3124C227.716 51.4007 228.128 51.483 228.581 51.5595C229.405 51.6889 230.166 51.9065 230.866 52.2124C231.566 52.5183 232.128 52.9271 232.552 53.4389C232.975 53.9448 233.187 54.5654 233.187 55.3007C233.187 56.0478 232.975 56.7037 232.552 57.2684C232.128 57.8272 231.566 58.2625 230.866 58.5743C230.166 58.886 229.405 59.0419 228.581 59.0419ZM239.669 52.1418H237.957V58.8125H235.804V52.1418H234.498V49.9889H235.804V47.2183H237.957V49.9889H239.669V52.1418ZM241.273 58.8125L241.264 49.9889H243.417L243.426 50.7742C243.726 50.4565 244.085 50.2065 244.503 50.0242C244.92 49.8359 245.37 49.7418 245.853 49.7418C246.176 49.7418 246.5 49.7889 246.823 49.883L245.976 52.0536C245.753 51.9654 245.529 51.9213 245.305 51.9213C244.958 51.9213 244.641 52.0065 244.352 52.1771C244.07 52.3418 243.844 52.5683 243.673 52.8566C243.508 53.1389 243.426 53.4536 243.426 53.8007V58.8125H241.273ZM247.779 49.9889H249.932V58.8125H247.779V49.9889ZM248.873 48.8506C248.555 48.8506 248.287 48.7477 248.07 48.5418C247.852 48.33 247.743 48.0653 247.743 47.7477C247.743 47.4359 247.852 47.1741 248.07 46.9624C248.287 46.7506 248.552 46.6447 248.864 46.6447C249.176 46.6447 249.437 46.7506 249.649 46.9624C249.867 47.1741 249.976 47.4359 249.976 47.7477C249.976 48.0653 249.87 48.33 249.658 48.5418C249.446 48.7477 249.184 48.8506 248.873 48.8506ZM259.966 58.8125H257.487L255.475 55.3448L254.24 56.8184V58.8125H252.087V45.5771H254.24V53.4742L257.161 49.9889H259.975L256.949 53.5977L259.966 58.8125ZM264.672 59.0419C263.861 59.0419 263.119 58.8331 262.449 58.4154C261.784 57.9978 261.252 57.436 260.852 56.7301C260.458 56.0242 260.261 55.2448 260.261 54.3919C260.261 53.7507 260.375 53.1507 260.605 52.5918C260.834 52.0271 261.149 51.533 261.549 51.1095C261.955 50.6801 262.425 50.3448 262.961 50.1036C263.496 49.8624 264.066 49.7418 264.672 49.7418C265.361 49.7418 265.99 49.8889 266.561 50.183C267.137 50.4712 267.625 50.8683 268.025 51.3742C268.425 51.8801 268.716 52.4566 268.899 53.1036C269.081 53.7507 269.122 54.4272 269.022 55.1331H262.572C262.655 55.4625 262.79 55.7595 262.978 56.0242C263.166 56.2831 263.405 56.4919 263.693 56.6507C263.981 56.8037 264.308 56.8831 264.672 56.889C265.049 56.8948 265.39 56.8066 265.696 56.6242C266.008 56.436 266.266 56.1831 266.472 55.8654L268.669 56.3772C268.311 57.1595 267.775 57.8007 267.064 58.3007C266.352 58.7949 265.555 59.0419 264.672 59.0419ZM262.502 53.5183H266.843C266.778 53.1654 266.64 52.8477 266.428 52.5654C266.222 52.2771 265.966 52.0477 265.661 51.8771C265.355 51.7065 265.025 51.6213 264.672 51.6213C264.319 51.6213 263.993 51.7065 263.693 51.8771C263.393 52.0418 263.137 52.2683 262.925 52.5566C262.719 52.8389 262.578 53.1595 262.502 53.5183ZM271.415 52.2036C271.109 52.2036 270.847 52.0977 270.63 51.886C270.418 51.6683 270.312 51.4036 270.312 51.0918C270.312 50.7918 270.418 50.533 270.63 50.3154C270.847 50.0977 271.109 49.9889 271.415 49.9889C271.721 49.9889 271.982 50.0977 272.2 50.3154C272.418 50.533 272.527 50.7918 272.527 51.0918C272.527 51.4036 272.418 51.6683 272.2 51.886C271.982 52.0977 271.721 52.2036 271.415 52.2036ZM271.415 59.0419C271.109 59.0419 270.847 58.936 270.63 58.7243C270.418 58.5066 270.312 58.2419 270.312 57.9301C270.312 57.6301 270.418 57.3713 270.63 57.1537C270.847 56.936 271.109 56.8272 271.415 56.8272C271.721 56.8272 271.982 56.936 272.2 57.1537C272.418 57.3713 272.527 57.6301 272.527 57.9301C272.527 58.2419 272.418 58.5066 272.2 58.7243C271.982 58.936 271.721 59.0419 271.415 59.0419ZM284.603 59.0419C283.744 59.0419 282.944 58.8743 282.203 58.539C281.468 58.2037 280.826 57.7419 280.279 57.1537C279.732 56.5595 279.303 55.8772 278.991 55.1066C278.685 54.3301 278.532 53.5007 278.532 52.6183C278.532 51.6889 278.697 50.8359 279.026 50.0595C279.362 49.283 279.818 48.6095 280.394 48.0389C280.971 47.4683 281.623 47.0271 282.353 46.7153C283.088 46.4036 283.853 46.2477 284.647 46.2477C285.535 46.2477 286.397 46.4565 287.232 46.8741C288.074 47.2859 288.815 47.9242 289.456 48.7889L287.532 49.8212C287.138 49.3389 286.685 48.98 286.174 48.7448C285.668 48.5036 285.15 48.383 284.621 48.383C284.103 48.383 283.606 48.4889 283.129 48.7006C282.659 48.9124 282.238 49.2124 281.868 49.6006C281.503 49.983 281.215 50.4359 281.003 50.9595C280.791 51.4771 280.685 52.0448 280.685 52.6624C280.685 53.2448 280.788 53.7948 280.994 54.3125C281.2 54.8242 281.482 55.2742 281.841 55.6625C282.206 56.0448 282.626 56.3448 283.103 56.5625C283.579 56.7801 284.091 56.889 284.638 56.889C285.003 56.889 285.359 56.8331 285.706 56.7213C286.059 56.6037 286.388 56.436 286.694 56.2184C287.006 56.0007 287.282 55.736 287.524 55.4242C287.771 55.1125 287.977 54.7595 288.141 54.3654H285.891V52.486H290.674C290.697 53.386 290.556 54.2301 290.25 55.0183C289.944 55.8066 289.512 56.5037 288.953 57.1095C288.394 57.7154 287.744 58.189 287.003 58.5301C286.262 58.8713 285.462 59.0419 284.603 59.0419ZM292.293 58.8125V45.5771H294.446V58.8125H292.293ZM300.311 59.0419C299.5 59.0419 298.759 58.8331 298.088 58.4154C297.423 57.9978 296.891 57.439 296.491 56.7389C296.097 56.0331 295.9 55.2536 295.9 54.4007C295.9 53.7536 296.014 53.1507 296.244 52.5918C296.473 52.0271 296.788 51.533 297.188 51.1095C297.594 50.6801 298.064 50.3448 298.6 50.1036C299.135 49.8624 299.706 49.7418 300.311 49.7418C301.123 49.7418 301.861 49.9506 302.526 50.3683C303.197 50.7859 303.729 51.3477 304.123 52.0536C304.523 52.7595 304.723 53.5419 304.723 54.4007C304.723 55.0419 304.609 55.6419 304.379 56.2007C304.15 56.7595 303.832 57.2537 303.426 57.6831C303.026 58.1066 302.559 58.439 302.023 58.6801C301.494 58.9213 300.923 59.0419 300.311 59.0419ZM300.311 56.889C300.741 56.889 301.126 56.7742 301.467 56.5448C301.809 56.3154 302.076 56.0125 302.27 55.636C302.47 55.2595 302.57 54.8478 302.57 54.4007C302.57 53.9419 302.467 53.5242 302.261 53.1477C302.061 52.7654 301.788 52.4624 301.441 52.2389C301.1 52.0095 300.723 51.8948 300.311 51.8948C299.888 51.8948 299.506 52.0095 299.164 52.2389C298.823 52.4683 298.553 52.7742 298.353 53.1566C298.153 53.5389 298.053 53.9536 298.053 54.4007C298.053 54.8654 298.156 55.286 298.361 55.6625C298.567 56.0389 298.841 56.3389 299.182 56.5625C299.529 56.7801 299.906 56.889 300.311 56.889ZM310.653 49.7418C311.512 49.7418 312.295 49.9506 313.001 50.3683C313.706 50.7859 314.268 51.3477 314.686 52.0536C315.103 52.7536 315.312 53.5301 315.312 54.383C315.312 55.0242 315.192 55.6272 314.951 56.1919C314.709 56.7566 314.374 57.2537 313.945 57.6831C313.521 58.1066 313.027 58.439 312.462 58.6801C311.903 58.9213 311.301 59.0419 310.653 59.0419C310.1 59.0419 309.609 58.9184 309.18 58.6713C308.756 58.4184 308.4 58.0919 308.112 57.6919V58.8125H305.959V45.5771H308.112V51.0918C308.4 50.6918 308.756 50.3683 309.18 50.1212C309.609 49.8683 310.1 49.7418 310.653 49.7418ZM310.627 56.9595C311.086 56.9595 311.501 56.8448 311.871 56.6154C312.248 56.3801 312.548 56.0684 312.771 55.6801C312.995 55.2919 313.106 54.8595 313.106 54.383C313.106 53.9125 312.995 53.483 312.771 53.0948C312.548 52.7007 312.248 52.3889 311.871 52.1595C311.495 51.9301 311.08 51.8154 310.627 51.8154C310.18 51.8154 309.78 51.933 309.427 52.1683C309.074 52.3977 308.798 52.7095 308.598 53.1036C308.398 53.4919 308.298 53.9183 308.298 54.383C308.298 54.8595 308.398 55.2948 308.598 55.6889C308.798 56.0772 309.074 56.386 309.427 56.6154C309.78 56.8448 310.18 56.9595 310.627 56.9595ZM323.383 49.9889H325.536V58.8125H323.383L323.286 57.7184C323.045 58.1125 322.724 58.4331 322.324 58.6801C321.93 58.9213 321.463 59.0419 320.922 59.0419C320.269 59.0419 319.657 58.9184 319.086 58.6713C318.516 58.4243 318.013 58.0831 317.577 57.6478C317.148 57.2125 316.81 56.7095 316.563 56.1389C316.321 55.5683 316.201 54.9566 316.201 54.3036C316.201 53.6742 316.316 53.083 316.545 52.5301C316.78 51.9771 317.107 51.4918 317.524 51.0742C317.942 50.6565 318.424 50.3301 318.971 50.0948C319.519 49.8595 320.107 49.7418 320.736 49.7418C321.319 49.7418 321.839 49.8712 322.298 50.1301C322.763 50.3889 323.157 50.7183 323.48 51.1183L323.383 49.9889ZM320.869 56.9684C321.327 56.9684 321.733 56.8537 322.086 56.6242C322.439 56.3948 322.716 56.086 322.916 55.6978C323.116 55.3036 323.216 54.8713 323.216 54.4007C323.216 53.9242 323.116 53.4919 322.916 53.1036C322.716 52.7095 322.436 52.3977 322.077 52.1683C321.724 51.9389 321.322 51.8242 320.869 51.8242C320.416 51.8242 320.001 51.9418 319.624 52.1771C319.254 52.4066 318.957 52.7154 318.733 53.1036C318.516 53.4919 318.407 53.9242 318.407 54.4007C318.407 54.8772 318.519 55.3095 318.742 55.6978C318.966 56.086 319.263 56.3948 319.633 56.6242C320.01 56.8537 320.422 56.9684 320.869 56.9684ZM327.346 58.8125V45.5771H329.499V58.8125H327.346ZM341.595 59.0419C340.76 59.0419 339.974 58.8772 339.239 58.5478C338.504 58.2125 337.857 57.7507 337.298 57.1625C336.739 56.5742 336.301 55.8948 335.983 55.1242C335.665 54.3477 335.507 53.5183 335.507 52.636C335.507 51.7536 335.665 50.9271 335.983 50.1565C336.301 49.3801 336.739 48.6977 337.298 48.1095C337.857 47.5212 338.504 47.0624 339.239 46.733C339.974 46.3977 340.76 46.23 341.595 46.23C342.436 46.23 343.224 46.3977 343.96 46.733C344.695 47.0624 345.342 47.5212 345.901 48.1095C346.46 48.6977 346.895 49.3801 347.207 50.1565C347.524 50.9271 347.683 51.7536 347.683 52.636C347.683 53.5183 347.524 54.3477 347.207 55.1242C346.895 55.8948 346.46 56.5742 345.901 57.1625C345.342 57.7507 344.695 58.2125 343.96 58.5478C343.224 58.8772 342.436 59.0419 341.595 59.0419ZM341.595 56.889C342.136 56.889 342.645 56.7772 343.121 56.5537C343.598 56.3301 344.016 56.0242 344.374 55.636C344.739 55.2419 345.021 54.7889 345.221 54.2772C345.427 53.7654 345.53 53.2183 345.53 52.636C345.53 52.0536 345.427 51.5065 345.221 50.9948C345.016 50.4771 344.73 50.0242 344.366 49.6359C344.007 49.2477 343.589 48.9418 343.113 48.7183C342.642 48.4947 342.136 48.383 341.595 48.383C341.054 48.383 340.545 48.4947 340.068 48.7183C339.592 48.9418 339.171 49.2506 338.807 49.6448C338.448 50.033 338.166 50.483 337.96 50.9948C337.76 51.5065 337.66 52.0536 337.66 52.636C337.66 53.2242 337.763 53.7742 337.968 54.286C338.174 54.7978 338.457 55.2507 338.816 55.6448C339.18 56.0331 339.598 56.3389 340.068 56.5625C340.545 56.7801 341.054 56.889 341.595 56.889ZM351.937 48.1359V49.9889H354.346V52.1418H351.937V58.8125H349.784V52.1418H348.822V49.9889H349.784V48.1359C349.784 47.63 349.907 47.1683 350.154 46.7506C350.407 46.3271 350.746 45.9918 351.169 45.7447C351.593 45.4918 352.06 45.3653 352.572 45.3653C352.943 45.3653 353.31 45.4418 353.675 45.5947C354.04 45.7477 354.363 45.983 354.646 46.3006L353.093 47.8183C353.04 47.7183 352.963 47.6447 352.863 47.5977C352.769 47.5447 352.672 47.5183 352.572 47.5183C352.401 47.5183 352.251 47.58 352.122 47.7036C351.999 47.8212 351.937 47.9653 351.937 48.1359ZM358.451 48.1359V49.9889H360.86V52.1418H358.451V58.8125H356.298V52.1418H355.336V49.9889H356.298V48.1359C356.298 47.63 356.422 47.1683 356.669 46.7506C356.922 46.3271 357.26 45.9918 357.683 45.7447C358.107 45.4918 358.575 45.3653 359.086 45.3653C359.457 45.3653 359.825 45.4418 360.189 45.5947C360.554 45.7477 360.878 45.983 361.16 46.3006L359.607 47.8183C359.554 47.7183 359.478 47.6447 359.378 47.5977C359.283 47.5447 359.186 47.5183 359.086 47.5183C358.916 47.5183 358.766 47.58 358.636 47.7036C358.513 47.8212 358.451 47.9653 358.451 48.1359ZM366.023 59.0419C365.212 59.0419 364.47 58.8331 363.8 58.4154C363.135 57.9978 362.603 57.436 362.203 56.7301C361.809 56.0242 361.612 55.2448 361.612 54.3919C361.612 53.7507 361.726 53.1507 361.956 52.5918C362.185 52.0271 362.5 51.533 362.9 51.1095C363.306 50.6801 363.776 50.3448 364.312 50.1036C364.847 49.8624 365.417 49.7418 366.023 49.7418C366.712 49.7418 367.341 49.8889 367.912 50.183C368.488 50.4712 368.976 50.8683 369.376 51.3742C369.776 51.8801 370.067 52.4566 370.25 53.1036C370.432 53.7507 370.473 54.4272 370.373 55.1331H363.923C364.006 55.4625 364.141 55.7595 364.329 56.0242C364.517 56.2831 364.756 56.4919 365.044 56.6507C365.332 56.8037 365.659 56.8831 366.023 56.889C366.4 56.8948 366.741 56.8066 367.047 56.6242C367.359 56.436 367.617 56.1831 367.823 55.8654L370.02 56.3772C369.662 57.1595 369.126 57.8007 368.415 58.3007C367.703 58.7949 366.906 59.0419 366.023 59.0419ZM363.853 53.5183H368.194C368.129 53.1654 367.991 52.8477 367.779 52.5654C367.573 52.2771 367.317 52.0477 367.012 51.8771C366.706 51.7065 366.376 51.6213 366.023 51.6213C365.67 51.6213 365.344 51.7065 365.044 51.8771C364.744 52.0418 364.488 52.2683 364.276 52.5566C364.07 52.8389 363.929 53.1595 363.853 53.5183ZM379.891 53.236V58.8125H377.738V53.8007C377.738 53.4536 377.653 53.1389 377.483 52.8566C377.312 52.5683 377.083 52.3418 376.794 52.1771C376.512 52.0065 376.197 51.9213 375.85 51.9213C375.503 51.9213 375.185 52.0065 374.897 52.1771C374.615 52.3418 374.388 52.5683 374.218 52.8566C374.053 53.1389 373.971 53.4536 373.971 53.8007V58.8125H371.818L371.809 49.9889H373.962L373.971 50.7742C374.271 50.4565 374.63 50.2065 375.047 50.0242C375.465 49.8359 375.915 49.7418 376.397 49.7418C377.038 49.7418 377.624 49.9006 378.153 50.2183C378.683 50.5301 379.103 50.9507 379.415 51.4801C379.733 52.0036 379.891 52.5889 379.891 53.236ZM384.252 58.9713C383.793 58.9419 383.349 58.8507 382.92 58.6978C382.496 58.539 382.12 58.3243 381.791 58.0537C381.461 57.7831 381.208 57.4595 381.032 57.0831L382.849 56.3066C382.92 56.4242 383.035 56.5507 383.193 56.686C383.352 56.8154 383.541 56.9242 383.758 57.0125C383.982 57.1007 384.226 57.1448 384.491 57.1448C384.714 57.1448 384.926 57.1154 385.126 57.0566C385.332 56.9919 385.496 56.8948 385.62 56.7654C385.749 56.636 385.814 56.4684 385.814 56.2625C385.814 56.0448 385.738 55.8772 385.585 55.7595C385.438 55.636 385.249 55.5448 385.02 55.486C384.796 55.4213 384.579 55.3625 384.367 55.3095C383.808 55.1978 383.288 55.0242 382.805 54.7889C382.329 54.5536 381.943 54.2507 381.649 53.8801C381.361 53.5036 381.217 53.0507 381.217 52.5213C381.217 51.9389 381.37 51.436 381.676 51.0124C381.988 50.5889 382.391 50.2624 382.885 50.033C383.385 49.8036 383.923 49.6889 384.499 49.6889C385.199 49.6889 385.841 49.8359 386.423 50.1301C387.011 50.4183 387.476 50.8271 387.817 51.3565L386.114 52.3624C386.032 52.2213 385.917 52.0918 385.77 51.9742C385.623 51.8507 385.455 51.7507 385.267 51.6742C385.079 51.5918 384.882 51.5448 384.676 51.533C384.411 51.5213 384.17 51.5448 383.952 51.6036C383.735 51.6624 383.558 51.7624 383.423 51.9036C383.293 52.0448 383.229 52.233 383.229 52.4683C383.229 52.6918 383.317 52.8595 383.493 52.9713C383.67 53.0771 383.882 53.1595 384.129 53.2183C384.382 53.2772 384.623 53.3419 384.852 53.4124C385.37 53.583 385.855 53.7919 386.308 54.0389C386.767 54.286 387.135 54.5889 387.411 54.9478C387.688 55.3066 387.82 55.736 387.808 56.236C387.808 56.8066 387.638 57.3066 387.296 57.736C386.955 58.1596 386.514 58.4831 385.973 58.7066C385.438 58.9301 384.864 59.0184 384.252 58.9713ZM389.112 49.9889H391.264V58.8125H389.112V49.9889ZM390.206 48.8506C389.888 48.8506 389.62 48.7477 389.403 48.5418C389.185 48.33 389.076 48.0653 389.076 47.7477C389.076 47.4359 389.185 47.1741 389.403 46.9624C389.62 46.7506 389.885 46.6447 390.197 46.6447C390.509 46.6447 390.77 46.7506 390.982 46.9624C391.2 47.1741 391.309 47.4359 391.309 47.7477C391.309 48.0653 391.203 48.33 390.991 48.5418C390.779 48.7477 390.517 48.8506 390.206 48.8506ZM398.572 58.8125H395.792L392.58 49.9801H394.874L397.186 56.3331L399.489 49.9801H401.783L398.572 58.8125ZM406.626 59.0419C405.814 59.0419 405.073 58.8331 404.402 58.4154C403.737 57.9978 403.205 57.436 402.805 56.7301C402.411 56.0242 402.214 55.2448 402.214 54.3919C402.214 53.7507 402.329 53.1507 402.558 52.5918C402.787 52.0271 403.102 51.533 403.502 51.1095C403.908 50.6801 404.379 50.3448 404.914 50.1036C405.449 49.8624 406.02 49.7418 406.626 49.7418C407.314 49.7418 407.943 49.8889 408.514 50.183C409.09 50.4712 409.579 50.8683 409.979 51.3742C410.379 51.8801 410.67 52.4566 410.852 53.1036C411.035 53.7507 411.076 54.4272 410.976 55.1331H404.526C404.608 55.4625 404.743 55.7595 404.932 56.0242C405.12 56.2831 405.358 56.4919 405.646 56.6507C405.935 56.8037 406.261 56.8831 406.626 56.889C407.002 56.8948 407.343 56.8066 407.649 56.6242C407.961 56.436 408.22 56.1831 408.426 55.8654L410.623 56.3772C410.264 57.1595 409.729 57.8007 409.017 58.3007C408.305 58.7949 407.508 59.0419 406.626 59.0419ZM404.455 53.5183H408.796C408.732 53.1654 408.593 52.8477 408.382 52.5654C408.176 52.2771 407.92 52.0477 407.614 51.8771C407.308 51.7065 406.979 51.6213 406.626 51.6213C406.273 51.6213 405.946 51.7065 405.646 51.8771C405.346 52.0418 405.09 52.2683 404.879 52.5566C404.673 52.8389 404.532 53.1595 404.455 53.5183Z" fill="white"/>
</svg>
