<svg width="434" height="137" viewBox="0 0 434 137" fill="none" xmlns="http://www.w3.org/2000/svg">
<g filter="url(#filter0_b_1097_44)">
<rect x="0.5" y="0.796875" width="432.729" height="135.253" rx="67.6266" fill="black" fill-opacity="0.25"/>
<rect x="1.16737" y="1.46424" width="431.394" height="133.919" rx="66.9593" stroke="white" stroke-width="1.33474"/>
</g>
<path d="M102.507 81.2718C100.66 81.2718 98.9743 80.7968 97.4489 79.8469C95.937 78.8969 94.7261 77.6258 93.8163 76.0336C92.9198 74.428 92.4716 72.6552 92.4716 70.7151C92.4716 69.2433 92.7325 67.8718 93.2543 66.6007C93.7762 65.3163 94.492 64.1924 95.4018 63.229C96.325 62.2523 97.3954 61.4896 98.613 60.941C99.8306 60.3925 101.128 60.1182 102.507 60.1182C103.965 60.1182 105.31 60.4058 106.541 60.9812C107.785 61.5431 108.855 62.3392 109.752 63.3695C110.648 64.3997 111.337 65.6173 111.819 67.0222C112.301 68.4137 112.521 69.939 112.481 71.5981H94.7395C94.8867 73.0298 95.3148 74.3143 96.024 75.4516C96.7465 76.5755 97.6697 77.4652 98.7936 78.1208C99.9175 78.7631 101.155 79.0909 102.507 79.1043C103.992 79.1043 105.33 78.7163 106.521 77.9402C107.711 77.1508 108.668 76.0737 109.391 74.709L111.578 75.2107C110.775 76.9902 109.564 78.4487 107.945 79.5859C106.327 80.7099 104.514 81.2718 102.507 81.2718ZM94.6793 69.7517H110.294C110.213 68.3736 109.812 67.1092 109.089 65.9585C108.38 64.7945 107.45 63.8645 106.3 63.1688C105.149 62.473 103.885 62.1252 102.507 62.1252C101.128 62.1252 99.8707 62.4663 98.7334 63.1487C97.5961 63.8311 96.6662 64.7543 95.9437 65.9184C95.2346 67.069 94.8131 68.3468 94.6793 69.7517ZM133.2 68.407V80.75H131.032V68.7482C131.032 67.5574 130.745 66.4736 130.169 65.4969C129.594 64.5202 128.818 63.7441 127.841 63.1688C126.865 62.5935 125.781 62.3058 124.59 62.3058C123.413 62.3058 122.335 62.5935 121.359 63.1688C120.382 63.7441 119.599 64.5202 119.011 65.4969C118.435 66.4736 118.148 67.5574 118.148 68.7482V80.75H115.98V60.6801H118.148V63.7508C118.87 62.6403 119.827 61.7572 121.018 61.1016C122.208 60.446 123.506 60.1182 124.911 60.1182C126.45 60.1182 127.841 60.4928 129.086 61.2421C130.343 61.978 131.34 62.9748 132.076 64.2325C132.825 65.4902 133.2 66.8817 133.2 68.407ZM147.321 62.8477H142.243L142.223 80.75H140.056L140.076 62.8477H136.242V60.6801H140.076L140.056 54.3782H142.223L142.243 60.6801H147.321V62.8477ZM159.149 81.2718C157.303 81.2718 155.617 80.7968 154.091 79.8469C152.58 78.8969 151.369 77.6258 150.459 76.0336C149.562 74.428 149.114 72.6552 149.114 70.7151C149.114 69.2433 149.375 67.8718 149.897 66.6007C150.419 65.3163 151.134 64.1924 152.044 63.229C152.968 62.2523 154.038 61.4896 155.256 60.941C156.473 60.3925 157.771 60.1182 159.149 60.1182C160.607 60.1182 161.952 60.4058 163.183 60.9812C164.427 61.5431 165.498 62.3392 166.394 63.3695C167.291 64.3997 167.98 65.6173 168.461 67.0222C168.943 68.4137 169.164 69.939 169.124 71.5981H151.382C151.529 73.0298 151.957 74.3143 152.666 75.4516C153.389 76.5755 154.312 77.4652 155.436 78.1208C156.56 78.7631 157.798 79.0909 159.149 79.1043C160.634 79.1043 161.972 78.7163 163.163 77.9402C164.354 77.1508 165.311 76.0737 166.033 74.709L168.221 75.2107C167.418 76.9902 166.207 78.4487 164.588 79.5859C162.969 80.7099 161.156 81.2718 159.149 81.2718ZM151.322 69.7517H166.936C166.856 68.3736 166.454 67.1092 165.732 65.9585C165.023 64.7945 164.093 63.8645 162.942 63.1688C161.792 62.473 160.527 62.1252 159.149 62.1252C157.771 62.1252 156.513 62.4663 155.376 63.1487C154.239 63.8311 153.309 64.7543 152.586 65.9184C151.877 67.069 151.456 68.3468 151.322 69.7517ZM172.623 80.75V60.6801H174.79V63.7508C175.513 62.6403 176.469 61.7572 177.66 61.1016C178.851 60.446 180.149 60.1182 181.554 60.1182C182.343 60.1182 183.099 60.2185 183.822 60.4192L182.918 62.5466C182.343 62.3861 181.781 62.3058 181.233 62.3058C180.055 62.3058 178.978 62.5935 178.001 63.1688C177.025 63.7441 176.242 64.5202 175.653 65.4969C175.078 66.4736 174.79 67.5574 174.79 68.7482V80.75H172.623ZM205.09 81.2718C203.244 81.2718 201.558 80.7968 200.033 79.8469C198.521 78.8969 197.31 77.6258 196.4 76.0336C195.504 74.428 195.055 72.6552 195.055 70.7151C195.055 69.2433 195.316 67.8718 195.838 66.6007C196.36 65.3163 197.076 64.1924 197.986 63.229C198.909 62.2523 199.979 61.4896 201.197 60.941C202.414 60.3925 203.712 60.1182 205.09 60.1182C206.549 60.1182 207.893 60.4058 209.124 60.9812C210.369 61.5431 211.439 62.3392 212.335 63.3695C213.232 64.3997 213.921 65.6173 214.403 67.0222C214.884 68.4137 215.105 69.939 215.065 71.5981H197.323C197.47 73.0298 197.899 74.3143 198.608 75.4516C199.33 76.5755 200.253 77.4652 201.377 78.1208C202.501 78.7631 203.739 79.0909 205.09 79.1043C206.575 79.1043 207.913 78.7163 209.104 77.9402C210.295 77.1508 211.252 76.0737 211.974 74.709L214.162 75.2107C213.359 76.9902 212.148 78.4487 210.529 79.5859C208.91 80.7099 207.097 81.2718 205.09 81.2718ZM197.263 69.7517H212.877C212.797 68.3736 212.396 67.1092 211.673 65.9585C210.964 64.7945 210.034 63.8645 208.883 63.1688C207.733 62.473 206.468 62.1252 205.09 62.1252C203.712 62.1252 202.454 62.4663 201.317 63.1487C200.18 63.8311 199.25 64.7543 198.527 65.9184C197.818 67.069 197.397 68.3468 197.263 69.7517ZM216.428 80.75L223.774 70.6749L216.448 60.6199H219.118L225.118 68.8084L231.099 60.6199H233.769L226.443 70.6749L233.789 80.75H231.119L225.118 72.5013L219.097 80.75H216.428ZM255.03 68.407V80.75H252.863V68.7482C252.863 67.5574 252.575 66.4736 252 65.4969C251.424 64.5202 250.648 63.7441 249.672 63.1688C248.695 62.5935 247.611 62.3058 246.42 62.3058C245.243 62.3058 244.166 62.5935 243.189 63.1688C242.212 63.7441 241.43 64.5202 240.841 65.4969C240.266 66.4736 239.978 67.5574 239.978 68.7482V80.75H237.81V50.6452H239.978V63.7508C240.7 62.6403 241.657 61.7572 242.848 61.1016C244.039 60.446 245.337 60.1182 246.741 60.1182C248.28 60.1182 249.672 60.4928 250.916 61.2421C252.174 61.978 253.171 62.9748 253.906 64.2325C254.656 65.4902 255.03 66.8817 255.03 68.407ZM259.056 60.6801H261.224V80.75H259.056V60.6801ZM260.16 56.8869C259.785 56.8869 259.464 56.7665 259.197 56.5257C258.943 56.2714 258.815 55.957 258.815 55.5824C258.815 55.2077 258.943 54.9 259.197 54.6592C259.464 54.405 259.785 54.2778 260.16 54.2778C260.521 54.2778 260.829 54.405 261.083 54.6592C261.351 54.9 261.485 55.2077 261.485 55.5824C261.485 55.957 261.358 56.2714 261.103 56.5257C260.849 56.7665 260.535 56.8869 260.16 56.8869ZM275.964 60.1182C277.904 60.1182 279.67 60.5932 281.262 61.5431C282.868 62.4931 284.145 63.7709 285.095 65.3765C286.045 66.9687 286.52 68.7415 286.52 70.695C286.52 72.1534 286.246 73.5248 285.697 74.8093C285.149 76.0804 284.386 77.2043 283.409 78.1811C282.446 79.1444 281.329 79.9004 280.058 80.449C278.787 80.9975 277.422 81.2718 275.964 81.2718C274.184 81.2718 272.652 80.8437 271.368 79.9873C270.096 79.131 269.106 78.0071 268.397 76.6156V80.75H266.23V50.6452H268.397V64.7744C269.106 63.3829 270.096 62.259 271.368 61.4026C272.652 60.5463 274.184 60.1182 275.964 60.1182ZM275.943 79.1444C277.496 79.1444 278.9 78.7631 280.158 78.0004C281.429 77.2378 282.439 76.2209 283.189 74.9498C283.951 73.6653 284.333 72.2471 284.333 70.695C284.333 69.1162 283.945 67.6912 283.169 66.4201C282.393 65.1356 281.369 64.1188 280.098 63.3695C278.84 62.6202 277.455 62.2456 275.943 62.2456C274.405 62.2456 273.08 62.6269 271.97 63.3896C270.872 64.1522 270.03 65.1758 269.441 66.4603C268.852 67.7447 268.558 69.1563 268.558 70.695C268.558 72.2738 268.852 73.6988 269.441 74.9699C270.043 76.241 270.893 77.2578 271.99 78.0205C273.1 78.7698 274.418 79.1444 275.943 79.1444ZM289.906 60.6801H292.073V80.75H289.906V60.6801ZM291.01 56.8869C290.635 56.8869 290.314 56.7665 290.046 56.5257C289.792 56.2714 289.665 55.957 289.665 55.5824C289.665 55.2077 289.792 54.9 290.046 54.6592C290.314 54.405 290.635 54.2778 291.01 54.2778C291.371 54.2778 291.679 54.405 291.933 54.6592C292.2 54.9 292.334 55.2077 292.334 55.5824C292.334 55.957 292.207 56.2714 291.953 56.5257C291.699 56.7665 291.384 56.8869 291.01 56.8869ZM306.978 62.8477H301.901L301.881 80.75H299.713L299.733 62.8477H295.9V60.6801H299.733L299.713 54.3782H301.881L301.901 60.6801H306.978V62.8477ZM310.446 60.6801H312.614V80.75H310.446V60.6801ZM311.55 56.8869C311.175 56.8869 310.854 56.7665 310.587 56.5257C310.332 56.2714 310.205 55.957 310.205 55.5824C310.205 55.2077 310.332 54.9 310.587 54.6592C310.854 54.405 311.175 54.2778 311.55 54.2778C311.911 54.2778 312.219 54.405 312.473 54.6592C312.741 54.9 312.875 55.2077 312.875 55.5824C312.875 55.957 312.747 56.2714 312.493 56.5257C312.239 56.7665 311.925 56.8869 311.55 56.8869ZM326.137 81.2718C324.29 81.2718 322.604 80.7968 321.079 79.8469C319.567 78.8969 318.356 77.6258 317.446 76.0336C316.55 74.428 316.102 72.6552 316.102 70.7151C316.102 69.2433 316.363 67.8718 316.884 66.6007C317.406 65.3163 318.122 64.1924 319.032 63.229C319.955 62.2523 321.026 61.4896 322.243 60.941C323.461 60.3925 324.759 60.1182 326.137 60.1182C327.983 60.1182 329.662 60.5932 331.174 61.5431C332.699 62.4931 333.91 63.7709 334.807 65.3765C335.717 66.9821 336.172 68.7616 336.172 70.7151C336.172 72.1735 335.911 73.5382 335.389 74.8093C334.867 76.0804 334.145 77.2043 333.221 78.1811C332.311 79.1444 331.248 79.9004 330.03 80.449C328.826 80.9975 327.528 81.2718 326.137 81.2718ZM326.137 79.1043C327.622 79.1043 328.953 78.7163 330.131 77.9402C331.321 77.1642 332.265 76.1406 332.96 74.8695C333.656 73.5984 334.004 72.2136 334.004 70.7151C334.004 69.2031 333.656 67.8049 332.96 66.5205C332.265 65.236 331.321 64.2124 330.131 63.4498C328.94 62.6737 327.608 62.2857 326.137 62.2857C324.651 62.2857 323.313 62.6737 322.123 63.4498C320.932 64.2258 319.989 65.2561 319.293 66.5405C318.61 67.8116 318.269 69.2031 318.269 70.7151C318.269 72.2805 318.624 73.6988 319.333 74.9699C320.055 76.2276 321.012 77.2311 322.203 77.9804C323.394 78.7296 324.705 79.1043 326.137 79.1043ZM356.869 68.407V80.75H354.702V68.7482C354.702 67.5574 354.414 66.4736 353.839 65.4969C353.263 64.5202 352.487 63.7441 351.511 63.1688C350.534 62.5935 349.45 62.3058 348.259 62.3058C347.082 62.3058 346.005 62.5935 345.028 63.1688C344.051 63.7441 343.269 64.5202 342.68 65.4969C342.105 66.4736 341.817 67.5574 341.817 68.7482V80.75H339.649V60.6801H341.817V63.7508C342.539 62.6403 343.496 61.7572 344.687 61.1016C345.878 60.446 347.176 60.1182 348.58 60.1182C350.119 60.1182 351.511 60.4928 352.755 61.2421C354.013 61.978 355.009 62.9748 355.745 64.2325C356.495 65.4902 356.869 66.8817 356.869 68.407Z" fill="white"/>
<defs>
<filter id="filter0_b_1097_44" x="-88.4824" y="-88.1855" width="610.693" height="313.215" filterUnits="userSpaceOnUse" color-interpolation-filters="sRGB">
<feFlood flood-opacity="0" result="BackgroundImageFix"/>
<feGaussianBlur in="BackgroundImageFix" stdDeviation="44.4912"/>
<feComposite in2="SourceAlpha" operator="in" result="effect1_backgroundBlur_1097_44"/>
<feBlend mode="normal" in="SourceGraphic" in2="effect1_backgroundBlur_1097_44" result="shape"/>
</filter>
</defs>
</svg>
