<svg width="344" height="136" viewBox="0 0 344 136" fill="none" xmlns="http://www.w3.org/2000/svg">
<g filter="url(#filter0_b_1111_3)">
<rect x="0.5" y="0.28125" width="343.472" height="135.253" rx="67.6266" fill="black" fill-opacity="0.25"/>
<rect x="1.16737" y="0.948618" width="342.137" height="133.919" rx="66.9593" stroke="white" stroke-width="1.33474"/>
</g>
<path d="M126.276 63.9264V74.631H124.099V66.0431H120.258V63.9264H126.276ZM126.276 73.7239C127.697 75.9616 130.358 76.9897 133.957 77.1107C137.313 77.2619 144.298 77.1711 147.957 76.9292C147.685 77.4433 147.322 78.5017 147.232 79.1669C143.815 79.3181 137.343 79.3786 133.957 79.2274C129.965 79.0762 127.213 78.0178 125.338 75.6289C124.008 76.9292 122.617 78.2295 121.105 79.56L119.926 77.3526C121.256 76.3849 122.889 75.0242 124.31 73.7239H126.276ZM120.53 54.0079L122.254 52.7681C124.129 54.1288 126.246 56.2153 127.183 57.6971L125.308 59.1183C124.461 57.6064 122.375 55.4896 120.53 54.0079ZM139.763 52.2842L142.212 52.8286C141.335 54.7639 140.246 56.9713 139.4 58.3926L137.525 57.8483C138.341 56.3061 139.279 53.9474 139.763 52.2842ZM132.566 56.7294H146.778V58.695H132.566V73.0888H130.358V58.453L132.052 56.7294H132.566ZM131.537 61.8701H146.022V63.7752H131.537V61.8701ZM131.537 66.9503H145.962V68.8856H131.537V66.9503ZM130.358 72.1817H147.292V74.1472H130.358V72.1817ZM137.857 57.6366H140.035V72.9376H137.857V57.6366ZM133.019 52.0726L135.257 52.7076C133.503 57.0016 130.661 60.9931 127.667 63.5635C127.304 63.1099 126.457 62.233 125.943 61.8398C128.876 59.5114 131.477 55.913 133.019 52.0726ZM155.971 53.8264H164.528V56.1246H155.971V53.8264ZM163.379 53.8264H165.708C165.708 59.2393 166.373 70.7302 178.318 77.8062C177.804 78.1993 176.896 79.1669 176.473 79.7112C164.377 72.3933 163.379 59.5114 163.379 53.8264ZM162.533 59.7533L165.103 60.2372C162.926 69.4601 158.934 75.8406 152.251 79.7717C151.828 79.2879 150.8 78.3505 150.195 77.9271C156.908 74.4194 160.688 68.311 162.533 59.7533ZM186.875 63.6542H206.863V65.6197H186.875V63.6542ZM185.938 68.7042H208.073V70.6697H185.938V68.7042ZM191.411 60.6908H193.528V69.7323H191.411V60.6908ZM189.778 69.3997H191.895V77.5642H189.778V69.3997ZM199.606 60.6908H201.753V69.6416H199.606V60.6908ZM183.579 53.4636H185.877V62.3237C185.877 67.4643 185.424 74.9032 182.279 79.8322C181.856 79.4996 180.827 78.8948 180.283 78.6831C183.307 73.9053 183.579 67.1619 183.579 62.3237V53.4636ZM184.94 53.4636H206.289V60.8722H184.94V58.9066H204.021V55.4291H184.94V53.4636ZM186.301 77.2921C189.294 76.899 193.861 76.1732 198.336 75.4475L198.427 77.4131C194.254 78.169 189.839 78.8645 186.664 79.4088L186.301 77.2921ZM197.217 69.4904C198.971 73.8751 202.902 76.899 208.375 77.9876C207.892 78.4714 207.287 79.2879 207.015 79.8624C201.299 78.4412 197.338 75.0544 195.342 69.944L197.217 69.4904ZM204.747 70.8511L206.44 72.0305C204.807 73.3308 202.6 74.6008 200.876 75.4777L199.425 74.3589C201.088 73.4517 203.416 71.9397 204.747 70.8511ZM217.568 69.0973V70.5487H231.72V69.0973H217.568ZM217.568 71.8793V73.361H231.72V71.8793H217.568ZM217.568 66.3455V67.7667H231.72V66.3455H217.568ZM215.421 64.9545H233.958V74.7218H215.421V64.9545ZM226.489 73.9053H228.726V76.8687C228.726 77.534 228.968 77.6247 230.359 77.6247C230.994 77.6247 234.26 77.6247 235.167 77.6247C236.286 77.6247 236.498 77.3223 236.589 74.8427C237.072 75.1451 237.919 75.4475 238.524 75.5685C238.282 78.6831 237.617 79.4391 235.379 79.4391C234.744 79.4391 230.752 79.4391 230.178 79.4391C227.245 79.4391 226.489 78.925 226.489 76.8687V73.9053ZM220.048 73.996H222.285C221.408 77.5945 218.929 79.0762 211.853 79.802C211.702 79.3181 211.188 78.4714 210.825 78.0481C217.266 77.5642 219.322 76.5664 220.048 73.996ZM227.638 56.5177H236.649V57.9692H227.638V56.5177ZM227.366 53.766H238.161V55.3384H227.366V53.766ZM217.417 53.645H219.262V56.4875H217.417V53.645ZM217.417 59.7231H219.262V62.6261H217.417V59.7231ZM213.456 55.9734H223.495V60.4791H213.456V59.0881H221.529V57.3947H213.456V55.9734ZM234.048 60.4186V62.6261H235.984V60.4186H234.048ZM230.783 60.4186V62.6261H232.718V60.4186H230.783ZM227.608 60.4186V62.6261H229.452V60.4186H227.608ZM225.975 59.1486H237.677V63.8961H225.975V59.1486ZM227.517 52.0121L229.543 52.3145C228.757 54.4615 227.517 56.6387 225.43 58.4228C225.067 57.9692 224.372 57.3644 223.888 57.1225C225.763 55.6408 226.912 53.7055 227.517 52.0121ZM224.342 53.01V54.4917H214.242V62.233H224.584V63.6844H212.246V53.01H224.342Z" fill="white"/>
<defs>
<filter id="filter0_b_1111_3" x="-88.4824" y="-88.7011" width="521.437" height="313.215" filterUnits="userSpaceOnUse" color-interpolation-filters="sRGB">
<feFlood flood-opacity="0" result="BackgroundImageFix"/>
<feGaussianBlur in="BackgroundImageFix" stdDeviation="44.4912"/>
<feComposite in2="SourceAlpha" operator="in" result="effect1_backgroundBlur_1111_3"/>
<feBlend mode="normal" in="SourceGraphic" in2="effect1_backgroundBlur_1111_3" result="shape"/>
</filter>
</defs>
</svg>
