<svg width="200" height="50" viewBox="0 0 200 50" fill="none" xmlns="http://www.w3.org/2000/svg">
<path d="M2.51863 27.7188V13.6963H4.48177V15.6314C4.98657 14.921 5.6316 14.3554 6.41686 13.9347C7.20212 13.514 8.06216 13.3037 8.99698 13.3037C10.0533 13.3037 11.0209 13.5655 11.8996 14.089C12.7784 14.6031 13.4655 15.2902 13.9609 16.1503C14.4564 15.2902 15.1388 14.6031 16.0082 14.089C16.8776 13.5655 17.8405 13.3037 18.8968 13.3037C19.9532 13.3037 20.916 13.5608 21.7854 14.0749C22.6548 14.5891 23.3466 15.2809 23.8607 16.1503C24.3749 17.0196 24.632 17.9825 24.632 19.0389V27.7188H22.6688V19.4736C22.6688 18.7257 22.4866 18.0339 22.122 17.3983C21.7574 16.7626 21.2666 16.2531 20.6496 15.8698C20.042 15.4772 19.3642 15.2809 18.6164 15.2809C17.8685 15.2809 17.1861 15.4632 16.5691 15.8277C15.9615 16.183 15.4753 16.6784 15.1108 17.3141C14.7462 17.9405 14.5639 18.6603 14.5639 19.4736V27.7188H12.6007V19.4736C12.6007 18.6603 12.4185 17.9405 12.0539 17.3141C11.6893 16.6784 11.1985 16.183 10.5815 15.8277C9.96453 15.4632 9.28211 15.2809 8.53424 15.2809C7.79573 15.2809 7.11798 15.4772 6.50099 15.8698C5.88401 16.2531 5.39322 16.7626 5.02864 17.3983C4.66406 18.0339 4.48177 18.7257 4.48177 19.4736V27.7188H2.51863ZM33.3373 28.0833C32.0472 28.0833 30.8693 27.7515 29.8036 27.0877C28.7473 26.424 27.9012 25.5359 27.2656 24.4235C26.6392 23.3017 26.3261 22.063 26.3261 20.7075C26.3261 19.6792 26.5084 18.721 26.8729 17.8329C27.2375 16.9355 27.7377 16.1503 28.3733 15.4772C29.0184 14.7948 29.7662 14.2619 30.6169 13.8786C31.4676 13.4953 32.3744 13.3037 33.3373 13.3037C34.3749 13.3037 35.3285 13.5094 36.1978 13.9207C37.0766 14.332 37.8291 14.9069 38.4555 15.6454C39.0911 16.384 39.5679 17.2487 39.8857 18.2396C40.2129 19.2305 40.3485 20.3009 40.2924 21.4507H28.4014C28.5136 22.3388 28.794 23.1334 29.2427 23.8345C29.7008 24.5357 30.2804 25.0919 30.9815 25.5032C31.692 25.9052 32.4772 26.1108 33.3373 26.1202C34.2721 26.1202 35.1134 25.8771 35.8613 25.391C36.6185 24.9049 37.2262 24.2365 37.6842 23.3858L39.6754 23.8486C39.1145 25.0919 38.2685 26.1108 37.1373 26.9054C36.0062 27.6907 34.7395 28.0833 33.3373 28.0833ZM28.3453 19.8662H38.3152C38.2498 18.9968 37.9834 18.2022 37.516 17.4824C37.0579 16.7532 36.4643 16.1736 35.7351 15.7436C35.0059 15.3042 34.2067 15.0846 33.3373 15.0846C32.4679 15.0846 31.6733 15.2996 30.9535 15.7296C30.2336 16.1503 29.6447 16.7252 29.1866 17.4543C28.7286 18.1742 28.4481 18.9781 28.3453 19.8662ZM49.6151 15.6595H46.2637L46.2497 27.7188H44.2866L44.3006 15.6595H41.7626V13.6963H44.3006L44.2866 9.29329H46.2497L46.2637 13.6963H49.6151V15.6595ZM52.1175 27.7188V13.6963H54.0806V15.6314C54.576 14.921 55.2211 14.3554 56.0157 13.9347C56.8103 13.514 57.675 13.3037 58.6098 13.3037C59.152 13.3037 59.6755 13.3738 60.1803 13.514L59.3811 15.4632C58.9884 15.3416 58.6052 15.2809 58.2312 15.2809C57.474 15.2809 56.7776 15.4678 56.1419 15.8418C55.5156 16.2157 55.0154 16.7158 54.6415 17.3422C54.2676 17.9685 54.0806 18.6649 54.0806 19.4315V27.7188H52.1175ZM67.38 28.0833C66.0899 28.0833 64.912 27.7515 63.8463 27.0877C62.79 26.424 61.944 25.5359 61.3083 24.4235C60.6819 23.3017 60.3688 22.063 60.3688 20.7075C60.3688 19.6792 60.5511 18.721 60.9156 17.8329C61.2802 16.9355 61.7804 16.1503 62.416 15.4772C63.0611 14.7948 63.8089 14.2619 64.6596 13.8786C65.5103 13.4953 66.4171 13.3037 67.38 13.3037C68.67 13.3037 69.8432 13.6356 70.8996 14.2993C71.9653 14.963 72.8113 15.8558 73.4377 16.9776C74.0733 18.0994 74.3912 19.3427 74.3912 20.7075C74.3912 21.7265 74.2089 22.68 73.8443 23.5681C73.4797 24.4562 72.9749 25.2415 72.3299 25.9239C71.6942 26.597 70.951 27.1251 70.1003 27.5084C69.259 27.8917 68.3522 28.0833 67.38 28.0833ZM67.38 26.1202C68.3335 26.1202 69.1889 25.8725 69.9461 25.377C70.7126 24.8722 71.3156 24.2085 71.755 23.3858C72.2037 22.5632 72.428 21.6704 72.428 20.7075C72.428 19.726 72.2037 18.8239 71.755 18.0012C71.3063 17.1692 70.6986 16.5055 69.9321 16.01C69.1748 15.5146 68.3241 15.2668 67.38 15.2668C66.4264 15.2668 65.5664 15.5192 64.7998 16.0241C64.0426 16.5195 63.4397 17.1786 62.991 18.0012C62.5516 18.8239 62.3319 19.726 62.3319 20.7075C62.3319 21.7172 62.5609 22.6333 63.019 23.4559C63.4771 24.2692 64.0894 24.9189 64.8559 25.4051C65.6225 25.8818 66.4638 26.1202 67.38 26.1202ZM90.4133 27.7188H87.9173L82.7992 13.6543H84.8885L89.1653 25.4191L93.4422 13.6543H95.5315L90.4133 27.7188ZM97.8546 13.6963H99.8178V27.7188H97.8546V13.6963ZM98.8502 11.2424C98.5324 11.2424 98.2613 11.1396 98.0369 10.9339C97.8219 10.7189 97.7144 10.4525 97.7144 10.1346C97.7144 9.8168 97.8219 9.55504 98.0369 9.34938C98.2613 9.13437 98.5324 9.02687 98.8502 9.02687C99.1587 9.02687 99.4205 9.13437 99.6355 9.34938C99.8598 9.55504 99.972 9.8168 99.972 10.1346C99.972 10.4525 99.8645 10.7189 99.6495 10.9339C99.4345 11.1396 99.1681 11.2424 98.8502 11.2424ZM114.585 13.6963H116.548V27.7188H114.585L114.515 25.1106C114.057 25.9987 113.416 26.7185 112.594 27.27C111.771 27.8122 110.789 28.0833 109.649 28.0833C108.62 28.0833 107.658 27.8917 106.76 27.5084C105.863 27.1158 105.073 26.5783 104.39 25.8958C103.708 25.2134 103.175 24.4235 102.792 23.526C102.409 22.6286 102.217 21.6657 102.217 20.6374C102.217 19.6278 102.404 18.679 102.778 17.7909C103.161 16.9028 103.685 16.1222 104.348 15.4491C105.021 14.7761 105.797 14.2526 106.676 13.8786C107.564 13.4953 108.513 13.3037 109.523 13.3037C110.691 13.3037 111.71 13.5842 112.579 14.145C113.449 14.6966 114.141 15.4211 114.655 16.3185L114.585 13.6963ZM109.607 26.1763C110.607 26.1763 111.467 25.9332 112.187 25.4471C112.907 24.9517 113.458 24.2879 113.842 23.4559C114.234 22.6239 114.43 21.7078 114.43 20.7075C114.43 19.6792 114.234 18.7538 113.842 17.9311C113.449 17.0991 112.893 16.4401 112.173 15.9539C111.453 15.4678 110.598 15.2248 109.607 15.2248C108.616 15.2248 107.709 15.4725 106.886 15.968C106.073 16.4541 105.423 17.1131 104.937 17.9451C104.461 18.7771 104.222 19.6979 104.222 20.7075C104.222 21.7265 104.47 22.652 104.965 23.484C105.461 24.3066 106.115 24.961 106.928 25.4471C107.751 25.9332 108.644 26.1763 109.607 26.1763ZM132.864 27.7188H130.368L125.25 13.6543H127.339L131.616 25.4191L135.893 13.6543H137.982L132.864 27.7188ZM140.305 13.6963H142.268V27.7188H140.305V13.6963ZM141.301 11.2424C140.983 11.2424 140.712 11.1396 140.488 10.9339C140.273 10.7189 140.165 10.4525 140.165 10.1346C140.165 9.8168 140.273 9.55504 140.488 9.34938C140.712 9.13437 140.983 9.02687 141.301 9.02687C141.609 9.02687 141.871 9.13437 142.086 9.34938C142.311 9.55504 142.423 9.8168 142.423 10.1346C142.423 10.4525 142.315 10.7189 142.1 10.9339C141.885 11.1396 141.619 11.2424 141.301 11.2424ZM145.591 27.7188V13.6963H147.554V15.6314C148.05 14.921 148.695 14.3554 149.489 13.9347C150.284 13.514 151.149 13.3037 152.083 13.3037C152.626 13.3037 153.149 13.3738 153.654 13.514L152.855 15.4632C152.462 15.3416 152.079 15.2809 151.705 15.2809C150.948 15.2809 150.251 15.4678 149.616 15.8418C148.989 16.2157 148.489 16.7158 148.115 17.3422C147.741 17.9685 147.554 18.6649 147.554 19.4315V27.7188H145.591ZM162.78 15.6595H159.429L159.415 27.7188H157.452L157.466 15.6595H154.928V13.6963H157.466L157.452 9.29329H159.415L159.429 13.6963H162.78V15.6595ZM164.722 22.3482V13.6963H166.685V21.9555C166.685 22.7221 166.872 23.4185 167.246 24.0449C167.62 24.6712 168.12 25.1713 168.746 25.5453C169.382 25.9192 170.078 26.1062 170.836 26.1062C171.602 26.1062 172.294 25.9192 172.911 25.5453C173.537 25.1713 174.037 24.6712 174.411 24.0449C174.785 23.4185 174.972 22.7221 174.972 21.9555V13.6963H176.935L176.949 27.7188H174.986L174.972 25.7556C174.477 26.4661 173.832 27.0317 173.037 27.4523C172.252 27.873 171.392 28.0833 170.457 28.0833C169.401 28.0833 168.438 27.8263 167.568 27.3121C166.699 26.7979 166.007 26.1062 165.493 25.2368C164.979 24.3674 164.722 23.4045 164.722 22.3482ZM191.16 13.6963H193.123V27.7188H191.16L191.09 25.1106C190.632 25.9987 189.992 26.7185 189.169 27.27C188.346 27.8122 187.365 28.0833 186.224 28.0833C185.196 28.0833 184.233 27.8917 183.336 27.5084C182.438 27.1158 181.648 26.5783 180.966 25.8958C180.284 25.2134 179.751 24.4235 179.367 23.526C178.984 22.6286 178.792 21.6657 178.792 20.6374C178.792 19.6278 178.979 18.679 179.353 17.7909C179.737 16.9028 180.26 16.1222 180.924 15.4491C181.597 14.7761 182.373 14.2526 183.252 13.8786C184.14 13.4953 185.089 13.3037 186.098 13.3037C187.267 13.3037 188.286 13.5842 189.155 14.145C190.024 14.6966 190.716 15.4211 191.23 16.3185L191.16 13.6963ZM186.182 26.1763C187.183 26.1763 188.043 25.9332 188.762 25.4471C189.482 24.9517 190.034 24.2879 190.417 23.4559C190.81 22.6239 191.006 21.7078 191.006 20.7075C191.006 19.6792 190.81 18.7538 190.417 17.9311C190.024 17.0991 189.468 16.4401 188.748 15.9539C188.029 15.4678 187.173 15.2248 186.182 15.2248C185.191 15.2248 184.285 15.4725 183.462 15.968C182.649 16.4541 181.999 17.1131 181.513 17.9451C181.036 18.7771 180.798 19.6979 180.798 20.7075C180.798 21.7265 181.045 22.652 181.541 23.484C182.036 24.3066 182.691 24.961 183.504 25.4471C184.327 25.9332 185.219 26.1763 186.182 26.1763ZM196.121 27.7188V6.68512H198.084V27.7188H196.121Z" fill="white"/>
<path d="M5.78437 37.6065H6.90233L10.1791 46.6016H9.22178L8.52145 44.674H4.17167L3.47134 46.6016H2.51401L5.78437 37.6065ZM4.49935 43.7745H8.18734L6.34335 38.7116L4.49935 43.7745ZM17.6578 46.6016H16.5141L14.169 40.1572H15.1263L17.086 45.5479L19.0456 40.1572H20.0029L17.6578 46.6016ZM21.0674 40.1765H21.9669V46.6016H21.0674V40.1765ZM21.5236 39.0521C21.3779 39.0521 21.2537 39.005 21.1509 38.9108C21.0524 38.8122 21.0031 38.6902 21.0031 38.5445C21.0031 38.3989 21.0524 38.279 21.1509 38.1847C21.2537 38.0862 21.3779 38.0369 21.5236 38.0369C21.6649 38.0369 21.7849 38.0862 21.8834 38.1847C21.9862 38.279 22.0376 38.3989 22.0376 38.5445C22.0376 38.6902 21.9883 38.8122 21.8898 38.9108C21.7913 39.005 21.6692 39.0521 21.5236 39.0521ZM23.4893 46.6016V40.1765H24.3889V41.0632C24.6159 40.7376 24.9114 40.4785 25.2755 40.2857C25.6396 40.093 26.0358 39.9966 26.4642 39.9966C26.7126 39.9966 26.9525 40.0287 27.1838 40.093L26.8175 40.9861C26.6376 40.9304 26.462 40.9025 26.2907 40.9025C25.9437 40.9025 25.6246 40.9882 25.3333 41.1595C25.0464 41.3309 24.8172 41.56 24.6459 41.847C24.4745 42.134 24.3889 42.4531 24.3889 42.8043V46.6016H23.4893ZM31.3655 41.076H29.8299L29.8235 46.6016H28.924L28.9304 41.076H27.7674V40.1765H28.9304L28.924 38.159H29.8235L29.8299 40.1765H31.3655V41.076ZM32.255 44.1408V40.1765H33.1546V43.9609C33.1546 44.3121 33.2402 44.6312 33.4116 44.9182C33.5829 45.2052 33.8121 45.4343 34.099 45.6057C34.3903 45.777 34.7094 45.8627 35.0564 45.8627C35.4076 45.8627 35.7246 45.777 36.0073 45.6057C36.2943 45.4343 36.5234 45.2052 36.6948 44.9182C36.8661 44.6312 36.9518 44.3121 36.9518 43.9609V40.1765H37.8513L37.8577 46.6016H36.9582L36.9518 45.7021C36.7248 46.0276 36.4292 46.2867 36.0651 46.4795C35.7053 46.6722 35.3112 46.7686 34.8829 46.7686C34.3989 46.7686 33.9577 46.6508 33.5593 46.4152C33.161 46.1796 32.844 45.8627 32.6084 45.4643C32.3728 45.066 32.255 44.6248 32.255 44.1408ZM44.3691 40.1765H45.2686V46.6016H44.3691L44.337 45.4065C44.1271 45.8134 43.8337 46.1432 43.4568 46.396C43.0798 46.6444 42.6301 46.7686 42.1075 46.7686C41.6363 46.7686 41.1951 46.6808 40.7839 46.5052C40.3727 46.3253 40.0108 46.079 39.6981 45.7663C39.3854 45.4536 39.1412 45.0917 38.9656 44.6805C38.79 44.2693 38.7022 43.8281 38.7022 43.3569C38.7022 42.8943 38.7879 42.4595 38.9592 42.0526C39.1348 41.6457 39.3747 41.288 39.6788 40.9796C39.9872 40.6712 40.3427 40.4314 40.7454 40.26C41.1523 40.0844 41.5871 39.9966 42.0497 39.9966C42.5851 39.9966 43.052 40.1251 43.4503 40.3821C43.8487 40.6348 44.1657 40.9668 44.4012 41.378L44.3691 40.1765ZM42.0882 45.8948C42.5465 45.8948 42.9406 45.7834 43.2704 45.5607C43.6002 45.3337 43.853 45.0296 44.0286 44.6483C44.2085 44.2671 44.2984 43.8473 44.2984 43.389C44.2984 42.9179 44.2085 42.4938 44.0286 42.1169C43.8487 41.7356 43.5938 41.4337 43.264 41.2109C42.9342 40.9882 42.5422 40.8768 42.0882 40.8768C41.6342 40.8768 41.2187 40.9903 40.8417 41.2174C40.4691 41.4401 40.1714 41.7421 39.9487 42.1233C39.7302 42.5045 39.621 42.9264 39.621 43.389C39.621 43.8559 39.7345 44.28 39.9615 44.6612C40.1885 45.0381 40.4884 45.338 40.861 45.5607C41.238 45.7834 41.647 45.8948 42.0882 45.8948ZM46.6422 46.6016V36.964H47.5417V46.6016H46.6422ZM55.0033 46.7686C54.4122 46.7686 53.8725 46.6166 53.3842 46.3124C52.9002 46.0083 52.5125 45.6014 52.2212 45.0917C51.9343 44.5777 51.7908 44.0101 51.7908 43.389C51.7908 42.9179 51.8743 42.4788 52.0413 42.0719C52.2084 41.6607 52.4376 41.3009 52.7288 40.9925C53.0244 40.6798 53.3671 40.4356 53.7568 40.26C54.1466 40.0844 54.5621 39.9966 55.0033 39.9966C55.4788 39.9966 55.9157 40.0908 56.314 40.2793C56.7167 40.4678 57.0615 40.7312 57.3485 41.0696C57.6397 41.408 57.8582 41.8042 58.0038 42.2582C58.1537 42.7123 58.2158 43.2027 58.1901 43.7296H52.7417C52.7931 44.1365 52.9216 44.5006 53.1272 44.8218C53.3371 45.1431 53.6026 45.3979 53.9239 45.5864C54.2494 45.7706 54.6092 45.8648 55.0033 45.8691C55.4316 45.8691 55.8171 45.7577 56.1598 45.535C56.5068 45.3123 56.7852 45.006 56.9951 44.6162L57.9074 44.8282C57.6504 45.3979 57.2628 45.8648 56.7445 46.2289C56.2262 46.5887 55.6458 46.7686 55.0033 46.7686ZM52.716 43.0035H57.2842C57.2542 42.6052 57.1321 42.2411 56.918 41.9113C56.7081 41.5772 56.4361 41.3116 56.102 41.1146C55.7679 40.9132 55.4017 40.8126 55.0033 40.8126C54.605 40.8126 54.2409 40.9111 53.911 41.1081C53.5812 41.3009 53.3114 41.5643 53.1015 41.8984C52.8916 42.2282 52.7631 42.5966 52.716 43.0035ZM58.5828 46.6016L60.9343 43.3762L58.5892 40.1572H59.7007L61.4933 42.6052L63.2795 40.1572H64.3846L62.0459 43.3762L64.3975 46.6016H63.2859L61.4933 44.1343L59.6943 46.6016H58.5828ZM71.2816 42.6244V46.6016H70.3821V42.8043C70.3821 42.4531 70.2964 42.134 70.1251 41.847C69.9538 41.56 69.7246 41.3309 69.4376 41.1595C69.1506 40.9882 68.8315 40.9025 68.4803 40.9025C68.1333 40.9025 67.8142 40.9882 67.523 41.1595C67.236 41.3309 67.0068 41.56 66.8355 41.847C66.6641 42.134 66.5785 42.4531 66.5785 42.8043V46.6016H65.679V36.964H66.5785V41.0632C66.8055 40.7376 67.101 40.4785 67.4651 40.2857C67.8292 40.093 68.2254 39.9966 68.6538 39.9966C69.1378 39.9966 69.579 40.1144 69.9773 40.35C70.3757 40.5856 70.6927 40.9025 70.9282 41.3009C71.1638 41.6992 71.2816 42.1404 71.2816 42.6244ZM72.5683 40.1765H73.4679V46.6016H72.5683V40.1765ZM73.0245 39.0521C72.8789 39.0521 72.7547 39.005 72.6519 38.9108C72.5533 38.8122 72.5041 38.6902 72.5041 38.5445C72.5041 38.3989 72.5533 38.279 72.6519 38.1847C72.7547 38.0862 72.8789 38.0369 73.0245 38.0369C73.1659 38.0369 73.2858 38.0862 73.3843 38.1847C73.4871 38.279 73.5385 38.3989 73.5385 38.5445C73.5385 38.6902 73.4893 38.8122 73.3907 38.9108C73.2922 39.005 73.1702 39.0521 73.0245 39.0521ZM78.2524 39.9966C78.8778 39.9966 79.4453 40.1487 79.9551 40.4528C80.4691 40.7569 80.8781 41.166 81.1822 41.68C81.4864 42.1897 81.6384 42.7572 81.6384 43.3826C81.6384 43.8495 81.5506 44.2885 81.375 44.6997C81.1994 45.1067 80.9552 45.4665 80.6425 45.7792C80.3341 46.0876 79.9743 46.3296 79.5631 46.5052C79.1562 46.6808 78.7193 46.7686 78.2524 46.7686C77.7213 46.7686 77.263 46.6423 76.8774 46.3895C76.4919 46.1368 76.1878 45.807 75.9651 45.4001V46.6016H75.0656V36.964H75.9651V41.3651C76.1878 40.9582 76.4919 40.6284 76.8774 40.3757C77.263 40.123 77.7213 39.9966 78.2524 39.9966ZM78.246 45.8884C78.7043 45.8884 79.1198 45.777 79.4925 45.5543C79.8651 45.3273 80.1628 45.0231 80.3855 44.6419C80.6083 44.2607 80.7196 43.8409 80.7196 43.3826C80.7196 42.9114 80.6061 42.4874 80.3791 42.1104C80.1521 41.7292 79.8501 41.4272 79.4732 41.2045C79.1005 40.9818 78.6915 40.8704 78.246 40.8704C77.792 40.8704 77.3979 40.9839 77.0638 41.2109C76.734 41.4379 76.4791 41.7421 76.2992 42.1233C76.1236 42.5045 76.0358 42.9243 76.0358 43.3826C76.0358 43.8495 76.1257 44.2735 76.3056 44.6548C76.4855 45.0317 76.7404 45.3315 77.0702 45.5543C77.4043 45.777 77.7962 45.8884 78.246 45.8884ZM82.6703 40.1765H83.5698V46.6016H82.6703V40.1765ZM83.1264 39.0521C82.9808 39.0521 82.8566 39.005 82.7538 38.9108C82.6553 38.8122 82.606 38.6902 82.606 38.5445C82.606 38.3989 82.6553 38.279 82.7538 38.1847C82.8566 38.0862 82.9808 38.0369 83.1264 38.0369C83.2678 38.0369 83.3877 38.0862 83.4862 38.1847C83.589 38.279 83.6404 38.3989 83.6404 38.5445C83.6404 38.6902 83.5912 38.8122 83.4927 38.9108C83.3941 39.005 83.2721 39.0521 83.1264 39.0521ZM88.4005 41.076H86.8649L86.8585 46.6016H85.959L85.9654 41.076H84.8025V40.1765H85.9654L85.959 38.159H86.8585L86.8649 40.1765H88.4005V41.076ZM89.4969 40.1765H90.3964V46.6016H89.4969V40.1765ZM89.9531 39.0521C89.8074 39.0521 89.6832 39.005 89.5804 38.9108C89.4819 38.8122 89.4326 38.6902 89.4326 38.5445C89.4326 38.3989 89.4819 38.279 89.5804 38.1847C89.6832 38.0862 89.8074 38.0369 89.9531 38.0369C90.0944 38.0369 90.2144 38.0862 90.3129 38.1847C90.4157 38.279 90.4671 38.3989 90.4671 38.5445C90.4671 38.6902 90.4178 38.8122 90.3193 38.9108C90.2208 39.005 90.0987 39.0521 89.9531 39.0521ZM94.7082 46.7686C94.1171 46.7686 93.5774 46.6166 93.0891 46.3124C92.6051 46.0083 92.2174 45.6014 91.9262 45.0917C91.6392 44.5777 91.4957 44.0101 91.4957 43.389C91.4957 42.9179 91.5792 42.4788 91.7463 42.0719C91.9133 41.6607 92.1425 41.3009 92.4337 40.9925C92.7293 40.6798 93.072 40.4356 93.4618 40.26C93.8515 40.0844 94.267 39.9966 94.7082 39.9966C95.2993 39.9966 95.8369 40.1487 96.3209 40.4528C96.8092 40.7569 97.1969 41.166 97.4839 41.68C97.7751 42.194 97.9208 42.7637 97.9208 43.389C97.9208 43.8559 97.8372 44.2928 97.6702 44.6997C97.5031 45.1067 97.2718 45.4665 96.9763 45.7792C96.685 46.0876 96.3445 46.3296 95.9547 46.5052C95.5692 46.6808 95.1537 46.7686 94.7082 46.7686ZM94.7082 45.8691C95.1451 45.8691 95.5371 45.7556 95.884 45.5286C96.2352 45.2973 96.5115 44.9932 96.7128 44.6162C96.9184 44.2393 97.0212 43.8302 97.0212 43.389C97.0212 42.9393 96.9184 42.5259 96.7128 42.149C96.5072 41.7678 96.2288 41.4636 95.8776 41.2366C95.5306 41.0096 95.1408 40.8961 94.7082 40.8961C94.2713 40.8961 93.8772 41.0118 93.526 41.2431C93.1791 41.4701 92.9028 41.7721 92.6972 42.149C92.4959 42.5259 92.3952 42.9393 92.3952 43.389C92.3952 43.8516 92.5001 44.2714 92.71 44.6483C92.9199 45.021 93.2005 45.3187 93.5517 45.5414C93.9029 45.7599 94.2885 45.8691 94.7082 45.8691ZM104.612 42.6244V46.6016H103.712V42.8043C103.712 42.4531 103.626 42.134 103.455 41.847C103.284 41.56 103.055 41.3309 102.768 41.1595C102.481 40.9882 102.162 40.9025 101.81 40.9025C101.463 40.9025 101.144 40.9882 100.853 41.1595C100.566 41.3309 100.337 41.56 100.166 41.847C99.9942 42.134 99.9085 42.4531 99.9085 42.8043V46.6016H99.009V40.1765H99.9085V41.0632C100.136 40.7376 100.431 40.4785 100.795 40.2857C101.159 40.093 101.555 39.9966 101.984 39.9966C102.468 39.9966 102.909 40.1144 103.307 40.35C103.706 40.5856 104.023 40.9025 104.258 41.3009C104.494 41.6992 104.612 42.1404 104.612 42.6244ZM110.315 38.4996V40.1765H112.243V41.076H110.315V46.6016H109.416V41.076H108.536V40.1765H109.416V38.4996C109.416 38.1869 109.491 37.9042 109.641 37.6514C109.795 37.3944 110.001 37.191 110.258 37.0411C110.515 36.8869 110.799 36.8098 111.112 36.8098C111.339 36.8098 111.558 36.8547 111.767 36.9447C111.982 37.0346 112.172 37.1674 112.339 37.343L111.697 37.9791C111.628 37.8935 111.54 37.8271 111.433 37.7799C111.331 37.7328 111.223 37.7093 111.112 37.7093C110.894 37.7093 110.705 37.7864 110.547 37.9406C110.393 38.0948 110.315 38.2811 110.315 38.4996ZM113.453 46.6016V40.1765H114.352V41.0632C114.579 40.7376 114.875 40.4785 115.239 40.2857C115.603 40.093 115.999 39.9966 116.428 39.9966C116.676 39.9966 116.916 40.0287 117.147 40.093L116.781 40.9861C116.601 40.9304 116.426 40.9025 116.254 40.9025C115.907 40.9025 115.588 40.9882 115.297 41.1595C115.01 41.3309 114.781 41.56 114.609 41.847C114.438 42.134 114.352 42.4531 114.352 42.8043V46.6016H113.453ZM120.446 46.7686C119.855 46.7686 119.315 46.6166 118.827 46.3124C118.343 46.0083 117.955 45.6014 117.664 45.0917C117.377 44.5777 117.234 44.0101 117.234 43.389C117.234 42.9179 117.317 42.4788 117.484 42.0719C117.651 41.6607 117.88 41.3009 118.172 40.9925C118.467 40.6798 118.81 40.4356 119.2 40.26C119.589 40.0844 120.005 39.9966 120.446 39.9966C121.037 39.9966 121.575 40.1487 122.059 40.4528C122.547 40.7569 122.935 41.166 123.222 41.68C123.513 42.194 123.659 42.7637 123.659 43.389C123.659 43.8559 123.575 44.2928 123.408 44.6997C123.241 45.1067 123.01 45.4665 122.714 45.7792C122.423 46.0876 122.082 46.3296 121.693 46.5052C121.307 46.6808 120.892 46.7686 120.446 46.7686ZM120.446 45.8691C120.883 45.8691 121.275 45.7556 121.622 45.5286C121.973 45.2973 122.249 44.9932 122.451 44.6162C122.656 44.2393 122.759 43.8302 122.759 43.389C122.759 42.9393 122.656 42.5259 122.451 42.149C122.245 41.7678 121.967 41.4636 121.616 41.2366C121.269 41.0096 120.879 40.8961 120.446 40.8961C120.009 40.8961 119.615 41.0118 119.264 41.2431C118.917 41.4701 118.641 41.7721 118.435 42.149C118.234 42.5259 118.133 42.9393 118.133 43.389C118.133 43.8516 118.238 44.2714 118.448 44.6483C118.658 45.021 118.938 45.3187 119.29 45.5414C119.641 45.7599 120.026 45.8691 120.446 45.8691ZM124.747 46.6016V40.1765H125.646V41.0632C125.878 40.7376 126.173 40.4785 126.533 40.2857C126.893 40.093 127.287 39.9966 127.715 39.9966C128.199 39.9966 128.643 40.1165 129.045 40.3564C129.448 40.592 129.763 40.9068 129.99 41.3009C130.217 40.9068 130.529 40.592 130.928 40.3564C131.326 40.1165 131.767 39.9966 132.251 39.9966C132.735 39.9966 133.177 40.1144 133.575 40.35C133.973 40.5856 134.29 40.9025 134.526 41.3009C134.761 41.6992 134.879 42.1404 134.879 42.6244V46.6016H133.98V42.8236C133.98 42.481 133.896 42.164 133.729 41.8727C133.562 41.5814 133.337 41.348 133.055 41.1724C132.776 40.9925 132.466 40.9025 132.123 40.9025C131.78 40.9025 131.468 40.9861 131.185 41.1531C130.906 41.3159 130.684 41.5429 130.517 41.8342C130.35 42.1211 130.266 42.451 130.266 42.8236V46.6016H129.367V42.8236C129.367 42.451 129.283 42.1211 129.116 41.8342C128.949 41.5429 128.724 41.3159 128.441 41.1531C128.159 40.9861 127.846 40.9025 127.503 40.9025C127.165 40.9025 126.854 40.9925 126.572 41.1724C126.289 41.348 126.064 41.5814 125.897 41.8727C125.73 42.164 125.646 42.481 125.646 42.8236V46.6016H124.747ZM144.875 37.6065H145.775V46.6016H144.875V42.2325H140.153V46.6016H139.254V37.6065H140.153V41.333H144.875V37.6065ZM150.099 46.7686C149.508 46.7686 148.969 46.6166 148.48 46.3124C147.996 46.0083 147.609 45.6014 147.317 45.0917C147.03 44.5777 146.887 44.0101 146.887 43.389C146.887 42.9179 146.97 42.4788 147.137 42.0719C147.304 41.6607 147.534 41.3009 147.825 40.9925C148.12 40.6798 148.463 40.4356 148.853 40.26C149.243 40.0844 149.658 39.9966 150.099 39.9966C150.69 39.9966 151.228 40.1487 151.712 40.4528C152.2 40.7569 152.588 41.166 152.875 41.68C153.166 42.194 153.312 42.7637 153.312 43.389C153.312 43.8559 153.228 44.2928 153.061 44.6997C152.894 45.1067 152.663 45.4665 152.367 45.7792C152.076 46.0876 151.736 46.3296 151.346 46.5052C150.96 46.6808 150.545 46.7686 150.099 46.7686ZM150.099 45.8691C150.536 45.8691 150.928 45.7556 151.275 45.5286C151.626 45.2973 151.903 44.9932 152.104 44.6162C152.31 44.2393 152.412 43.8302 152.412 43.389C152.412 42.9393 152.31 42.5259 152.104 42.149C151.898 41.7678 151.62 41.4636 151.269 41.2366C150.922 41.0096 150.532 40.8961 150.099 40.8961C149.662 40.8961 149.268 41.0118 148.917 41.2431C148.57 41.4701 148.294 41.7721 148.088 42.149C147.887 42.5259 147.786 42.9393 147.786 43.389C147.786 43.8516 147.891 44.2714 148.101 44.6483C148.311 45.021 148.592 45.3187 148.943 45.5414C149.294 45.7599 149.68 45.8691 150.099 45.8691ZM160.003 42.6244V46.6016H159.103V42.8043C159.103 42.4531 159.018 42.134 158.846 41.847C158.675 41.56 158.446 41.3309 158.159 41.1595C157.872 40.9882 157.553 40.9025 157.201 40.9025C156.855 40.9025 156.535 40.9882 156.244 41.1595C155.957 41.3309 155.728 41.56 155.557 41.847C155.385 42.134 155.3 42.4531 155.3 42.8043V46.6016H154.4V40.1765H155.3V41.0632C155.527 40.7376 155.822 40.4785 156.186 40.2857C156.55 40.093 156.947 39.9966 157.375 39.9966C157.859 39.9966 158.3 40.1144 158.698 40.35C159.097 40.5856 159.414 40.9025 159.649 41.3009C159.885 41.6992 160.003 42.1404 160.003 42.6244ZM166.272 40.1765H167.171V46.8393C167.171 47.2505 167.082 47.636 166.902 47.9958C166.726 48.3556 166.486 48.6704 166.182 48.9403C165.882 49.2144 165.539 49.4286 165.154 49.5828C164.768 49.737 164.368 49.8141 163.952 49.8141C163.507 49.8141 163.077 49.7113 162.661 49.5057C162.246 49.3044 161.884 49.0345 161.575 48.6961C161.271 48.3577 161.055 47.983 160.926 47.5717L161.755 47.1927C161.837 47.5139 161.989 47.8031 162.211 48.0601C162.438 48.3213 162.704 48.5269 163.008 48.6769C163.316 48.8311 163.631 48.9082 163.952 48.9082C164.248 48.9082 164.533 48.8525 164.807 48.7411C165.085 48.634 165.334 48.4862 165.552 48.2978C165.775 48.1093 165.951 47.8887 166.079 47.636C166.208 47.3876 166.272 47.122 166.272 46.8393V45.4193C166.049 45.822 165.747 46.1475 165.366 46.396C164.989 46.6444 164.55 46.7686 164.049 46.7686C163.599 46.7686 163.175 46.6808 162.777 46.5052C162.383 46.3296 162.036 46.0876 161.736 45.7792C161.436 45.4665 161.2 45.1067 161.029 44.6997C160.862 44.2928 160.779 43.8559 160.779 43.389C160.779 42.9221 160.862 42.4852 161.029 42.0783C161.2 41.6671 161.436 41.3073 161.736 40.9989C162.036 40.6862 162.383 40.4421 162.777 40.2664C163.175 40.0908 163.599 40.003 164.049 40.003C164.55 40.003 164.989 40.1272 165.366 40.3757C165.747 40.6198 166.049 40.9454 166.272 41.3523V40.1765ZM164.055 45.8948C164.501 45.8948 164.884 45.7792 165.205 45.5479C165.531 45.3165 165.781 45.0103 165.957 44.6291C166.133 44.2478 166.221 43.8345 166.221 43.389C166.221 42.9307 166.131 42.5131 165.951 42.1361C165.775 41.7549 165.524 41.4508 165.199 41.2238C164.873 40.9925 164.492 40.8768 164.055 40.8768C163.618 40.8768 163.22 40.9903 162.86 41.2174C162.505 41.4401 162.222 41.7421 162.012 42.1233C161.802 42.5045 161.697 42.9264 161.697 43.389C161.697 43.8516 161.804 44.2735 162.019 44.6548C162.233 45.0317 162.518 45.3337 162.873 45.5607C163.233 45.7834 163.627 45.8948 164.055 45.8948ZM177.582 46.6016H176.419L173.47 42.5602L172.705 43.479V46.6016H171.806V37.6065H172.705V42.0783L176.451 37.6065H177.627L174.061 41.8534L177.582 46.6016ZM181.02 46.7686C180.429 46.7686 179.889 46.6166 179.401 46.3124C178.917 46.0083 178.529 45.6014 178.238 45.0917C177.951 44.5777 177.807 44.0101 177.807 43.389C177.807 42.9179 177.891 42.4788 178.058 42.0719C178.225 41.6607 178.454 41.3009 178.746 40.9925C179.041 40.6798 179.384 40.4356 179.774 40.26C180.163 40.0844 180.579 39.9966 181.02 39.9966C181.611 39.9966 182.149 40.1487 182.633 40.4528C183.121 40.7569 183.509 41.166 183.796 41.68C184.087 42.194 184.233 42.7637 184.233 43.389C184.233 43.8559 184.149 44.2928 183.982 44.6997C183.815 45.1067 183.584 45.4665 183.288 45.7792C182.997 46.0876 182.656 46.3296 182.266 46.5052C181.881 46.6808 181.465 46.7686 181.02 46.7686ZM181.02 45.8691C181.457 45.8691 181.849 45.7556 182.196 45.5286C182.547 45.2973 182.823 44.9932 183.025 44.6162C183.23 44.2393 183.333 43.8302 183.333 43.389C183.333 42.9393 183.23 42.5259 183.025 42.149C182.819 41.7678 182.541 41.4636 182.189 41.2366C181.842 41.0096 181.453 40.8961 181.02 40.8961C180.583 40.8961 180.189 41.0118 179.838 41.2431C179.491 41.4701 179.215 41.7721 179.009 42.149C178.808 42.5259 178.707 42.9393 178.707 43.389C178.707 43.8516 178.812 44.2714 179.022 44.6483C179.232 45.021 179.512 45.3187 179.863 45.5414C180.215 45.7599 180.6 45.8691 181.02 45.8691ZM190.923 42.6244V46.6016H190.024V42.8043C190.024 42.4531 189.938 42.134 189.767 41.847C189.596 41.56 189.366 41.3309 189.079 41.1595C188.792 40.9882 188.473 40.9025 188.122 40.9025C187.775 40.9025 187.456 40.9882 187.165 41.1595C186.878 41.3309 186.649 41.56 186.477 41.847C186.306 42.134 186.22 42.4531 186.22 42.8043V46.6016H185.321V40.1765H186.22V41.0632C186.447 40.7376 186.743 40.4785 187.107 40.2857C187.471 40.093 187.867 39.9966 188.296 39.9966C188.78 39.9966 189.221 40.1144 189.619 40.35C190.017 40.5856 190.334 40.9025 190.57 41.3009C190.806 41.6992 190.923 42.1404 190.923 42.6244ZM197.193 40.1765H198.092V46.8393C198.092 47.2505 198.002 47.636 197.822 47.9958C197.647 48.3556 197.407 48.6704 197.103 48.9403C196.803 49.2144 196.46 49.4286 196.075 49.5828C195.689 49.737 195.289 49.8141 194.873 49.8141C194.428 49.8141 193.997 49.7113 193.582 49.5057C193.166 49.3044 192.804 49.0345 192.496 48.6961C192.192 48.3577 191.975 47.983 191.847 47.5717L192.676 47.1927C192.757 47.5139 192.909 47.8031 193.132 48.0601C193.359 48.3213 193.625 48.5269 193.929 48.6769C194.237 48.8311 194.552 48.9082 194.873 48.9082C195.169 48.9082 195.454 48.8525 195.728 48.7411C196.006 48.634 196.255 48.4862 196.473 48.2978C196.696 48.1093 196.871 47.8887 197 47.636C197.128 47.3876 197.193 47.122 197.193 46.8393V45.4193C196.97 45.822 196.668 46.1475 196.287 46.396C195.91 46.6444 195.471 46.7686 194.97 46.7686C194.52 46.7686 194.096 46.6808 193.697 46.5052C193.303 46.3296 192.956 46.0876 192.656 45.7792C192.357 45.4665 192.121 45.1067 191.95 44.6997C191.783 44.2928 191.699 43.8559 191.699 43.389C191.699 42.9221 191.783 42.4852 191.95 42.0783C192.121 41.6671 192.357 41.3073 192.656 40.9989C192.956 40.6862 193.303 40.4421 193.697 40.2664C194.096 40.0908 194.52 40.003 194.97 40.003C195.471 40.003 195.91 40.1272 196.287 40.3757C196.668 40.6198 196.97 40.9454 197.193 41.3523V40.1765ZM194.976 45.8948C195.421 45.8948 195.805 45.7792 196.126 45.5479C196.452 45.3165 196.702 45.0103 196.878 44.6291C197.053 44.2478 197.141 43.8345 197.141 43.389C197.141 42.9307 197.051 42.5131 196.871 42.1361C196.696 41.7549 196.445 41.4508 196.12 41.2238C195.794 40.9925 195.413 40.8768 194.976 40.8768C194.539 40.8768 194.141 40.9903 193.781 41.2174C193.425 41.4401 193.143 41.7421 192.933 42.1233C192.723 42.5045 192.618 42.9264 192.618 43.389C192.618 43.8516 192.725 44.2735 192.939 44.6548C193.153 45.0317 193.438 45.3337 193.794 45.5607C194.154 45.7834 194.548 45.8948 194.976 45.8948Z" fill="white"/>
</svg>
