<svg width="116" height="54" viewBox="0 0 116 54" fill="none" xmlns="http://www.w3.org/2000/svg">
<path d="M15.0484 5.3308V6.978H26.096V5.3308H15.0484ZM6.15918 8.824V10.5564H26.3232V8.824H6.15918ZM6.61358 26.716V28.562H27.7716V26.716H6.61358ZM14.1112 3.1724V9.7328H16.2128V3.1724H14.1112ZM13.6568 18.5936V27.426H15.5028V18.5936H13.6568ZM18.6836 18.5936V27.4828H20.558V18.5936H18.6836ZM8.43118 13.3112L8.60158 14.8448L23.0572 13.5384L22.9152 12.0332L8.43118 13.3112ZM14.026 10.3292V15.1572C14.026 17.202 14.8496 17.6848 17.9452 17.6848C18.6268 17.6848 23.7104 17.6848 24.4204 17.6848C26.664 17.6848 27.2888 17.0884 27.5444 14.7596C27.0048 14.6744 26.2096 14.4188 25.7836 14.1348C25.6416 15.8104 25.4428 16.0376 24.2216 16.0376C23.1424 16.0376 18.854 16.0376 18.0588 16.0376C16.3548 16.0376 16.0424 15.924 16.0424 15.1572V10.3292H14.026ZM4.96638 8.824V15.6116C4.96638 19.2752 4.73918 24.3588 2.43878 27.994C2.89318 28.1928 3.77358 28.8176 4.11438 29.1584C6.55678 25.3244 6.98278 19.5876 6.98278 15.64V8.824H4.96638ZM25.67 8.824V9.1364C25.3576 10.4428 24.8748 12.0048 24.4204 13.0272L26.238 13.5384C26.7776 12.4308 27.374 10.67 27.8284 9.1364L26.3516 8.7388L26.0108 8.824H25.67ZM9.08438 18.9912V24.3872H14.6508V22.74H10.7884V18.9912H9.08438ZM23.7388 18.9912V22.74H19.7344V24.3872H25.4428V18.9912H23.7388ZM38.876 3.1724V9.9316C38.876 11.8344 39.3872 12.3172 41.4604 12.3172C41.8864 12.3172 44.3572 12.3172 44.8116 12.3172C46.402 12.3172 46.9132 11.6924 47.112 9.3068C46.6008 9.1932 45.8908 8.9376 45.4932 8.6252C45.408 10.4144 45.2944 10.67 44.6128 10.67C44.1016 10.67 42.0568 10.67 41.6592 10.67C40.8072 10.67 40.6936 10.5564 40.6936 9.9316V3.1724H38.876ZM45.2092 4.564C43.8744 5.4728 41.4888 6.41 39.4724 7.0348C39.6996 7.4608 39.9552 8.0288 40.0688 8.4264C42.1988 7.83 44.7264 6.9496 46.4588 5.9556L45.2092 4.564ZM39.728 12.2888C39.3304 14.646 38.6488 16.918 37.5412 18.5084C37.9672 18.7356 38.6772 19.19 39.018 19.4456C40.0972 17.7984 40.9492 15.214 41.432 12.6296L39.728 12.2888ZM47.3676 17.4292C47.254 22.172 46.7144 25.8924 44.4424 28.3064C44.8684 28.5336 45.5784 29.0448 45.8624 29.3572C48.1628 26.6024 48.9012 22.74 49.0716 17.5144L47.3676 17.4292ZM40.012 14.8448L39.5008 16.5488H46.0896V14.8448H40.012ZM37.5128 19.9284V21.6608H46.4304V19.9284H37.5128ZM46.7712 4.1096V5.8136H55.064V4.1096H46.7712ZM46.3452 13.2828V15.0436H55.49V13.2828H46.3452ZM41.6592 15.6684V18.622C41.6592 21.178 41.3468 25.2108 36.888 28.0508C37.314 28.3916 37.882 28.9028 38.1376 29.3004C42.8804 26.0344 43.42 21.6324 43.42 18.6504V15.6684H41.6592ZM41.5172 23.6488C42.6532 24.6144 44.0164 26.0344 44.6696 26.9148L45.834 25.4948C45.1808 24.6712 43.7608 23.3648 42.6532 22.3992L41.5172 23.6488ZM54.3824 4.1096V4.4788C53.5872 6.0692 51.9684 8.1992 50.5484 9.4488C50.9176 9.7328 51.4572 10.2724 51.7696 10.67C53.3316 9.2216 55.206 6.9212 56.3988 4.8196L55.1492 3.996L54.8084 4.1096H54.3824ZM47.5664 8.6536C49.7248 9.818 52.1956 11.6356 53.3032 13.0272L54.6096 11.664C53.4168 10.2724 50.9176 8.54 48.7592 7.4324L47.5664 8.6536ZM55.0072 13.2828V13.5384C54.7516 15.0436 54.3824 16.8612 54.0984 18.054L55.4048 18.4516C55.8308 17.202 56.2852 15.214 56.626 13.51L55.5468 13.1976L55.2628 13.2828H55.0072ZM50.6336 13.9644V27L52.3376 27.8236V13.9644H50.6336ZM51.5424 19.7012V21.462H56.2284V19.7012H51.5424ZM48.5036 22.0016L47.1404 22.5128C48.4752 27.7668 50.8324 28.846 54.0984 28.846H56.5692C56.6544 28.3632 56.8816 27.5396 57.1372 27.0852C56.484 27.1136 54.638 27.1136 54.212 27.1136C51.7128 27.1136 49.5544 26.3468 48.5036 22.0016ZM30.4128 17.5996L31.0092 19.6728C33.196 18.8208 35.9508 17.77 38.5636 16.7192L38.166 14.7596C35.2976 15.8672 32.4008 16.9748 30.4128 17.5996ZM30.782 8.8808V10.8688H38.1092V8.8808H30.782ZM34.1048 3.1724V26.9148C34.1048 27.284 33.9628 27.3976 33.622 27.3976C33.2812 27.426 32.2304 27.426 31.0092 27.3976C31.2932 27.9656 31.5204 28.7892 31.634 29.272C33.338 29.3004 34.3888 29.2152 35.042 28.9028C35.7236 28.5904 35.9792 28.0224 35.9792 26.9148V3.1724H34.1048ZM60.5168 6.4668V8.3412H70.4568V6.4668H60.5168ZM63.5272 25.6652V27.4828H71.4792V25.6652H63.5272ZM63.4988 20.9508V22.6548H71.5076V20.9508H63.4988ZM59.2388 11.7492V13.652H73.9216V11.7492H59.2388ZM64.9188 3.3996V12.9704H66.9068V3.3996H64.9188ZM72.4448 4.138C69.6332 10.7268 64.7768 15.8956 58.614 18.9628C59.0116 19.3888 59.6932 20.2408 59.9488 20.6952C66.1968 17.2588 71.252 11.806 74.376 4.706L72.4448 4.138ZM64.1804 16.4068H63.4136L62.2208 17.6564V29.1584H64.1804V18.196H71.4224V16.4068H64.1804ZM70.5704 16.4068V28.7608H72.6436V16.4068H70.5704ZM75.1144 4.7912V29.272H77.2444V6.7792H83.606V4.7912H75.1144ZM83.0664 4.7912V5.4444C82.1576 7.7448 80.5672 11.6072 79.0336 14.5608C82.044 17.0316 82.9528 19.19 82.9528 20.9792C82.9528 22.03 82.754 22.8536 82.0724 23.2228C81.7316 23.4216 81.2488 23.5352 80.7376 23.5636C80.1128 23.6204 79.2608 23.592 78.352 23.5068C78.6928 24.0748 78.9484 25.012 78.9768 25.58C79.8572 25.6368 80.8796 25.6368 81.6464 25.5516C82.3848 25.4664 83.038 25.2676 83.5492 24.9268C84.6 24.2452 85.026 22.9388 84.9976 21.178C84.9976 19.1332 84.2308 16.8896 81.2488 14.2484C82.6404 11.6356 84.174 8.3412 85.3668 5.6716L83.8332 4.6776L83.4924 4.7912H83.0664ZM92.8644 12.8568H108.456V17.1452H92.8644V12.8568ZM91.0468 11.4084V18.5936H110.387V11.4084H91.0468ZM95.7044 8.3412V9.8464H105.616V8.3412H95.7044ZM99.5952 11.8628V17.7984H101.413V11.8628H99.5952ZM100.476 4.8764C103.372 7.6596 108.484 10.4712 112.659 11.9196C112.972 11.38 113.454 10.6132 113.909 10.1588C109.507 8.8524 104.565 6.2396 101.356 3.144H99.3396C96.9824 5.8988 92.1828 8.7956 87.3548 10.4428C87.7524 10.8972 88.2352 11.6356 88.4908 12.1184C93.2052 10.3576 97.948 7.4608 100.476 4.8764ZM94.5968 13.7088C95.3068 14.7312 95.96 16.1228 96.1872 17.0316L97.8344 16.4352C97.5504 15.5264 96.8688 14.1916 96.1304 13.1976L94.5968 13.7088ZM104.821 13.084C104.48 14.0496 103.742 15.5548 103.202 16.5204L104.707 17.0316C105.275 16.1796 105.985 14.8732 106.638 13.652L104.821 13.084ZM92.7224 19.9568V29.272H94.824V21.462H106.61V29.2436H108.768V19.9568H92.7224ZM93.972 23.3648V24.9268H107.547V23.3648H93.972ZM93.972 26.858V28.3916H107.547V26.858H93.972Z" fill="white"/>
<path d="M2.89108 42.4194V43.3126H13.4505V42.4194H2.89108ZM7.61405 40.7186V51.9632H8.56843V40.7186H7.61405ZM7.72417 46.1513C6.62296 48.0111 4.50619 49.7975 2.46284 50.6295C2.67084 50.8131 2.9645 51.1801 3.11133 51.4126C5.17915 50.446 7.29593 48.5495 8.49502 46.4572L7.72417 46.1513ZM8.51949 46.1758L7.74865 46.4939C8.93551 48.5862 11.0156 50.4949 13.1201 51.4371C13.2792 51.1801 13.5728 50.8131 13.8053 50.6173C11.6885 49.8098 9.59623 48.0478 8.51949 46.1758ZM4.51843 45.515C5.10574 46.0289 5.83988 46.7631 6.21919 47.2036L6.84321 46.5795C6.4639 46.1391 5.70529 45.4416 5.13021 44.9522L4.51843 45.515ZM5.03233 43.6063C4.66526 45.1847 3.89441 46.5184 2.78096 47.3504C3.00121 47.4972 3.35604 47.7909 3.50287 47.9499C4.64079 47.0078 5.49728 45.5517 5.92553 43.7653L5.03233 43.6063ZM10.4038 45.5395C11.2358 46.2125 12.337 47.1546 12.8632 47.7419L13.5116 47.1057C12.961 46.5428 11.8354 45.6252 11.0156 45.0011L10.4038 45.5395ZM10.832 43.6063C10.5628 44.9767 9.97554 46.1758 9.08233 46.9221C9.30258 47.0323 9.69412 47.2892 9.86542 47.436C10.7341 46.5795 11.3949 45.2948 11.713 43.7531L10.832 43.6063ZM16.852 45.099V45.9555H23.9609V45.099H16.852ZM16.852 47.7542V48.6107H23.9609V47.7542H16.852ZM16.852 50.4338V51.2903H23.9609V50.4338H16.852ZM16.228 42.3827V51.9755H17.1579V43.2637H23.7162V51.9143H24.6706V42.3827H16.228ZM19.813 40.6942C19.6907 41.2937 19.4215 42.1502 19.2012 42.7253L20.021 42.8844C20.2902 42.3582 20.6083 41.5629 20.8775 40.8288L19.813 40.6942ZM28.9775 47.1301V51.9632H29.8952V47.8643H35.438V51.951H36.3923V47.1301H28.9775ZM29.5281 48.9655V49.6507H35.7561V48.9655H29.5281ZM29.5281 50.8008V51.535H35.854V50.8008H29.5281ZM27.1789 43.5329V44.3649H38.0319V43.5329H27.1789ZM32.1099 41.8443V46.7998H33.052V41.8443H32.1099ZM31.6571 43.7286C30.6538 45.1113 28.6961 46.4449 26.9342 47.069C27.1422 47.2525 27.4114 47.5829 27.546 47.8031C29.3201 47.0934 31.2778 45.6252 32.3913 44.0345L31.6571 43.7286ZM33.4925 43.7531L32.7706 44.0712C33.933 45.5395 35.9396 46.9711 37.6771 47.6685C37.8117 47.436 38.0809 47.1057 38.2889 46.9221C36.5514 46.3348 34.5325 45.0378 33.4925 43.7531ZM36.0008 40.8043C34.2144 41.2815 30.9352 41.5874 28.17 41.722C28.2679 41.9422 28.378 42.2848 28.4025 42.5051C31.2167 42.3949 34.557 42.0768 36.6982 41.5384L36.0008 40.8043ZM42.5102 42.1013V42.9455H50.1697V42.1013H42.5102ZM41.9963 44.3649V45.2091H50.5123V44.3649H41.9963ZM44.162 40.7309V44.9889H45.0552V40.7309H44.162ZM47.4289 40.7309V45.0256H48.3344V40.7309H47.4289ZM44.3455 44.8665C43.8194 46.0412 42.7794 47.2403 41.8005 47.852C41.9963 48.0111 42.2899 48.3292 42.4368 48.5372C43.4768 47.8276 44.5413 46.4816 45.1286 45.148L44.3455 44.8665ZM48.1631 44.8298L47.4044 45.099C47.9551 46.4205 48.9828 47.7419 50.0596 48.4271C50.2064 48.1946 50.5001 47.8643 50.7081 47.693C49.668 47.1424 48.6647 45.9922 48.1631 44.8298ZM44.0886 48.5128V49.2714H48.3099V46.4449H44.2354V47.2036H47.4656V48.5128H44.0886ZM43.6726 48.5128V50.7274C43.6726 51.7063 44.0641 51.9388 45.4223 51.9388C45.7037 51.9388 47.9183 51.9388 48.212 51.9388C49.3744 51.9388 49.6436 51.5962 49.7782 50.0545C49.5335 50.0055 49.1664 49.8832 48.9584 49.7363C48.8972 50.9477 48.7993 51.119 48.1508 51.119C47.6614 51.119 45.8138 51.119 45.459 51.119C44.6759 51.119 44.5413 51.0456 44.5413 50.7152V48.5128H43.6726ZM39.7572 41.4895C40.5035 41.8443 41.409 42.4316 41.8372 42.8721L42.3756 42.1258C41.9351 41.6975 41.0297 41.1469 40.2833 40.8165L39.7572 41.4895ZM39.1331 44.7931C39.8917 45.1235 40.8094 45.6619 41.2377 46.0779L41.7638 45.3193C41.3111 44.9155 40.3934 44.4016 39.647 44.0957L39.1331 44.7931ZM39.4635 51.2413L40.2833 51.8042C40.9073 50.6662 41.6292 49.149 42.1798 47.852L41.4579 47.3014C40.8584 48.6963 40.0508 50.2992 39.4635 51.2413ZM52.5557 42.6764V43.4961H55.4188V49.8465H52.5557V50.6785H56.2753V42.6764H52.5557ZM52.0051 42.6764V51.6573H52.8616V42.6764H52.0051ZM52.4945 46.0779V46.8977H55.8715V46.0779H52.4945ZM53.8771 40.6819C53.7792 41.3182 53.5468 42.2481 53.3387 42.8354L54.0729 43.019C54.3176 42.4683 54.6235 41.6241 54.8682 40.8655L53.8771 40.6819ZM58.0128 42.6396V43.4961H61.7691V42.6396H58.0128ZM61.451 42.6396V42.8354C61.2797 48.2313 61.0839 50.2625 60.6801 50.703C60.5456 50.862 60.3987 50.8987 60.154 50.8987C59.8726 50.8987 59.1385 50.8865 58.3431 50.8253C58.5144 51.07 58.6246 51.4493 58.649 51.7185C59.3342 51.7552 60.0561 51.7797 60.4721 51.7308C60.9004 51.694 61.1818 51.5839 61.451 51.2291C61.9404 50.6295 62.1117 48.733 62.3075 43.1168C62.3075 42.9822 62.3075 42.6396 62.3075 42.6396H61.451ZM58.2697 40.6575C57.8782 42.3582 57.2052 44.0468 56.3732 45.1235C56.5934 45.2458 56.9727 45.5028 57.1318 45.6496C57.9761 44.4872 58.698 42.6886 59.1507 40.8655L58.2697 40.6575ZM57.7069 45.8209C58.3798 46.7141 59.1996 47.9255 59.5667 48.6718L60.3498 48.1824C59.9582 47.4605 59.114 46.2736 58.4165 45.4049L57.7069 45.8209ZM74.1149 46.8365C73.6255 47.3871 72.769 48.1824 72.1572 48.6474L72.72 49.0878C73.3563 48.6596 74.1883 47.9744 74.8491 47.3749L74.1149 46.8365ZM71.0805 40.6942C70.9336 41.1836 70.64 41.8688 70.4075 42.3215L71.1783 42.5173C71.4598 42.1135 71.8024 41.4773 72.096 40.8899L71.0805 40.6942ZM69.4164 44.4872H73.5398V45.5517H69.4164V44.4872ZM69.4164 42.7131H73.5398V43.7776H69.4164V42.7131ZM68.5722 41.9789V46.2981H74.4208V41.9789H68.5722ZM71.0438 45.8943V50.9844C71.0438 51.119 71.0071 51.1557 70.848 51.1557C70.7012 51.1679 70.2117 51.1679 69.6611 51.1557C69.7712 51.3882 69.8814 51.7308 69.9058 51.9632C70.6767 51.9632 71.1661 51.951 71.4842 51.8164C71.7901 51.6818 71.8758 51.4493 71.8758 50.9844V45.8943H71.0438ZM68.1072 47.3626V48.1335H70.1506V47.3626H68.1072ZM69.9425 47.3626V47.5094C69.5877 49.1123 68.7067 50.238 67.5566 50.8375C67.7401 50.9721 68.0215 51.278 68.1317 51.4738C69.3552 50.7764 70.3219 49.4916 70.7623 47.5462L70.2607 47.3381L70.1016 47.3626H69.9425ZM71.7657 45.9555L71.264 46.5795C71.5944 48.1702 72.4753 50.3848 74.5676 51.4616C74.69 51.2291 74.9592 50.8865 75.1305 50.7152C72.9892 49.7853 72.1083 47.6807 71.7657 45.9555ZM65.5866 40.7186C65.2685 41.5262 64.6934 42.7253 64.253 43.435L64.877 43.7042C65.3542 43.0312 65.9292 41.93 66.3942 41.0245L65.5866 40.7186ZM66.957 42.1135C66.2841 43.3983 65.1339 45.2214 64.2163 46.3103L64.7791 46.6285C65.6968 45.564 66.8836 43.8265 67.7279 42.4683L66.957 42.1135ZM63.6289 43.2637C64.2774 43.8877 65.0116 44.7564 65.3175 45.3437L65.8436 44.6585C65.5255 44.0957 64.7791 43.2759 64.1184 42.6764L63.6289 43.2637ZM66.4799 44.9155C66.9693 45.723 67.4465 46.812 67.6055 47.4972L68.3274 47.1668C68.1561 46.4939 67.6545 45.4416 67.1406 44.6341L66.4799 44.9155ZM63.5311 46.1268L63.6289 46.9466C64.7424 46.8732 66.2107 46.7875 67.6667 46.6897V45.9188C66.125 46.0045 64.5956 46.0779 63.5311 46.1268ZM66.798 47.8765C67.0916 48.5739 67.3486 49.4916 67.4098 50.0789L68.1194 49.8587C68.046 49.2714 67.7891 48.3659 67.4709 47.6685L66.798 47.8765ZM64.2652 47.7052C64.1306 48.7697 63.8981 49.8709 63.5066 50.6173C63.6901 50.703 64.0572 50.862 64.204 50.9599C64.5956 50.1768 64.877 49.0022 65.036 47.8398L64.2652 47.7052ZM65.5622 46.4816V51.9632H66.3697V46.4816H65.5622ZM81.1749 44.6708V45.5884H86.2037V44.6708H81.1749ZM76.0481 50.4705V51.3882H87.0358V50.4705H76.0481ZM80.6488 40.8899V50.9599H81.6154V40.8899H80.6488ZM90.7065 45.4294V46.2247H98.7942V45.4294H90.7065ZM90.3272 47.4727V48.2681H99.2837V47.4727H90.3272ZM92.5418 44.2303V47.8888H93.3983V44.2303H92.5418ZM91.8811 47.7542V51.0578H92.7376V47.7542H91.8811ZM95.8577 44.2303V47.852H96.7264V44.2303H95.8577ZM89.3728 41.306V44.891C89.3728 46.8487 89.2627 49.5773 88.0391 51.5105C88.2593 51.5962 88.6754 51.8409 88.8466 51.9755C90.1192 49.9811 90.3027 46.9711 90.3027 44.891V41.306H89.3728ZM89.9234 41.306V42.1013H97.6441V43.5084H89.9234V44.3037H98.5618V41.306H89.9234ZM90.474 50.9477L90.6208 51.8042C91.9056 51.5839 93.692 51.3025 95.3805 50.9966L95.3438 50.2013C93.5329 50.4949 91.6853 50.7886 90.474 50.9477ZM94.8911 47.7909L94.1325 47.9744C94.94 50.0422 96.5429 51.4126 98.8554 51.9877C98.9655 51.7552 99.2103 51.4249 99.406 51.2291C97.1914 50.7886 95.6007 49.565 94.8911 47.7909ZM97.9378 48.3415C97.3994 48.782 96.4572 49.3937 95.7843 49.7608L96.3716 50.2135C97.069 49.8587 97.9622 49.3448 98.6229 48.8187L97.9378 48.3415ZM103.126 47.6318H108.852V48.2191H103.126V47.6318ZM103.126 48.7575H108.852V49.357H103.126V48.7575ZM103.126 46.5184H108.852V47.0934H103.126V46.5184ZM102.257 45.9555V49.9076H109.757V45.9555H102.257ZM106.735 49.5773V50.7764C106.735 51.6084 107.041 51.8164 108.228 51.8164C108.46 51.8164 110.076 51.8164 110.332 51.8164C111.238 51.8164 111.507 51.5105 111.605 50.2502C111.36 50.2013 111.018 50.0789 110.822 49.9566C110.785 50.9599 110.7 51.0823 110.247 51.0823C109.88 51.0823 108.558 51.0823 108.301 51.0823C107.739 51.0823 107.641 51.0456 107.641 50.7764V49.5773H106.735ZM104.129 49.614C103.835 50.654 103.003 51.0578 100.397 51.2536C100.544 51.4249 100.752 51.7675 100.813 51.9632C103.676 51.6696 104.68 51.07 105.034 49.614H104.129ZM107.2 42.5418V43.1291H110.846V42.5418H107.2ZM107.09 41.4283V42.0646H111.458V41.4283H107.09ZM103.065 41.3794V42.5295H103.811V41.3794H103.065ZM103.065 43.8387V45.0134H103.811V43.8387H103.065ZM101.462 42.3215V42.8966H104.729V43.5818H101.462V44.1446H105.524V42.3215H101.462ZM109.794 44.1202H110.577V45.0134H109.794V44.1202ZM108.473 44.1202H109.256V45.0134H108.473V44.1202ZM107.188 44.1202H107.934V45.0134H107.188V44.1202ZM106.527 43.6063V45.5273H111.262V43.6063H106.527ZM107.151 40.7186C106.907 41.4038 106.442 42.1869 105.683 42.7865C105.879 42.8844 106.16 43.1291 106.307 43.3126C107.151 42.5907 107.653 41.7097 107.971 40.841L107.151 40.7186ZM105.866 41.1224H100.972V45.4416H105.964V44.8543H101.78V41.722H105.866V41.1224Z" fill="white"/>
</svg>
