<svg width="210" height="48" viewBox="0 0 210 48" fill="none" xmlns="http://www.w3.org/2000/svg">
<path d="M1.49372 24V11.5523H3.58493V13.1083C4.02475 12.5274 4.5766 12.0668 5.24048 11.7266C5.91265 11.378 6.64291 11.2038 7.43127 11.2038C8.3524 11.2038 9.19469 11.4278 9.95815 11.876C10.7216 12.3241 11.3232 12.9174 11.7631 13.656C12.2029 12.9174 12.8004 12.3241 13.5555 11.876C14.319 11.4278 15.1571 11.2038 16.07 11.2038C17.0077 11.2038 17.8583 11.432 18.6217 11.8884C19.3852 12.3365 19.991 12.9423 20.4391 13.7058C20.8955 14.4692 21.1237 15.3198 21.1237 16.2575V24H19.0325V16.7554C19.0325 16.1414 18.8831 15.5729 18.5844 15.0501C18.2856 14.5273 17.8832 14.1082 17.377 13.7929C16.8708 13.4776 16.3106 13.3199 15.6965 13.3199C15.0824 13.3199 14.5223 13.4693 14.0161 13.768C13.5099 14.0584 13.1074 14.4651 12.8087 14.9879C12.5099 15.5024 12.3606 16.0916 12.3606 16.7554V24H10.2693V16.7554C10.2693 16.0916 10.12 15.5024 9.82122 14.9879C9.52248 14.4651 9.11586 14.0584 8.60135 13.768C8.09515 13.4693 7.535 13.3199 6.92091 13.3199C6.31513 13.3199 5.75498 13.4776 5.24048 13.7929C4.73427 14.1082 4.33179 14.5273 4.03305 15.0501C3.73431 15.5729 3.58493 16.1414 3.58493 16.7554V24H1.49372ZM29.8414 24.3236C28.6962 24.3236 27.6506 24.029 26.7046 23.4399C25.7668 22.8507 25.0158 22.0623 24.4515 21.0748C23.8955 20.079 23.6175 18.9794 23.6175 17.7762C23.6175 16.8633 23.7794 16.0127 24.103 15.2244C24.4266 14.4277 24.8706 13.7307 25.4349 13.1332C26.0075 12.5274 26.6714 12.0544 27.4265 11.7141C28.1817 11.3739 28.9866 11.2038 29.8414 11.2038C30.7791 11.2038 31.638 11.3946 32.4181 11.7764C33.2064 12.1498 33.8786 12.6726 34.4346 13.3448C34.9989 14.017 35.4179 14.797 35.6918 15.6849C35.9739 16.5729 36.0777 17.5231 36.003 18.5355H25.8457C25.9453 19.2408 26.1776 19.8715 26.5427 20.4275C26.9079 20.9752 27.3726 21.4109 27.9369 21.7345C28.5095 22.0582 29.1443 22.2241 29.8414 22.2324C30.5882 22.2324 31.2646 22.0416 31.8704 21.6598C32.4761 21.2698 32.9657 20.7387 33.3392 20.0665L35.4677 20.5644C34.9698 21.6681 34.2188 22.5727 33.2147 23.278C32.2106 23.9751 31.0861 24.3236 29.8414 24.3236ZM25.7834 16.8924H33.8993C33.8329 16.1953 33.6089 15.5605 33.2272 14.9879C32.8454 14.407 32.36 13.9423 31.7708 13.5937C31.1816 13.2452 30.5385 13.0709 29.8414 13.0709C29.1443 13.0709 28.5053 13.2411 27.9244 13.5813C27.3435 13.9215 26.8622 14.3821 26.4805 14.963C26.1071 15.5356 25.8747 16.1787 25.7834 16.8924ZM44.4026 13.6435H41.577L41.5646 24H39.4734L39.4858 13.6435H37.3448V11.5523H39.4858L39.4734 7.64374H41.5646L41.577 11.5523H44.4026V13.6435ZM46.6341 24V11.5523H48.7253V13.1083C49.1651 12.5274 49.7211 12.0668 50.3933 11.7266C51.0655 11.378 51.7957 11.2038 52.5841 11.2038C53.0654 11.2038 53.5301 11.266 53.9782 11.3905L53.1318 13.4817C52.7915 13.3738 52.4596 13.3199 52.136 13.3199C51.5136 13.3199 50.941 13.4734 50.4182 13.7804C49.9037 14.0792 49.4929 14.4858 49.1859 15.0003C48.8788 15.5148 48.7253 16.0874 48.7253 16.7181V24H46.6341ZM60.3528 24.3236C59.2076 24.3236 58.162 24.029 57.216 23.4399C56.2783 22.8507 55.5272 22.0623 54.9629 21.0748C54.407 20.079 54.129 18.9794 54.129 17.7762C54.129 16.8633 54.2908 16.0127 54.6144 15.2244C54.9381 14.4277 55.382 13.7307 55.9463 13.1332C56.5189 12.5274 57.1828 12.0544 57.9379 11.7141C58.6931 11.3739 59.4981 11.2038 60.3528 11.2038C61.498 11.2038 62.5394 11.4984 63.4772 12.0876C64.4232 12.6768 65.1742 13.4693 65.7302 14.4651C66.2945 15.4609 66.5766 16.5646 66.5766 17.7762C66.5766 18.6807 66.4148 19.5271 66.0912 20.3155C65.7675 21.1038 65.3194 21.8009 64.7468 22.4067C64.1825 23.0042 63.5228 23.473 62.7676 23.8133C62.0208 24.1535 61.2158 24.3236 60.3528 24.3236ZM60.3528 22.2324C61.1329 22.2324 61.8341 22.0291 62.4565 21.6225C63.0871 21.2076 63.5809 20.664 63.9377 19.9918C64.3029 19.3114 64.4854 18.5728 64.4854 17.7762C64.4854 16.9629 64.2987 16.216 63.9253 15.5356C63.5601 14.8551 63.0664 14.3116 62.444 13.9049C61.8216 13.4983 61.1246 13.295 60.3528 13.295C59.5727 13.295 58.8715 13.5025 58.2491 13.9174C57.6268 14.324 57.133 14.8675 56.7679 15.548C56.4027 16.2285 56.2202 16.9712 56.2202 17.7762C56.2202 18.606 56.4069 19.3612 56.7803 20.0416C57.1537 20.7138 57.6558 21.2491 58.2865 21.6474C58.9172 22.0374 59.6059 22.2324 60.3528 22.2324ZM81.26 24H78.5838L74.0404 11.5274H76.2685L79.9157 21.5727L83.5629 11.5274H85.791L81.26 24ZM87.8184 11.5523H89.9096V24H87.8184V11.5523ZM88.8889 9.52334C88.557 9.52334 88.279 9.41546 88.0549 9.1997C87.8309 8.98394 87.7188 8.71424 87.7188 8.3906C87.7188 8.06696 87.8309 7.79726 88.0549 7.5815C88.279 7.36574 88.5528 7.25786 88.8765 7.25786C89.2001 7.25786 89.474 7.36574 89.698 7.5815C89.9221 7.79726 90.0341 8.06696 90.0341 8.3906C90.0341 8.71424 89.9221 8.98394 89.698 9.1997C89.4823 9.41546 89.2126 9.52334 88.8889 9.52334ZM102.737 11.5523H104.829V24H102.737L102.65 21.8963C102.26 22.6183 101.721 23.2033 101.032 23.6515C100.352 24.0996 99.5383 24.3236 98.5923 24.3236C97.6794 24.3236 96.8247 24.1535 96.0281 23.8133C95.2314 23.4647 94.526 22.9876 93.9119 22.3818C93.3062 21.7677 92.8331 21.0623 92.4929 20.2657C92.1527 19.469 91.9826 18.6102 91.9826 17.689C91.9826 16.8011 92.1485 15.9629 92.4805 15.1746C92.8124 14.3862 93.273 13.6975 93.8622 13.1083C94.4596 12.5108 95.1484 12.0461 95.9285 11.7141C96.7085 11.3739 97.5467 11.2038 98.4429 11.2038C99.4221 11.2038 100.281 11.4361 101.02 11.9008C101.758 12.3573 102.356 12.9506 102.812 13.6809L102.737 11.5523ZM98.5549 22.2947C99.3765 22.2947 100.086 22.0955 100.683 21.6972C101.289 21.2906 101.754 20.7429 102.078 20.0541C102.41 19.3653 102.576 18.606 102.576 17.7762C102.576 16.9297 102.41 16.1663 102.078 15.4858C101.746 14.797 101.277 14.2535 100.671 13.8551C100.074 13.4485 99.3682 13.2452 98.5549 13.2452C97.7334 13.2452 96.9865 13.4485 96.3144 13.8551C95.6422 14.2618 95.1069 14.8095 94.7086 15.4982C94.3186 16.1787 94.1236 16.938 94.1236 17.7762C94.1236 18.6143 94.3269 19.3778 94.7335 20.0665C95.1401 20.747 95.6795 21.2906 96.3517 21.6972C97.0239 22.0955 97.7583 22.2947 98.5549 22.2947ZM119.77 24H117.094L112.55 11.5274H114.779L118.426 21.5727L122.073 11.5274H124.301L119.77 24ZM126.328 11.5523H128.42V24H126.328V11.5523ZM127.399 9.52334C127.067 9.52334 126.789 9.41546 126.565 9.1997C126.341 8.98394 126.229 8.71424 126.229 8.3906C126.229 8.06696 126.341 7.79726 126.565 7.5815C126.789 7.36574 127.063 7.25786 127.387 7.25786C127.71 7.25786 127.984 7.36574 128.208 7.5815C128.432 7.79726 128.544 8.06696 128.544 8.3906C128.544 8.71424 128.432 8.98394 128.208 9.1997C127.992 9.41546 127.723 9.52334 127.399 9.52334ZM131.337 24V11.5523H133.428V13.1083C133.868 12.5274 134.424 12.0668 135.096 11.7266C135.768 11.378 136.498 11.2038 137.287 11.2038C137.768 11.2038 138.233 11.266 138.681 11.3905L137.834 13.4817C137.494 13.3738 137.162 13.3199 136.839 13.3199C136.216 13.3199 135.644 13.4734 135.121 13.7804C134.606 14.0792 134.196 14.4858 133.888 15.0003C133.581 15.5148 133.428 16.0874 133.428 16.7181V24H131.337ZM146.877 13.6435H144.052L144.039 24H141.948L141.96 13.6435H139.819V11.5523H141.96L141.948 7.64374H144.039L144.052 11.5523H146.877V13.6435ZM148.611 19.2699V11.5523H150.702V18.8093C150.702 19.44 150.856 20.0126 151.163 20.5271C151.47 21.0416 151.88 21.4524 152.395 21.7594C152.918 22.0582 153.49 22.2075 154.113 22.2075C154.743 22.2075 155.312 22.0582 155.818 21.7594C156.332 21.4524 156.743 21.0416 157.05 20.5271C157.357 20.0126 157.511 19.44 157.511 18.8093V11.5523H159.602L159.615 24H157.523L157.511 22.4191C157.071 23 156.515 23.4647 155.843 23.8133C155.171 24.1535 154.445 24.3236 153.665 24.3236C152.735 24.3236 151.885 24.0996 151.113 23.6515C150.349 23.195 149.739 22.5851 149.283 21.8217C148.835 21.0582 148.611 20.2076 148.611 19.2699ZM172.002 11.5523H174.093V24H172.002L171.915 21.8963C171.525 22.6183 170.985 23.2033 170.297 23.6515C169.616 24.0996 168.803 24.3236 167.857 24.3236C166.944 24.3236 166.089 24.1535 165.293 23.8133C164.496 23.4647 163.791 22.9876 163.177 22.3818C162.571 21.7677 162.098 21.0623 161.757 20.2657C161.417 19.469 161.247 18.6102 161.247 17.689C161.247 16.8011 161.413 15.9629 161.745 15.1746C162.077 14.3862 162.538 13.6975 163.127 13.1083C163.724 12.5108 164.413 12.0461 165.193 11.7141C165.973 11.3739 166.811 11.2038 167.707 11.2038C168.687 11.2038 169.546 11.4361 170.284 11.9008C171.023 12.3573 171.62 12.9506 172.077 13.6809L172.002 11.5523ZM167.819 22.2947C168.641 22.2947 169.351 22.0955 169.948 21.6972C170.554 21.2906 171.019 20.7429 171.342 20.0541C171.674 19.3653 171.84 18.606 171.84 17.7762C171.84 16.9297 171.674 16.1663 171.342 15.4858C171.01 14.797 170.541 14.2535 169.936 13.8551C169.338 13.4485 168.633 13.2452 167.819 13.2452C166.998 13.2452 166.251 13.4485 165.579 13.8551C164.907 14.2618 164.371 14.8095 163.973 15.4982C163.583 16.1787 163.388 16.938 163.388 17.7762C163.388 18.6143 163.591 19.3778 163.998 20.0665C164.405 20.747 164.944 21.2906 165.616 21.6972C166.288 22.0955 167.023 22.2947 167.819 22.2947ZM176.727 24V5.32847H178.818V24H176.727Z" fill="white"/>
<path d="M5.8905 37.625H6.9615V44H5.8905L5.84588 42.9226C5.64613 43.2924 5.36988 43.592 5.01713 43.8215C4.66863 44.051 4.25213 44.1658 3.76763 44.1658C3.30013 44.1658 2.86238 44.0786 2.45438 43.9044C2.04638 43.7259 1.68513 43.4815 1.37063 43.1712C1.06038 42.8567 0.818125 42.4955 0.643875 42.0875C0.469625 41.6795 0.3825 41.2396 0.3825 40.7679C0.3825 40.3131 0.4675 39.8839 0.6375 39.4801C0.8075 39.0764 1.04338 38.7236 1.34513 38.4219C1.65113 38.1159 2.00388 37.8779 2.40338 37.7079C2.80288 37.5336 3.23213 37.4465 3.69113 37.4465C4.19263 37.4465 4.6325 37.5655 5.01075 37.8035C5.389 38.0372 5.695 38.3411 5.92875 38.7151L5.8905 37.625ZM3.7485 43.1266C4.16925 43.1266 4.53263 43.0246 4.83863 42.8206C5.14888 42.6124 5.38688 42.3319 5.55263 41.9791C5.72263 41.6264 5.80763 41.2375 5.80763 40.8125C5.80763 40.379 5.72263 39.988 5.55263 39.6395C5.38263 39.2867 5.1425 39.0084 4.83225 38.8044C4.52625 38.5961 4.165 38.492 3.7485 38.492C3.32775 38.492 2.94525 38.5961 2.601 38.8044C2.25675 39.0126 1.98263 39.2931 1.77863 39.6459C1.57888 39.9944 1.479 40.3832 1.479 40.8125C1.479 41.2417 1.58313 41.6327 1.79138 41.9855C1.99963 42.334 2.27588 42.6124 2.62013 42.8206C2.96438 43.0246 3.3405 43.1266 3.7485 43.1266ZM15.3787 44H14.0081L11.6812 37.6122H12.8223L14.6902 42.7569L16.5581 37.6122H17.6992L15.3787 44ZM19.12 37.625H20.191V44H19.12V37.625ZM19.6683 36.5859C19.4983 36.5859 19.3559 36.5306 19.2411 36.4201C19.1264 36.3096 19.069 36.1715 19.069 36.0057C19.069 35.84 19.1264 35.7019 19.2411 35.5914C19.3559 35.4809 19.4961 35.4256 19.6619 35.4256C19.8276 35.4256 19.9679 35.4809 20.0826 35.5914C20.1974 35.7019 20.2548 35.84 20.2548 36.0057C20.2548 36.1715 20.1974 36.3096 20.0826 36.4201C19.9721 36.5306 19.834 36.5859 19.6683 36.5859ZM22.0675 44V37.625H23.1385V38.4219C23.3637 38.1244 23.6485 37.8885 23.9927 37.7142C24.337 37.5357 24.711 37.4465 25.1147 37.4465C25.3612 37.4465 25.5992 37.4784 25.8287 37.5421L25.3952 38.6131C25.221 38.5579 25.051 38.5302 24.8852 38.5302C24.5665 38.5302 24.2732 38.6089 24.0055 38.7661C23.742 38.9191 23.5316 39.1274 23.3743 39.3909C23.2171 39.6544 23.1385 39.9476 23.1385 40.2706V44H22.0675ZM30.4089 38.696H28.9618L28.9554 44H27.8844L27.8908 38.696H26.7943V37.625H27.8908L27.8844 35.6232H28.9554L28.9618 37.625H30.4089V38.696ZM31.6793 41.5775V37.625H32.7503V41.3416C32.7503 41.6646 32.8289 41.9579 32.9861 42.2214C33.1434 42.4849 33.3538 42.6952 33.6173 42.8525C33.885 43.0055 34.1783 43.082 34.497 43.082C34.82 43.082 35.1111 43.0055 35.3704 42.8525C35.6339 42.6952 35.8443 42.4849 36.0015 42.2214C36.1588 41.9579 36.2374 41.6646 36.2374 41.3416V37.625H37.3084L37.3148 44H36.2438L36.2374 43.1904C36.0121 43.4879 35.7274 43.7259 35.3831 43.9044C35.0389 44.0786 34.667 44.1658 34.2675 44.1658C33.7915 44.1658 33.3559 44.051 32.9606 43.8215C32.5696 43.5877 32.2573 43.2754 32.0235 42.8844C31.794 42.4934 31.6793 42.0577 31.6793 41.5775ZM44.0414 37.625H45.1124V44H44.0414L43.9968 42.9226C43.797 43.2924 43.5208 43.592 43.168 43.8215C42.8195 44.051 42.403 44.1658 41.9185 44.1658C41.451 44.1658 41.0133 44.0786 40.6053 43.9044C40.1973 43.7259 39.836 43.4815 39.5215 43.1712C39.2113 42.8567 38.969 42.4955 38.7948 42.0875C38.6205 41.6795 38.5334 41.2396 38.5334 40.7679C38.5334 40.3131 38.6184 39.8839 38.7884 39.4801C38.9584 39.0764 39.1943 38.7236 39.496 38.4219C39.802 38.1159 40.1548 37.8779 40.5543 37.7079C40.9538 37.5336 41.383 37.4465 41.842 37.4465C42.3435 37.4465 42.7834 37.5655 43.1616 37.8035C43.5399 38.0372 43.8459 38.3411 44.0796 38.7151L44.0414 37.625ZM41.8994 43.1266C42.3201 43.1266 42.6835 43.0246 42.9895 42.8206C43.2998 42.6124 43.5378 42.3319 43.7035 41.9791C43.8735 41.6264 43.9585 41.2375 43.9585 40.8125C43.9585 40.379 43.8735 39.988 43.7035 39.6395C43.5335 39.2867 43.2934 39.0084 42.9831 38.8044C42.6771 38.5961 42.3159 38.492 41.8994 38.492C41.4786 38.492 41.0961 38.5961 40.7519 38.8044C40.4076 39.0126 40.1335 39.2931 39.9295 39.6459C39.7298 39.9944 39.6299 40.3832 39.6299 40.8125C39.6299 41.2417 39.734 41.6327 39.9423 41.9855C40.1505 42.334 40.4268 42.6124 40.771 42.8206C41.1153 43.0246 41.4914 43.1266 41.8994 43.1266ZM46.8438 44V34.4375H47.9148V44H46.8438ZM56.0791 44.1658C55.4926 44.1658 54.9571 44.0149 54.4726 43.7131C53.9923 43.4114 53.6077 43.0076 53.3187 42.5019C53.034 41.9919 52.8916 41.4287 52.8916 40.8125C52.8916 40.345 52.9745 39.9094 53.1402 39.5056C53.306 39.0976 53.5333 38.7406 53.8223 38.4346C54.1156 38.1244 54.4556 37.8821 54.8423 37.7079C55.2291 37.5336 55.6413 37.4465 56.0791 37.4465C56.5593 37.4465 56.9992 37.5442 57.3987 37.7397C57.8025 37.931 58.1467 38.1987 58.4315 38.543C58.7205 38.8872 58.9351 39.2867 59.0753 39.7415C59.2198 40.1962 59.273 40.6829 59.2347 41.2014H54.0327C54.0837 41.5626 54.2027 41.8856 54.3897 42.1704C54.5767 42.4509 54.8147 42.674 55.1037 42.8397C55.397 43.0055 55.7221 43.0905 56.0791 43.0947C56.4616 43.0947 56.808 42.997 57.1182 42.8015C57.4285 42.6017 57.6792 42.3297 57.8705 41.9855L58.9606 42.2405C58.7056 42.8057 58.321 43.269 57.8067 43.6302C57.2925 43.9872 56.7166 44.1658 56.0791 44.1658ZM54.0008 40.3599H58.1573C58.1233 40.0029 58.0086 39.6777 57.8131 39.3845C57.6176 39.087 57.369 38.849 57.0672 38.6705C56.7655 38.492 56.4361 38.4027 56.0791 38.4027C55.7221 38.4027 55.3948 38.4899 55.0973 38.6641C54.7998 38.8384 54.5533 39.0742 54.3578 39.3717C54.1666 39.665 54.0476 39.9944 54.0008 40.3599ZM59.9634 44L62.2966 40.7997L59.9761 37.6122H61.2957L62.9596 39.8817L64.6171 37.6122H65.9367L63.6162 40.7997L65.9495 44H64.6299L62.9596 41.705L61.283 44H59.9634ZM73.2464 40.0347V44H72.1754V40.2706C72.1754 39.9476 72.0967 39.6544 71.9395 39.3909C71.7822 39.1274 71.5719 38.9191 71.3084 38.7661C71.0449 38.6089 70.7516 38.5302 70.4286 38.5302C70.1099 38.5302 69.8166 38.6089 69.5489 38.7661C69.2854 38.9191 69.075 39.1274 68.9177 39.3909C68.7605 39.6544 68.6819 39.9476 68.6819 40.2706V44H67.6109V34.4375H68.6819V38.4219C68.9071 38.1244 69.1919 37.8885 69.5361 37.7142C69.8804 37.5357 70.2544 37.4465 70.6581 37.4465C71.1341 37.4465 71.5676 37.5634 71.9586 37.7971C72.3539 38.0266 72.6662 38.3369 72.8957 38.7279C73.1295 39.1189 73.2464 39.5545 73.2464 40.0347ZM74.9038 37.625H75.9748V44H74.9038V37.625ZM75.452 36.5859C75.282 36.5859 75.1396 36.5306 75.0249 36.4201C74.9101 36.3096 74.8528 36.1715 74.8528 36.0057C74.8528 35.84 74.9101 35.7019 75.0249 35.5914C75.1396 35.4809 75.2799 35.4256 75.4456 35.4256C75.6114 35.4256 75.7516 35.4809 75.8664 35.5914C75.9811 35.7019 76.0385 35.84 76.0385 36.0057C76.0385 36.1715 75.9811 36.3096 75.8664 36.4201C75.7559 36.5306 75.6178 36.5859 75.452 36.5859ZM81.1517 37.4465C81.7722 37.4465 82.3353 37.5974 82.841 37.8991C83.351 38.2009 83.7569 38.6067 84.0587 39.1167C84.3604 39.6225 84.5113 40.1856 84.5113 40.8061C84.5113 41.2694 84.4242 41.705 84.2499 42.113C84.0757 42.5167 83.8334 42.8737 83.5232 43.184C83.2172 43.49 82.8602 43.7301 82.4522 43.9044C82.0484 44.0786 81.6149 44.1658 81.1517 44.1658C80.6587 44.1658 80.2294 44.051 79.8639 43.8215C79.5027 43.5877 79.2137 43.2839 78.9969 42.9099V44H77.9259V34.4375H78.9969V38.7024C79.2137 38.3284 79.5027 38.0266 79.8639 37.7971C80.2294 37.5634 80.6587 37.4465 81.1517 37.4465ZM81.1389 43.1202C81.5597 43.1202 81.9422 43.0161 82.2864 42.8079C82.6307 42.5996 82.9048 42.3212 83.1088 41.9727C83.3128 41.62 83.4148 41.2311 83.4148 40.8061C83.4148 40.3726 83.3107 39.9816 83.1024 39.6331C82.8942 39.2804 82.6179 39.002 82.2737 38.798C81.9294 38.5897 81.5512 38.4856 81.1389 38.4856C80.7224 38.4856 80.359 38.5897 80.0488 38.798C79.7428 39.0062 79.5048 39.2867 79.3348 39.6395C79.169 39.9922 79.0862 40.3811 79.0862 40.8061C79.0862 41.2354 79.169 41.6264 79.3348 41.9791C79.5048 42.3276 79.7449 42.606 80.0552 42.8142C80.3654 43.0182 80.7267 43.1202 81.1389 43.1202ZM85.8663 37.625H86.9373V44H85.8663V37.625ZM86.4145 36.5859C86.2445 36.5859 86.1021 36.5306 85.9874 36.4201C85.8726 36.3096 85.8153 36.1715 85.8153 36.0057C85.8153 35.84 85.8726 35.7019 85.9874 35.5914C86.1021 35.4809 86.2424 35.4256 86.4081 35.4256C86.5739 35.4256 86.7141 35.4809 86.8289 35.5914C86.9436 35.7019 87.001 35.84 87.001 36.0057C87.001 36.1715 86.9436 36.3096 86.8289 36.4201C86.7184 36.5306 86.5803 36.5859 86.4145 36.5859ZM92.1533 38.696H90.7062L90.6998 44H89.6288L89.6352 38.696H88.5387V37.625H89.6352L89.6288 35.6232H90.6998L90.7062 37.625H92.1533V38.696ZM93.6164 37.625H94.6874V44H93.6164V37.625ZM94.1646 36.5859C93.9946 36.5859 93.8523 36.5306 93.7375 36.4201C93.6228 36.3096 93.5654 36.1715 93.5654 36.0057C93.5654 35.84 93.6228 35.7019 93.7375 35.5914C93.8523 35.4809 93.9925 35.4256 94.1583 35.4256C94.324 35.4256 94.4643 35.4809 94.579 35.5914C94.6938 35.7019 94.7511 35.84 94.7511 36.0057C94.7511 36.1715 94.6938 36.3096 94.579 36.4201C94.4685 36.5306 94.3304 36.5859 94.1646 36.5859ZM99.319 44.1658C98.7325 44.1658 98.197 44.0149 97.7125 43.7131C97.2323 43.4114 96.8476 43.0076 96.5586 42.5019C96.2739 41.9919 96.1315 41.4287 96.1315 40.8125C96.1315 40.345 96.2144 39.9094 96.3801 39.5056C96.5459 39.0976 96.7733 38.7406 97.0623 38.4346C97.3555 38.1244 97.6955 37.8821 98.0823 37.7079C98.469 37.5336 98.8813 37.4465 99.319 37.4465C99.9055 37.4465 100.439 37.5974 100.919 37.8991C101.404 38.2009 101.788 38.6067 102.073 39.1167C102.362 39.6267 102.507 40.192 102.507 40.8125C102.507 41.2757 102.424 41.7092 102.258 42.113C102.092 42.5167 101.863 42.8737 101.569 43.184C101.28 43.49 100.943 43.7301 100.556 43.9044C100.173 44.0786 99.761 44.1658 99.319 44.1658ZM99.319 43.0947C99.7185 43.0947 100.078 42.9906 100.396 42.7824C100.719 42.5699 100.972 42.2915 101.155 41.9472C101.342 41.5987 101.436 41.2205 101.436 40.8125C101.436 40.396 101.34 40.0135 101.149 39.665C100.962 39.3165 100.709 39.0381 100.39 38.8299C100.071 38.6216 99.7143 38.5175 99.319 38.5175C98.9195 38.5175 98.5604 38.6237 98.2416 38.8362C97.9229 39.0445 97.67 39.3229 97.483 39.6714C97.296 40.0199 97.2025 40.4002 97.2025 40.8125C97.2025 41.2375 97.2981 41.6242 97.4894 41.9727C97.6806 42.317 97.9378 42.5911 98.2608 42.7951C98.5838 42.9949 98.9365 43.0947 99.319 43.0947ZM109.579 40.0347V44H108.508V40.2706C108.508 39.9476 108.43 39.6544 108.273 39.3909C108.115 39.1274 107.905 38.9191 107.641 38.7661C107.378 38.6089 107.085 38.5302 106.762 38.5302C106.443 38.5302 106.15 38.6089 105.882 38.7661C105.618 38.9191 105.408 39.1274 105.251 39.3909C105.094 39.6544 105.015 39.9476 105.015 40.2706V44H103.944V37.625H105.015V38.4219C105.24 38.1244 105.525 37.8885 105.869 37.7142C106.213 37.5357 106.587 37.4465 106.991 37.4465C107.467 37.4465 107.901 37.5634 108.292 37.7971C108.687 38.0266 108.999 38.3369 109.229 38.7279C109.463 39.1189 109.579 39.5545 109.579 40.0347ZM116.129 36.0504V37.625H117.997V38.696H116.129V44H115.058V38.696H114.236V37.625H115.058V36.0504C115.058 35.7231 115.137 35.4277 115.294 35.1642C115.456 34.8965 115.67 34.684 115.938 34.5267C116.21 34.3652 116.508 34.2845 116.831 34.2845C117.069 34.2845 117.3 34.3334 117.526 34.4311C117.751 34.5246 117.951 34.6649 118.125 34.8519L117.36 35.6105C117.3 35.5297 117.222 35.4681 117.124 35.4256C117.03 35.3789 116.933 35.3555 116.831 35.3555C116.639 35.3555 116.474 35.4235 116.333 35.5595C116.197 35.6955 116.129 35.8591 116.129 36.0504ZM119.572 44V37.625H120.643V38.4219C120.868 38.1244 121.153 37.8885 121.497 37.7142C121.842 37.5357 122.216 37.4465 122.619 37.4465C122.866 37.4465 123.104 37.4784 123.333 37.5421L122.9 38.6131C122.726 38.5579 122.556 38.5302 122.39 38.5302C122.071 38.5302 121.778 38.6089 121.51 38.7661C121.247 38.9191 121.036 39.1274 120.879 39.3909C120.722 39.6544 120.643 39.9476 120.643 40.2706V44H119.572ZM126.981 44.1658C126.394 44.1658 125.859 44.0149 125.374 43.7131C124.894 43.4114 124.509 43.0076 124.22 42.5019C123.935 41.9919 123.793 41.4287 123.793 40.8125C123.793 40.345 123.876 39.9094 124.042 39.5056C124.207 39.0976 124.435 38.7406 124.724 38.4346C125.017 38.1244 125.357 37.8821 125.744 37.7079C126.131 37.5336 126.543 37.4465 126.981 37.4465C127.567 37.4465 128.1 37.5974 128.581 37.8991C129.065 38.2009 129.45 38.6067 129.735 39.1167C130.024 39.6267 130.168 40.192 130.168 40.8125C130.168 41.2757 130.085 41.7092 129.919 42.113C129.754 42.5167 129.524 42.8737 129.231 43.184C128.942 43.49 128.604 43.7301 128.217 43.9044C127.835 44.0786 127.423 44.1658 126.981 44.1658ZM126.981 43.0947C127.38 43.0947 127.739 42.9906 128.058 42.7824C128.381 42.5699 128.634 42.2915 128.817 41.9472C129.004 41.5987 129.097 41.2205 129.097 40.8125C129.097 40.396 129.001 40.0135 128.81 39.665C128.623 39.3165 128.37 39.0381 128.052 38.8299C127.733 38.6216 127.376 38.5175 126.981 38.5175C126.581 38.5175 126.222 38.6237 125.903 38.8362C125.584 39.0445 125.332 39.3229 125.145 39.6714C124.958 40.0199 124.864 40.4002 124.864 40.8125C124.864 41.2375 124.96 41.6242 125.151 41.9727C125.342 42.317 125.599 42.5911 125.922 42.7951C126.245 42.9949 126.598 43.0947 126.981 43.0947ZM131.605 44V37.625H132.676V38.4219C132.902 38.1244 133.184 37.8885 133.524 37.7142C133.869 37.5357 134.243 37.4465 134.646 37.4465C135.118 37.4465 135.549 37.5612 135.94 37.7907C136.331 38.0202 136.64 38.3241 136.865 38.7024C137.09 38.3241 137.396 38.0202 137.783 37.7907C138.174 37.5612 138.603 37.4465 139.071 37.4465C139.551 37.4465 139.986 37.5634 140.377 37.7971C140.768 38.0266 141.079 38.3369 141.308 38.7279C141.542 39.1189 141.659 39.5545 141.659 40.0347V44H140.588V40.2897C140.588 39.9752 140.511 39.6841 140.358 39.4164C140.205 39.1486 139.999 38.934 139.74 38.7725C139.481 38.611 139.194 38.5302 138.879 38.5302C138.565 38.5302 138.278 38.6067 138.019 38.7597C137.759 38.9085 137.553 39.1167 137.4 39.3845C137.247 39.648 137.171 39.9497 137.171 40.2897V44H136.1V40.2897C136.1 39.9497 136.023 39.648 135.87 39.3845C135.717 39.1167 135.509 38.9085 135.246 38.7597C134.986 38.6067 134.699 38.5302 134.385 38.5302C134.075 38.5302 133.788 38.611 133.524 38.7725C133.265 38.934 133.059 39.1486 132.906 39.4164C132.753 39.6841 132.676 39.9752 132.676 40.2897V44H131.605ZM152.253 35.075H153.324V44H152.253V39.7542H147.835V44H146.764V35.075H147.835V38.6832H152.253V35.075ZM157.982 44.1658C157.396 44.1658 156.86 44.0149 156.376 43.7131C155.896 43.4114 155.511 43.0076 155.222 42.5019C154.937 41.9919 154.795 41.4287 154.795 40.8125C154.795 40.345 154.878 39.9094 155.044 39.5056C155.209 39.0976 155.437 38.7406 155.726 38.4346C156.019 38.1244 156.359 37.8821 156.746 37.7079C157.132 37.5336 157.545 37.4465 157.982 37.4465C158.569 37.4465 159.102 37.5974 159.583 37.8991C160.067 38.2009 160.452 38.6067 160.736 39.1167C161.025 39.6267 161.17 40.192 161.17 40.8125C161.17 41.2757 161.087 41.7092 160.921 42.113C160.756 42.5167 160.526 42.8737 160.233 43.184C159.944 43.49 159.606 43.7301 159.219 43.9044C158.837 44.0786 158.424 44.1658 157.982 44.1658ZM157.982 43.0947C158.382 43.0947 158.741 42.9906 159.06 42.7824C159.383 42.5699 159.636 42.2915 159.818 41.9472C160.005 41.5987 160.099 41.2205 160.099 40.8125C160.099 40.396 160.003 40.0135 159.812 39.665C159.625 39.3165 159.372 39.0381 159.053 38.8299C158.735 38.6216 158.378 38.5175 157.982 38.5175C157.583 38.5175 157.224 38.6237 156.905 38.8362C156.586 39.0445 156.333 39.3229 156.146 39.6714C155.959 40.0199 155.866 40.4002 155.866 40.8125C155.866 41.2375 155.962 41.6242 156.153 41.9727C156.344 42.317 156.601 42.5911 156.924 42.7951C157.247 42.9949 157.6 43.0947 157.982 43.0947ZM168.243 40.0347V44H167.172V40.2706C167.172 39.9476 167.093 39.6544 166.936 39.3909C166.779 39.1274 166.568 38.9191 166.305 38.7661C166.041 38.6089 165.748 38.5302 165.425 38.5302C165.106 38.5302 164.813 38.6089 164.545 38.7661C164.282 38.9191 164.071 39.1274 163.914 39.3909C163.757 39.6544 163.678 39.9476 163.678 40.2706V44H162.607V37.625H163.678V38.4219C163.904 38.1244 164.188 37.8885 164.533 37.7142C164.877 37.5357 165.251 37.4465 165.655 37.4465C166.131 37.4465 166.564 37.5634 166.955 37.7971C167.35 38.0266 167.663 38.3369 167.892 38.7279C168.126 39.1189 168.243 39.5545 168.243 40.0347ZM174.755 37.625H175.826V44.204C175.826 44.6248 175.734 45.0158 175.551 45.377C175.373 45.7425 175.131 46.0591 174.825 46.3269C174.519 46.5989 174.17 46.8093 173.779 46.958C173.388 47.111 172.98 47.1875 172.555 47.1875C172.113 47.1875 171.686 47.0876 171.274 46.8879C170.862 46.6924 170.5 46.4289 170.19 46.0974C169.884 45.7701 169.663 45.4025 169.527 44.9945L170.509 44.5483C170.59 44.8415 170.734 45.105 170.942 45.3388C171.155 45.5768 171.401 45.7638 171.682 45.8998C171.967 46.04 172.258 46.1101 172.555 46.1101C172.836 46.1101 173.106 46.0613 173.365 45.9635C173.628 45.8658 173.864 45.7298 174.072 45.5555C174.285 45.3855 174.451 45.1836 174.57 44.9499C174.693 44.7204 174.755 44.4718 174.755 44.204V42.9354C174.538 43.3009 174.251 43.5984 173.894 43.8279C173.541 44.0531 173.129 44.1658 172.657 44.1658C172.207 44.1658 171.784 44.0786 171.389 43.9044C170.993 43.7301 170.647 43.49 170.349 43.184C170.052 42.8737 169.818 42.5167 169.648 42.113C169.478 41.7092 169.393 41.2757 169.393 40.8125C169.393 40.3492 169.478 39.9157 169.648 39.512C169.818 39.104 170.052 38.747 170.349 38.441C170.647 38.1307 170.993 37.8885 171.389 37.7142C171.784 37.54 172.207 37.4529 172.657 37.4529C173.129 37.4529 173.541 37.5655 173.894 37.7907C174.251 38.016 174.538 38.3135 174.755 38.6832V37.625ZM172.664 43.1266C173.076 43.1266 173.433 43.0204 173.735 42.8079C174.041 42.5954 174.276 42.3127 174.442 41.96C174.608 41.6072 174.691 41.2247 174.691 40.8125C174.691 40.3875 174.606 40.0007 174.436 39.6522C174.27 39.2995 174.034 39.019 173.728 38.8107C173.426 38.5982 173.072 38.492 172.664 38.492C172.264 38.492 171.899 38.5961 171.567 38.8044C171.236 39.0126 170.972 39.2931 170.777 39.6459C170.585 39.9944 170.49 40.3832 170.49 40.8125C170.49 41.2417 170.587 41.6327 170.783 41.9855C170.983 42.334 171.246 42.6124 171.573 42.8206C171.905 43.0246 172.268 43.1266 172.664 43.1266ZM187.128 44H185.745L182.927 40.1304L182.257 40.9336V44H181.186V35.075H182.257V39.2697L185.77 35.075H187.166L183.628 39.2889L187.128 44ZM190.873 44.1658C190.287 44.1658 189.751 44.0149 189.267 43.7131C188.787 43.4114 188.402 43.0076 188.113 42.5019C187.828 41.9919 187.686 41.4287 187.686 40.8125C187.686 40.345 187.769 39.9094 187.935 39.5056C188.1 39.0976 188.328 38.7406 188.617 38.4346C188.91 38.1244 189.25 37.8821 189.637 37.7079C190.023 37.5336 190.436 37.4465 190.873 37.4465C191.46 37.4465 191.993 37.5974 192.474 37.8991C192.958 38.2009 193.343 38.6067 193.627 39.1167C193.916 39.6267 194.061 40.192 194.061 40.8125C194.061 41.2757 193.978 41.7092 193.812 42.113C193.647 42.5167 193.417 42.8737 193.124 43.184C192.835 43.49 192.497 43.7301 192.11 43.9044C191.728 44.0786 191.315 44.1658 190.873 44.1658ZM190.873 43.0947C191.273 43.0947 191.632 42.9906 191.951 42.7824C192.274 42.5699 192.527 42.2915 192.709 41.9472C192.896 41.5987 192.99 41.2205 192.99 40.8125C192.99 40.396 192.894 40.0135 192.703 39.665C192.516 39.3165 192.263 39.0381 191.944 38.8299C191.626 38.6216 191.269 38.5175 190.873 38.5175C190.474 38.5175 190.115 38.6237 189.796 38.8362C189.477 39.0445 189.224 39.3229 189.037 39.6714C188.85 40.0199 188.757 40.4002 188.757 40.8125C188.757 41.2375 188.853 41.6242 189.044 41.9727C189.235 42.317 189.492 42.5911 189.815 42.7951C190.138 42.9949 190.491 43.0947 190.873 43.0947ZM201.134 40.0347V44H200.063V40.2706C200.063 39.9476 199.984 39.6544 199.827 39.3909C199.67 39.1274 199.459 38.9191 199.196 38.7661C198.932 38.6089 198.639 38.5302 198.316 38.5302C197.997 38.5302 197.704 38.6089 197.436 38.7661C197.173 38.9191 196.962 39.1274 196.805 39.3909C196.648 39.6544 196.569 39.9476 196.569 40.2706V44H195.498V37.625H196.569V38.4219C196.795 38.1244 197.079 37.8885 197.424 37.7142C197.768 37.5357 198.142 37.4465 198.546 37.4465C199.022 37.4465 199.455 37.5634 199.846 37.7971C200.241 38.0266 200.554 38.3369 200.783 38.7279C201.017 39.1189 201.134 39.5545 201.134 40.0347ZM207.646 37.625H208.717V44.204C208.717 44.6248 208.625 45.0158 208.442 45.377C208.264 45.7425 208.022 46.0591 207.716 46.3269C207.41 46.5989 207.061 46.8093 206.67 46.958C206.279 47.111 205.871 47.1875 205.446 47.1875C205.004 47.1875 204.577 47.0876 204.165 46.8879C203.753 46.6924 203.391 46.4289 203.081 46.0974C202.775 45.7701 202.554 45.4025 202.418 44.9945L203.4 44.5483C203.481 44.8415 203.625 45.105 203.833 45.3388C204.046 45.5768 204.292 45.7638 204.573 45.8998C204.858 46.04 205.149 46.1101 205.446 46.1101C205.727 46.1101 205.997 46.0613 206.256 45.9635C206.519 45.8658 206.755 45.7298 206.963 45.5555C207.176 45.3855 207.342 45.1836 207.461 44.9499C207.584 44.7204 207.646 44.4718 207.646 44.204V42.9354C207.429 43.3009 207.142 43.5984 206.785 43.8279C206.432 44.0531 206.02 44.1658 205.548 44.1658C205.098 44.1658 204.675 44.0786 204.28 43.9044C203.884 43.7301 203.538 43.49 203.24 43.184C202.943 42.8737 202.709 42.5167 202.539 42.113C202.369 41.7092 202.284 41.2757 202.284 40.8125C202.284 40.3492 202.369 39.9157 202.539 39.512C202.709 39.104 202.943 38.747 203.24 38.441C203.538 38.1307 203.884 37.8885 204.28 37.7142C204.675 37.54 205.098 37.4529 205.548 37.4529C206.02 37.4529 206.432 37.5655 206.785 37.7907C207.142 38.016 207.429 38.3135 207.646 38.6832V37.625ZM205.555 43.1266C205.967 43.1266 206.324 43.0204 206.626 42.8079C206.932 42.5954 207.167 42.3127 207.333 41.96C207.499 41.6072 207.582 41.2247 207.582 40.8125C207.582 40.3875 207.497 40.0007 207.327 39.6522C207.161 39.2995 206.925 39.019 206.619 38.8107C206.317 38.5982 205.963 38.492 205.555 38.492C205.155 38.492 204.79 38.5961 204.458 38.8044C204.127 39.0126 203.863 39.2931 203.668 39.6459C203.476 39.9944 203.381 40.3832 203.381 40.8125C203.381 41.2417 203.478 41.6327 203.674 41.9855C203.874 42.334 204.137 42.6124 204.464 42.8206C204.796 43.0246 205.159 43.1266 205.555 43.1266Z" fill="white"/>
</svg>
